M48
; DRILL file {KiCad 7.0.2} date Wed Jan 31 20:38:25 2024
; FORMAT={-:-/ absolute / metric / decimal}
; #@! TF.CreationDate,2024-01-31T20:38:25-08:00
; #@! TF.GenerationSoftware,Kicad,Pcbnew,7.0.2
; #@! TF.FileFunction,Plated,1,4,PTH
FMAT,2
METRIC
; #@! TA.AperFunction,Plated,PTH,ComponentDrill
T1C0.200
; #@! TA.AperFunction,Plated,PTH,ViaDrill
T2C0.400
; #@! TA.AperFunction,Plated,PTH,ComponentDrill
T3C0.610
; #@! TA.AperFunction,Plated,PTH,ComponentDrill
T4C0.991
; #@! TA.AperFunction,Plated,PTH,ComponentDrill
T5C1.000
; #@! TA.AperFunction,Plated,PTH,ComponentDrill
T6C1.830
%
G90
G05
T1
X7.91Y-165.8
X7.91Y-167.2
X8.61Y-165.1
X8.61Y-166.5
X8.61Y-167.9
X9.31Y-165.8
X9.31Y-167.2
X10.01Y-165.1
X10.01Y-166.5
X10.01Y-167.9
X10.71Y-165.8
X10.71Y-167.2
X27.7Y-182.65
X27.7Y-183.95
X27.95Y-161.8
X28.525Y-160.85
X28.525Y-162.75
X28.7Y-182.65
X28.7Y-183.95
X29.1Y-161.8
X29.7Y-182.65
X29.7Y-183.95
T2
X0.5Y-189.25
X0.55Y-197.1
X0.75Y-175.3
X1.15Y-202.45
X1.4Y-160.7
X1.537Y-183.2
X1.7Y-157.7
X1.75Y-189.25
X2.55Y-161.8
X2.9Y-164.0
X3.2Y-183.2
X3.41Y-128.4
X3.41Y-130.94
X3.41Y-133.48
X3.41Y-136.02
X3.41Y-138.56
X3.41Y-141.1
X3.41Y-148.72
X3.41Y-153.8
X3.41Y-158.88
X3.438Y-190.05
X4.285Y-160.765
X4.4Y-187.25
X4.45Y-185.5
X4.45Y-199.3
X4.55Y-180.3
X4.55Y-182.0
X4.6Y-176.9
X4.6Y-178.6
X5.55Y-158.65
X5.95Y-125.86
X5.95Y-128.4
X5.95Y-130.94
X5.95Y-133.48
X5.95Y-136.02
X5.95Y-138.56
X5.95Y-146.18
X5.95Y-148.72
X5.95Y-153.8
X5.95Y-184.28
X5.95Y-186.82
X6.0Y-197.15
X6.5Y-192.75
X6.8Y-158.65
X6.8Y-176.9
X6.8Y-178.65
X6.8Y-180.4
X6.8Y-182.15
X6.9Y-196.1
X8.49Y-128.4
X8.49Y-138.56
X8.49Y-141.1
X8.49Y-143.64
X8.49Y-146.18
X8.49Y-148.72
X8.49Y-153.8
X8.49Y-163.96
X8.49Y-169.04
X8.49Y-194.44
X8.7Y-196.3
X8.7Y-200.6
X8.9Y-203.3
X8.9Y-208.7
X10.0Y-199.75
X10.45Y-189.1
X10.45Y-190.05
X11.03Y-128.4
X11.03Y-130.94
X11.03Y-133.48
X11.03Y-161.42
X11.03Y-163.96
X11.03Y-169.04
X11.03Y-171.58
X11.03Y-176.66
X11.03Y-179.2
X11.03Y-181.74
X11.03Y-184.28
X11.03Y-186.82
X11.15Y-202.45
X11.4Y-126.35
X11.45Y-123.35
X12.15Y-189.95
X12.85Y-196.95
X13.3Y-193.0
X13.57Y-123.32
X13.57Y-125.86
X13.57Y-130.94
X13.57Y-136.02
X13.57Y-146.18
X13.57Y-148.72
X13.57Y-151.26
X13.57Y-161.42
X13.57Y-163.96
X13.57Y-166.5
X13.57Y-169.04
X13.57Y-184.28
X13.57Y-186.82
X14.45Y-159.95
X15.35Y-154.55
X15.45Y-138.5
X15.7Y-158.65
X16.11Y-123.32
X16.11Y-125.86
X16.11Y-161.42
X16.11Y-163.96
X16.11Y-166.5
X16.11Y-169.04
X16.11Y-184.28
X16.11Y-186.82
X16.11Y-199.52
X16.11Y-207.14
X16.4Y-154.55
X16.75Y-205.15
X17.35Y-175.55
X17.8Y-205.15
X17.9Y-170.7
X18.1Y-191.25
X18.65Y-123.32
X18.65Y-125.86
X18.65Y-130.94
X18.65Y-148.72
X18.65Y-151.26
X18.65Y-184.28
X18.65Y-186.82
X18.65Y-207.14
X19.95Y-138.5
X20.2Y-196.15
X20.55Y-155.3
X20.6Y-179.35
X20.6Y-182.85
X20.65Y-153.6
X20.7Y-132.95
X21.19Y-123.32
X21.19Y-125.86
X21.19Y-128.4
X21.19Y-130.94
X21.19Y-174.12
X21.19Y-186.82
X21.4Y-198.65
X21.55Y-164.9
X21.55Y-196.15
X22.55Y-198.6
X22.65Y-192.15
X22.75Y-150.65
X23.65Y-192.1
X23.73Y-123.32
X23.73Y-125.86
X23.73Y-128.4
X23.73Y-130.94
X23.73Y-138.56
X23.73Y-143.64
X24.05Y-205.75
X24.3Y-202.5
X24.4Y-162.5
X24.55Y-196.3
X24.6Y-149.35
X24.6Y-194.6
X24.7Y-153.6
X25.25Y-155.65
X25.4Y-202.5
X26.05Y-175.0
X26.15Y-179.0
X26.25Y-153.1
X26.25Y-194.6
X26.27Y-128.4
X26.27Y-136.02
X26.27Y-146.18
X26.27Y-148.72
X26.27Y-189.36
X26.3Y-196.3
X26.4Y-155.65
X26.5Y-202.5
X26.75Y-123.7
X26.95Y-164.85
X26.95Y-166.5
X27.0Y-175.0
X27.85Y-202.2
X28.05Y-187.45
X28.81Y-125.86
X28.81Y-128.4
X28.81Y-136.02
X28.81Y-143.64
X28.81Y-148.72
X28.81Y-153.8
X28.81Y-156.34
X28.81Y-158.88
X28.81Y-189.36
X28.81Y-191.9
X28.81Y-207.14
X29.335Y-187.385
X30.6Y-187.45
X30.85Y-150.7
X31.2Y-168.15
X31.2Y-171.6
X31.2Y-175.0
X31.2Y-176.7
X31.25Y-169.85
X31.25Y-173.3
X31.35Y-128.4
X31.35Y-130.94
X31.35Y-133.48
X31.35Y-138.56
X31.35Y-141.1
X31.35Y-143.64
X31.35Y-166.5
X31.45Y-201.75
X32.1Y-168.15
X32.45Y-177.95
X32.45Y-178.9
X32.85Y-198.35
X32.85Y-200.05
X32.95Y-149.6
X33.25Y-146.1
X33.25Y-147.75
X33.5Y-153.75
X33.5Y-155.35
X33.5Y-158.75
X33.55Y-157.1
X33.6Y-185.7
X33.8Y-187.85
X33.8Y-192.1
X33.89Y-123.32
X33.89Y-125.86
X33.89Y-128.4
X33.89Y-130.94
X33.89Y-133.48
X33.89Y-136.02
X33.89Y-138.56
X33.89Y-141.1
X33.89Y-181.74
X33.89Y-184.28
X33.89Y-202.06
X33.89Y-204.6
X33.89Y-207.14
X33.9Y-193.3
T4
X6.829Y-141.725
X6.829Y-144.225
X8.447Y-130.5
X8.447Y-133.0
X8.447Y-135.5
X14.0Y-128.947
X16.5Y-128.947
X19.0Y-128.947
X27.553Y-130.775
X27.553Y-133.275
X27.553Y-139.5
X27.553Y-142.0
T5
X12.8Y-153.4
X23.8Y-172.95
T6
X14.96Y-141.62
X14.96Y-189.62
X17.5Y-134.0
X17.5Y-197.24
X20.04Y-141.62
X20.04Y-189.62
T3
X13.18Y-203.123G85X13.18Y-204.215
G05
X13.18Y-207.454G85X13.18Y-208.244
G05
X21.82Y-203.123G85X21.82Y-204.215
G05
X21.82Y-207.454G85X21.82Y-208.244
G05
T0
M30
