G04 #@! TF.GenerationSoftware,KiCad,Pcbnew,7.0.2*
G04 #@! TF.CreationDate,2024-01-31T20:37:37-08:00*
G04 #@! TF.ProjectId,Lightsaber,4c696768-7473-4616-9265-722e6b696361,rev?*
G04 #@! TF.SameCoordinates,Original*
G04 #@! TF.FileFunction,Legend,Bot*
G04 #@! TF.FilePolarity,Positive*
%FSLAX46Y46*%
G04 Gerber Fmt 4.6, Leading zero omitted, Abs format (unit mm)*
G04 Created by KiCad (PCBNEW 7.0.2) date 2024-01-31 20:37:37*
%MOMM*%
%LPD*%
G01*
G04 APERTURE LIST*
%ADD10C,0.100000*%
%ADD11C,0.625000*%
%ADD12C,1.000000*%
%ADD13C,3.200000*%
%ADD14C,1.498600*%
%ADD15C,0.660400*%
%ADD16O,1.200000X2.000000*%
%ADD17O,1.200000X2.300000*%
%ADD18R,2.000000X2.000000*%
%ADD19C,3.600000*%
G04 APERTURE END LIST*
D10*
X17833333Y-192638619D02*
X17833333Y-193352904D01*
X17833333Y-193352904D02*
X17880952Y-193495761D01*
X17880952Y-193495761D02*
X17976190Y-193591000D01*
X17976190Y-193591000D02*
X18119047Y-193638619D01*
X18119047Y-193638619D02*
X18214285Y-193638619D01*
X17452380Y-192638619D02*
X16833333Y-192638619D01*
X16833333Y-192638619D02*
X17166666Y-193019571D01*
X17166666Y-193019571D02*
X17023809Y-193019571D01*
X17023809Y-193019571D02*
X16928571Y-193067190D01*
X16928571Y-193067190D02*
X16880952Y-193114809D01*
X16880952Y-193114809D02*
X16833333Y-193210047D01*
X16833333Y-193210047D02*
X16833333Y-193448142D01*
X16833333Y-193448142D02*
X16880952Y-193543380D01*
X16880952Y-193543380D02*
X16928571Y-193591000D01*
X16928571Y-193591000D02*
X17023809Y-193638619D01*
X17023809Y-193638619D02*
X17309523Y-193638619D01*
X17309523Y-193638619D02*
X17404761Y-193591000D01*
X17404761Y-193591000D02*
X17452380Y-193543380D01*
X16674285Y-193367190D02*
X16817142Y-193319571D01*
X16817142Y-193319571D02*
X16864761Y-193271952D01*
X16864761Y-193271952D02*
X16912380Y-193176714D01*
X16912380Y-193176714D02*
X16912380Y-193033857D01*
X16912380Y-193033857D02*
X16864761Y-192938619D01*
X16864761Y-192938619D02*
X16817142Y-192891000D01*
X16817142Y-192891000D02*
X16721904Y-192843380D01*
X16721904Y-192843380D02*
X16340952Y-192843380D01*
X16340952Y-192843380D02*
X16340952Y-193843380D01*
X16340952Y-193843380D02*
X16674285Y-193843380D01*
X16674285Y-193843380D02*
X16769523Y-193795761D01*
X16769523Y-193795761D02*
X16817142Y-193748142D01*
X16817142Y-193748142D02*
X16864761Y-193652904D01*
X16864761Y-193652904D02*
X16864761Y-193557666D01*
X16864761Y-193557666D02*
X16817142Y-193462428D01*
X16817142Y-193462428D02*
X16769523Y-193414809D01*
X16769523Y-193414809D02*
X16674285Y-193367190D01*
X16674285Y-193367190D02*
X16340952Y-193367190D01*
X17198095Y-193843380D02*
X17769523Y-193843380D01*
X17483809Y-192843380D02*
X17483809Y-193843380D01*
X18626666Y-192843380D02*
X18055238Y-192843380D01*
X18340952Y-192843380D02*
X18340952Y-193843380D01*
X18340952Y-193843380D02*
X18245714Y-193700523D01*
X18245714Y-193700523D02*
X18150476Y-193605285D01*
X18150476Y-193605285D02*
X18055238Y-193557666D01*
D11*
X18809667Y-149236761D02*
X18809667Y-147808190D01*
X18809667Y-148522476D02*
X15309667Y-148522476D01*
X15309667Y-148522476D02*
X15809667Y-148284380D01*
X15809667Y-148284380D02*
X16143001Y-148046285D01*
X16143001Y-148046285D02*
X16309667Y-147808190D01*
X16809667Y-150665332D02*
X16643001Y-150427237D01*
X16643001Y-150427237D02*
X16476334Y-150308190D01*
X16476334Y-150308190D02*
X16143001Y-150189142D01*
X16143001Y-150189142D02*
X15976334Y-150189142D01*
X15976334Y-150189142D02*
X15643001Y-150308190D01*
X15643001Y-150308190D02*
X15476334Y-150427237D01*
X15476334Y-150427237D02*
X15309667Y-150665332D01*
X15309667Y-150665332D02*
X15309667Y-151141523D01*
X15309667Y-151141523D02*
X15476334Y-151379618D01*
X15476334Y-151379618D02*
X15643001Y-151498666D01*
X15643001Y-151498666D02*
X15976334Y-151617713D01*
X15976334Y-151617713D02*
X16143001Y-151617713D01*
X16143001Y-151617713D02*
X16476334Y-151498666D01*
X16476334Y-151498666D02*
X16643001Y-151379618D01*
X16643001Y-151379618D02*
X16809667Y-151141523D01*
X16809667Y-151141523D02*
X16809667Y-150665332D01*
X16809667Y-150665332D02*
X16976334Y-150427237D01*
X16976334Y-150427237D02*
X17143001Y-150308190D01*
X17143001Y-150308190D02*
X17476334Y-150189142D01*
X17476334Y-150189142D02*
X18143001Y-150189142D01*
X18143001Y-150189142D02*
X18476334Y-150308190D01*
X18476334Y-150308190D02*
X18643001Y-150427237D01*
X18643001Y-150427237D02*
X18809667Y-150665332D01*
X18809667Y-150665332D02*
X18809667Y-151141523D01*
X18809667Y-151141523D02*
X18643001Y-151379618D01*
X18643001Y-151379618D02*
X18476334Y-151498666D01*
X18476334Y-151498666D02*
X18143001Y-151617713D01*
X18143001Y-151617713D02*
X17476334Y-151617713D01*
X17476334Y-151617713D02*
X17143001Y-151498666D01*
X17143001Y-151498666D02*
X16976334Y-151379618D01*
X16976334Y-151379618D02*
X16809667Y-151141523D01*
X15309667Y-153760570D02*
X15309667Y-153284380D01*
X15309667Y-153284380D02*
X15476334Y-153046284D01*
X15476334Y-153046284D02*
X15643001Y-152927237D01*
X15643001Y-152927237D02*
X16143001Y-152689142D01*
X16143001Y-152689142D02*
X16809667Y-152570094D01*
X16809667Y-152570094D02*
X18143001Y-152570094D01*
X18143001Y-152570094D02*
X18476334Y-152689142D01*
X18476334Y-152689142D02*
X18643001Y-152808189D01*
X18643001Y-152808189D02*
X18809667Y-153046284D01*
X18809667Y-153046284D02*
X18809667Y-153522475D01*
X18809667Y-153522475D02*
X18643001Y-153760570D01*
X18643001Y-153760570D02*
X18476334Y-153879618D01*
X18476334Y-153879618D02*
X18143001Y-153998665D01*
X18143001Y-153998665D02*
X17309667Y-153998665D01*
X17309667Y-153998665D02*
X16976334Y-153879618D01*
X16976334Y-153879618D02*
X16809667Y-153760570D01*
X16809667Y-153760570D02*
X16643001Y-153522475D01*
X16643001Y-153522475D02*
X16643001Y-153046284D01*
X16643001Y-153046284D02*
X16809667Y-152808189D01*
X16809667Y-152808189D02*
X16976334Y-152689142D01*
X16976334Y-152689142D02*
X17309667Y-152570094D01*
X15309667Y-156260570D02*
X15309667Y-155070094D01*
X15309667Y-155070094D02*
X16976334Y-154951046D01*
X16976334Y-154951046D02*
X16809667Y-155070094D01*
X16809667Y-155070094D02*
X16643001Y-155308189D01*
X16643001Y-155308189D02*
X16643001Y-155903427D01*
X16643001Y-155903427D02*
X16809667Y-156141522D01*
X16809667Y-156141522D02*
X16976334Y-156260570D01*
X16976334Y-156260570D02*
X17309667Y-156379617D01*
X17309667Y-156379617D02*
X18143001Y-156379617D01*
X18143001Y-156379617D02*
X18476334Y-156260570D01*
X18476334Y-156260570D02*
X18643001Y-156141522D01*
X18643001Y-156141522D02*
X18809667Y-155903427D01*
X18809667Y-155903427D02*
X18809667Y-155308189D01*
X18809667Y-155308189D02*
X18643001Y-155070094D01*
X18643001Y-155070094D02*
X18476334Y-154951046D01*
X15309667Y-157927236D02*
X15309667Y-158165331D01*
X15309667Y-158165331D02*
X15476334Y-158403427D01*
X15476334Y-158403427D02*
X15643001Y-158522474D01*
X15643001Y-158522474D02*
X15976334Y-158641522D01*
X15976334Y-158641522D02*
X16643001Y-158760569D01*
X16643001Y-158760569D02*
X17476334Y-158760569D01*
X17476334Y-158760569D02*
X18143001Y-158641522D01*
X18143001Y-158641522D02*
X18476334Y-158522474D01*
X18476334Y-158522474D02*
X18643001Y-158403427D01*
X18643001Y-158403427D02*
X18809667Y-158165331D01*
X18809667Y-158165331D02*
X18809667Y-157927236D01*
X18809667Y-157927236D02*
X18643001Y-157689141D01*
X18643001Y-157689141D02*
X18476334Y-157570093D01*
X18476334Y-157570093D02*
X18143001Y-157451046D01*
X18143001Y-157451046D02*
X17476334Y-157331998D01*
X17476334Y-157331998D02*
X16643001Y-157331998D01*
X16643001Y-157331998D02*
X15976334Y-157451046D01*
X15976334Y-157451046D02*
X15643001Y-157570093D01*
X15643001Y-157570093D02*
X15476334Y-157689141D01*
X15476334Y-157689141D02*
X15309667Y-157927236D01*
X16976334Y-162570093D02*
X17143001Y-162927236D01*
X17143001Y-162927236D02*
X17309667Y-163046283D01*
X17309667Y-163046283D02*
X17643001Y-163165331D01*
X17643001Y-163165331D02*
X18143001Y-163165331D01*
X18143001Y-163165331D02*
X18476334Y-163046283D01*
X18476334Y-163046283D02*
X18643001Y-162927236D01*
X18643001Y-162927236D02*
X18809667Y-162689141D01*
X18809667Y-162689141D02*
X18809667Y-161736760D01*
X18809667Y-161736760D02*
X15309667Y-161736760D01*
X15309667Y-161736760D02*
X15309667Y-162570093D01*
X15309667Y-162570093D02*
X15476334Y-162808188D01*
X15476334Y-162808188D02*
X15643001Y-162927236D01*
X15643001Y-162927236D02*
X15976334Y-163046283D01*
X15976334Y-163046283D02*
X16309667Y-163046283D01*
X16309667Y-163046283D02*
X16643001Y-162927236D01*
X16643001Y-162927236D02*
X16809667Y-162808188D01*
X16809667Y-162808188D02*
X16976334Y-162570093D01*
X16976334Y-162570093D02*
X16976334Y-161736760D01*
X18809667Y-165308188D02*
X16976334Y-165308188D01*
X16976334Y-165308188D02*
X16643001Y-165189141D01*
X16643001Y-165189141D02*
X16476334Y-164951045D01*
X16476334Y-164951045D02*
X16476334Y-164474855D01*
X16476334Y-164474855D02*
X16643001Y-164236760D01*
X18643001Y-165308188D02*
X18809667Y-165070093D01*
X18809667Y-165070093D02*
X18809667Y-164474855D01*
X18809667Y-164474855D02*
X18643001Y-164236760D01*
X18643001Y-164236760D02*
X18309667Y-164117712D01*
X18309667Y-164117712D02*
X17976334Y-164117712D01*
X17976334Y-164117712D02*
X17643001Y-164236760D01*
X17643001Y-164236760D02*
X17476334Y-164474855D01*
X17476334Y-164474855D02*
X17476334Y-165070093D01*
X17476334Y-165070093D02*
X17309667Y-165308188D01*
X16476334Y-166141522D02*
X16476334Y-167093903D01*
X15309667Y-166498665D02*
X18309667Y-166498665D01*
X18309667Y-166498665D02*
X18643001Y-166617712D01*
X18643001Y-166617712D02*
X18809667Y-166855807D01*
X18809667Y-166855807D02*
X18809667Y-167093903D01*
X16476334Y-167570093D02*
X16476334Y-168522474D01*
X15309667Y-167927236D02*
X18309667Y-167927236D01*
X18309667Y-167927236D02*
X18643001Y-168046283D01*
X18643001Y-168046283D02*
X18809667Y-168284378D01*
X18809667Y-168284378D02*
X18809667Y-168522474D01*
X18643001Y-170308188D02*
X18809667Y-170070092D01*
X18809667Y-170070092D02*
X18809667Y-169593902D01*
X18809667Y-169593902D02*
X18643001Y-169355807D01*
X18643001Y-169355807D02*
X18309667Y-169236759D01*
X18309667Y-169236759D02*
X16976334Y-169236759D01*
X16976334Y-169236759D02*
X16643001Y-169355807D01*
X16643001Y-169355807D02*
X16476334Y-169593902D01*
X16476334Y-169593902D02*
X16476334Y-170070092D01*
X16476334Y-170070092D02*
X16643001Y-170308188D01*
X16643001Y-170308188D02*
X16976334Y-170427235D01*
X16976334Y-170427235D02*
X17309667Y-170427235D01*
X17309667Y-170427235D02*
X17643001Y-169236759D01*
X18809667Y-171498664D02*
X16476334Y-171498664D01*
X17143001Y-171498664D02*
X16809667Y-171617711D01*
X16809667Y-171617711D02*
X16643001Y-171736759D01*
X16643001Y-171736759D02*
X16476334Y-171974854D01*
X16476334Y-171974854D02*
X16476334Y-172212949D01*
X16476334Y-172808187D02*
X18809667Y-173403425D01*
X16476334Y-173998664D02*
X18809667Y-173403425D01*
X18809667Y-173403425D02*
X19643001Y-173165330D01*
X19643001Y-173165330D02*
X19809667Y-173046283D01*
X19809667Y-173046283D02*
X19976334Y-172808187D01*
X15309667Y-177331997D02*
X15309667Y-177808188D01*
X15309667Y-177808188D02*
X15476334Y-178046283D01*
X15476334Y-178046283D02*
X15809667Y-178284378D01*
X15809667Y-178284378D02*
X16476334Y-178403426D01*
X16476334Y-178403426D02*
X17643001Y-178403426D01*
X17643001Y-178403426D02*
X18309667Y-178284378D01*
X18309667Y-178284378D02*
X18643001Y-178046283D01*
X18643001Y-178046283D02*
X18809667Y-177808188D01*
X18809667Y-177808188D02*
X18809667Y-177331997D01*
X18809667Y-177331997D02*
X18643001Y-177093902D01*
X18643001Y-177093902D02*
X18309667Y-176855807D01*
X18309667Y-176855807D02*
X17643001Y-176736759D01*
X17643001Y-176736759D02*
X16476334Y-176736759D01*
X16476334Y-176736759D02*
X15809667Y-176855807D01*
X15809667Y-176855807D02*
X15476334Y-177093902D01*
X15476334Y-177093902D02*
X15309667Y-177331997D01*
X16476334Y-179474855D02*
X18809667Y-179474855D01*
X16809667Y-179474855D02*
X16643001Y-179593902D01*
X16643001Y-179593902D02*
X16476334Y-179831997D01*
X16476334Y-179831997D02*
X16476334Y-180189140D01*
X16476334Y-180189140D02*
X16643001Y-180427236D01*
X16643001Y-180427236D02*
X16976334Y-180546283D01*
X16976334Y-180546283D02*
X18809667Y-180546283D01*
X18809667Y-182093902D02*
X18643001Y-181855807D01*
X18643001Y-181855807D02*
X18309667Y-181736760D01*
X18309667Y-181736760D02*
X15309667Y-181736760D01*
X16476334Y-182808188D02*
X18809667Y-183403426D01*
X16476334Y-183998665D02*
X18809667Y-183403426D01*
X18809667Y-183403426D02*
X19643001Y-183165331D01*
X19643001Y-183165331D02*
X19809667Y-183046284D01*
X19809667Y-183046284D02*
X19976334Y-182808188D01*
D10*
X17166666Y-138601380D02*
X17166666Y-137887095D01*
X17166666Y-137887095D02*
X17119047Y-137744238D01*
X17119047Y-137744238D02*
X17023809Y-137649000D01*
X17023809Y-137649000D02*
X16880952Y-137601380D01*
X16880952Y-137601380D02*
X16785714Y-137601380D01*
X17595238Y-138506142D02*
X17642857Y-138553761D01*
X17642857Y-138553761D02*
X17738095Y-138601380D01*
X17738095Y-138601380D02*
X17976190Y-138601380D01*
X17976190Y-138601380D02*
X18071428Y-138553761D01*
X18071428Y-138553761D02*
X18119047Y-138506142D01*
X18119047Y-138506142D02*
X18166666Y-138410904D01*
X18166666Y-138410904D02*
X18166666Y-138315666D01*
X18166666Y-138315666D02*
X18119047Y-138172809D01*
X18119047Y-138172809D02*
X17547619Y-137601380D01*
X17547619Y-137601380D02*
X18166666Y-137601380D01*
X26000000Y-187018000D02*
X9000000Y-187018000D01*
X9000000Y-187018000D02*
X9000000Y-201304000D01*
X9000000Y-201304000D02*
X26000000Y-201304000D01*
X26000000Y-201304000D02*
X26000000Y-187018000D01*
D12*
X8460000Y-198120000D02*
X26460000Y-198120000D01*
X26460000Y-198120000D02*
X26460000Y-133120000D01*
X26460000Y-133120000D02*
X8460000Y-133120000D01*
X8460000Y-133120000D02*
X8460000Y-198120000D01*
D10*
X9000000Y-144222000D02*
X26000000Y-144222000D01*
X26000000Y-144222000D02*
X26000000Y-129936000D01*
X26000000Y-129936000D02*
X9000000Y-129936000D01*
X9000000Y-129936000D02*
X9000000Y-144222000D01*
%LPC*%
D13*
X4000000Y-124000000D03*
X31000000Y-206000000D03*
D14*
X27553000Y-133274999D03*
X27553000Y-130775001D03*
X13999878Y-128946900D03*
X16500000Y-128946900D03*
X19000122Y-128946900D03*
D15*
X14610000Y-204168800D03*
X20390000Y-204168800D03*
D16*
X13179998Y-207848800D03*
X21820002Y-207848800D03*
D17*
X13179998Y-203668801D03*
X21820002Y-203668801D03*
D14*
X27553000Y-141999998D03*
X27553000Y-139500000D03*
D13*
X4066400Y-206000000D03*
X31000000Y-124000000D03*
D18*
X23800000Y-172950000D03*
D14*
X6828500Y-141725001D03*
X6828500Y-144224999D03*
X8446900Y-135500122D03*
X8446900Y-133000000D03*
X8446900Y-130499878D03*
D18*
X12800000Y-153400000D03*
D19*
X20040000Y-189620000D03*
X17500000Y-197240000D03*
X14960000Y-189620000D03*
X14960000Y-141620000D03*
X17500000Y-134000000D03*
X20040000Y-141620000D03*
%LPD*%
M02*
