%TF.GenerationSoftware,KiCad,Pcbnew,7.0.2*%
%TF.CreationDate,2024-01-31T20:38:46-08:00*%
%TF.ProjectId,Lightsaber,4c696768-7473-4616-9265-722e6b696361,rev?*%
%TF.SameCoordinates,Original*%
%TF.FileFunction,Drillmap*%
%TF.FilePolarity,Positive*%
%FSLAX45Y45*%
G04 Gerber Fmt 4.5, Leading zero omitted, Abs format (unit mm)*
G04 Created by KiCad (PCBNEW 7.0.2) date 2024-01-31 20:38:46*
%MOMM*%
%LPD*%
G01*
G04 APERTURE LIST*
%ADD10C,0.150000*%
%ADD11C,0.200000*%
%ADD12C,0.066040*%
%ADD13C,0.320000*%
G04 APERTURE END LIST*
D10*
X0Y-12000000D02*
X3500000Y-12000000D01*
X3500000Y-21000000D01*
X0Y-21000000D01*
X0Y-12000000D01*
D11*
D12*
X1427980Y-20383860D02*
X1494020Y-20449900D01*
X1494020Y-20383860D02*
X1427980Y-20449900D01*
X2005980Y-20383860D02*
X2072020Y-20449900D01*
X2072020Y-20383860D02*
X2005980Y-20449900D01*
D13*
X560000Y-12400000D02*
G75*
G03*
X560000Y-12400000I-160000J0D01*
G01*
X566640Y-20600000D02*
G75*
G03*
X566640Y-20600000I-160000J0D01*
G01*
X3260000Y-12400000D02*
G75*
G03*
X3260000Y-12400000I-160000J0D01*
G01*
X3260000Y-20600000D02*
G75*
G03*
X3260000Y-20600000I-160000J0D01*
G01*
D11*
X240119Y-21320024D02*
X240119Y-21120024D01*
X240119Y-21120024D02*
X287738Y-21120024D01*
X287738Y-21120024D02*
X316310Y-21129548D01*
X316310Y-21129548D02*
X335357Y-21148595D01*
X335357Y-21148595D02*
X344881Y-21167643D01*
X344881Y-21167643D02*
X354405Y-21205738D01*
X354405Y-21205738D02*
X354405Y-21234310D01*
X354405Y-21234310D02*
X344881Y-21272405D01*
X344881Y-21272405D02*
X335357Y-21291452D01*
X335357Y-21291452D02*
X316310Y-21310500D01*
X316310Y-21310500D02*
X287738Y-21320024D01*
X287738Y-21320024D02*
X240119Y-21320024D01*
X440119Y-21320024D02*
X440119Y-21186690D01*
X440119Y-21224786D02*
X449643Y-21205738D01*
X449643Y-21205738D02*
X459167Y-21196214D01*
X459167Y-21196214D02*
X478214Y-21186690D01*
X478214Y-21186690D02*
X497262Y-21186690D01*
X563929Y-21320024D02*
X563929Y-21186690D01*
X563929Y-21120024D02*
X554405Y-21129548D01*
X554405Y-21129548D02*
X563929Y-21139071D01*
X563929Y-21139071D02*
X573452Y-21129548D01*
X573452Y-21129548D02*
X563929Y-21120024D01*
X563929Y-21120024D02*
X563929Y-21139071D01*
X687738Y-21320024D02*
X668690Y-21310500D01*
X668690Y-21310500D02*
X659167Y-21291452D01*
X659167Y-21291452D02*
X659167Y-21120024D01*
X792500Y-21320024D02*
X773452Y-21310500D01*
X773452Y-21310500D02*
X763928Y-21291452D01*
X763928Y-21291452D02*
X763928Y-21120024D01*
X1021071Y-21320024D02*
X1021071Y-21120024D01*
X1021071Y-21120024D02*
X1087738Y-21262881D01*
X1087738Y-21262881D02*
X1154405Y-21120024D01*
X1154405Y-21120024D02*
X1154405Y-21320024D01*
X1335357Y-21320024D02*
X1335357Y-21215262D01*
X1335357Y-21215262D02*
X1325833Y-21196214D01*
X1325833Y-21196214D02*
X1306786Y-21186690D01*
X1306786Y-21186690D02*
X1268690Y-21186690D01*
X1268690Y-21186690D02*
X1249643Y-21196214D01*
X1335357Y-21310500D02*
X1316310Y-21320024D01*
X1316310Y-21320024D02*
X1268690Y-21320024D01*
X1268690Y-21320024D02*
X1249643Y-21310500D01*
X1249643Y-21310500D02*
X1240119Y-21291452D01*
X1240119Y-21291452D02*
X1240119Y-21272405D01*
X1240119Y-21272405D02*
X1249643Y-21253357D01*
X1249643Y-21253357D02*
X1268690Y-21243833D01*
X1268690Y-21243833D02*
X1316310Y-21243833D01*
X1316310Y-21243833D02*
X1335357Y-21234310D01*
X1430595Y-21186690D02*
X1430595Y-21386690D01*
X1430595Y-21196214D02*
X1449643Y-21186690D01*
X1449643Y-21186690D02*
X1487738Y-21186690D01*
X1487738Y-21186690D02*
X1506786Y-21196214D01*
X1506786Y-21196214D02*
X1516309Y-21205738D01*
X1516309Y-21205738D02*
X1525833Y-21224786D01*
X1525833Y-21224786D02*
X1525833Y-21281929D01*
X1525833Y-21281929D02*
X1516309Y-21300976D01*
X1516309Y-21300976D02*
X1506786Y-21310500D01*
X1506786Y-21310500D02*
X1487738Y-21320024D01*
X1487738Y-21320024D02*
X1449643Y-21320024D01*
X1449643Y-21320024D02*
X1430595Y-21310500D01*
X1611548Y-21300976D02*
X1621071Y-21310500D01*
X1621071Y-21310500D02*
X1611548Y-21320024D01*
X1611548Y-21320024D02*
X1602024Y-21310500D01*
X1602024Y-21310500D02*
X1611548Y-21300976D01*
X1611548Y-21300976D02*
X1611548Y-21320024D01*
X1611548Y-21196214D02*
X1621071Y-21205738D01*
X1621071Y-21205738D02*
X1611548Y-21215262D01*
X1611548Y-21215262D02*
X1602024Y-21205738D01*
X1602024Y-21205738D02*
X1611548Y-21196214D01*
X1611548Y-21196214D02*
X1611548Y-21215262D01*
D12*
X-73540Y-21614480D02*
X-7500Y-21680520D01*
X-7500Y-21614480D02*
X-73540Y-21680520D01*
D11*
X278214Y-21540024D02*
X297262Y-21540024D01*
X297262Y-21540024D02*
X316310Y-21549548D01*
X316310Y-21549548D02*
X325833Y-21559071D01*
X325833Y-21559071D02*
X335357Y-21578119D01*
X335357Y-21578119D02*
X344881Y-21616214D01*
X344881Y-21616214D02*
X344881Y-21663833D01*
X344881Y-21663833D02*
X335357Y-21701929D01*
X335357Y-21701929D02*
X325833Y-21720976D01*
X325833Y-21720976D02*
X316310Y-21730500D01*
X316310Y-21730500D02*
X297262Y-21740024D01*
X297262Y-21740024D02*
X278214Y-21740024D01*
X278214Y-21740024D02*
X259167Y-21730500D01*
X259167Y-21730500D02*
X249643Y-21720976D01*
X249643Y-21720976D02*
X240119Y-21701929D01*
X240119Y-21701929D02*
X230595Y-21663833D01*
X230595Y-21663833D02*
X230595Y-21616214D01*
X230595Y-21616214D02*
X240119Y-21578119D01*
X240119Y-21578119D02*
X249643Y-21559071D01*
X249643Y-21559071D02*
X259167Y-21549548D01*
X259167Y-21549548D02*
X278214Y-21540024D01*
X430595Y-21720976D02*
X440119Y-21730500D01*
X440119Y-21730500D02*
X430595Y-21740024D01*
X430595Y-21740024D02*
X421071Y-21730500D01*
X421071Y-21730500D02*
X430595Y-21720976D01*
X430595Y-21720976D02*
X430595Y-21740024D01*
X611548Y-21540024D02*
X573452Y-21540024D01*
X573452Y-21540024D02*
X554405Y-21549548D01*
X554405Y-21549548D02*
X544881Y-21559071D01*
X544881Y-21559071D02*
X525833Y-21587643D01*
X525833Y-21587643D02*
X516309Y-21625738D01*
X516309Y-21625738D02*
X516309Y-21701929D01*
X516309Y-21701929D02*
X525833Y-21720976D01*
X525833Y-21720976D02*
X535357Y-21730500D01*
X535357Y-21730500D02*
X554405Y-21740024D01*
X554405Y-21740024D02*
X592500Y-21740024D01*
X592500Y-21740024D02*
X611548Y-21730500D01*
X611548Y-21730500D02*
X621071Y-21720976D01*
X621071Y-21720976D02*
X630595Y-21701929D01*
X630595Y-21701929D02*
X630595Y-21654310D01*
X630595Y-21654310D02*
X621071Y-21635262D01*
X621071Y-21635262D02*
X611548Y-21625738D01*
X611548Y-21625738D02*
X592500Y-21616214D01*
X592500Y-21616214D02*
X554405Y-21616214D01*
X554405Y-21616214D02*
X535357Y-21625738D01*
X535357Y-21625738D02*
X525833Y-21635262D01*
X525833Y-21635262D02*
X516309Y-21654310D01*
X802024Y-21540024D02*
X763928Y-21540024D01*
X763928Y-21540024D02*
X744881Y-21549548D01*
X744881Y-21549548D02*
X735357Y-21559071D01*
X735357Y-21559071D02*
X716309Y-21587643D01*
X716309Y-21587643D02*
X706786Y-21625738D01*
X706786Y-21625738D02*
X706786Y-21701929D01*
X706786Y-21701929D02*
X716309Y-21720976D01*
X716309Y-21720976D02*
X725833Y-21730500D01*
X725833Y-21730500D02*
X744881Y-21740024D01*
X744881Y-21740024D02*
X782976Y-21740024D01*
X782976Y-21740024D02*
X802024Y-21730500D01*
X802024Y-21730500D02*
X811548Y-21720976D01*
X811548Y-21720976D02*
X821071Y-21701929D01*
X821071Y-21701929D02*
X821071Y-21654310D01*
X821071Y-21654310D02*
X811548Y-21635262D01*
X811548Y-21635262D02*
X802024Y-21625738D01*
X802024Y-21625738D02*
X782976Y-21616214D01*
X782976Y-21616214D02*
X744881Y-21616214D01*
X744881Y-21616214D02*
X725833Y-21625738D01*
X725833Y-21625738D02*
X716309Y-21635262D01*
X716309Y-21635262D02*
X706786Y-21654310D01*
X944881Y-21540024D02*
X963929Y-21540024D01*
X963929Y-21540024D02*
X982976Y-21549548D01*
X982976Y-21549548D02*
X992500Y-21559071D01*
X992500Y-21559071D02*
X1002024Y-21578119D01*
X1002024Y-21578119D02*
X1011548Y-21616214D01*
X1011548Y-21616214D02*
X1011548Y-21663833D01*
X1011548Y-21663833D02*
X1002024Y-21701929D01*
X1002024Y-21701929D02*
X992500Y-21720976D01*
X992500Y-21720976D02*
X982976Y-21730500D01*
X982976Y-21730500D02*
X963929Y-21740024D01*
X963929Y-21740024D02*
X944881Y-21740024D01*
X944881Y-21740024D02*
X925833Y-21730500D01*
X925833Y-21730500D02*
X916309Y-21720976D01*
X916309Y-21720976D02*
X906786Y-21701929D01*
X906786Y-21701929D02*
X897262Y-21663833D01*
X897262Y-21663833D02*
X897262Y-21616214D01*
X897262Y-21616214D02*
X906786Y-21578119D01*
X906786Y-21578119D02*
X916309Y-21559071D01*
X916309Y-21559071D02*
X925833Y-21549548D01*
X925833Y-21549548D02*
X944881Y-21540024D01*
X1097262Y-21740024D02*
X1097262Y-21606690D01*
X1097262Y-21625738D02*
X1106786Y-21616214D01*
X1106786Y-21616214D02*
X1125833Y-21606690D01*
X1125833Y-21606690D02*
X1154405Y-21606690D01*
X1154405Y-21606690D02*
X1173452Y-21616214D01*
X1173452Y-21616214D02*
X1182976Y-21635262D01*
X1182976Y-21635262D02*
X1182976Y-21740024D01*
X1182976Y-21635262D02*
X1192500Y-21616214D01*
X1192500Y-21616214D02*
X1211548Y-21606690D01*
X1211548Y-21606690D02*
X1240119Y-21606690D01*
X1240119Y-21606690D02*
X1259167Y-21616214D01*
X1259167Y-21616214D02*
X1268691Y-21635262D01*
X1268691Y-21635262D02*
X1268691Y-21740024D01*
X1363929Y-21740024D02*
X1363929Y-21606690D01*
X1363929Y-21625738D02*
X1373452Y-21616214D01*
X1373452Y-21616214D02*
X1392500Y-21606690D01*
X1392500Y-21606690D02*
X1421071Y-21606690D01*
X1421071Y-21606690D02*
X1440119Y-21616214D01*
X1440119Y-21616214D02*
X1449643Y-21635262D01*
X1449643Y-21635262D02*
X1449643Y-21740024D01*
X1449643Y-21635262D02*
X1459167Y-21616214D01*
X1459167Y-21616214D02*
X1478214Y-21606690D01*
X1478214Y-21606690D02*
X1506786Y-21606690D01*
X1506786Y-21606690D02*
X1525833Y-21616214D01*
X1525833Y-21616214D02*
X1535357Y-21635262D01*
X1535357Y-21635262D02*
X1535357Y-21740024D01*
X1925833Y-21530500D02*
X1754405Y-21787643D01*
X2182976Y-21540024D02*
X2202024Y-21540024D01*
X2202024Y-21540024D02*
X2221072Y-21549548D01*
X2221072Y-21549548D02*
X2230595Y-21559071D01*
X2230595Y-21559071D02*
X2240119Y-21578119D01*
X2240119Y-21578119D02*
X2249643Y-21616214D01*
X2249643Y-21616214D02*
X2249643Y-21663833D01*
X2249643Y-21663833D02*
X2240119Y-21701929D01*
X2240119Y-21701929D02*
X2230595Y-21720976D01*
X2230595Y-21720976D02*
X2221072Y-21730500D01*
X2221072Y-21730500D02*
X2202024Y-21740024D01*
X2202024Y-21740024D02*
X2182976Y-21740024D01*
X2182976Y-21740024D02*
X2163929Y-21730500D01*
X2163929Y-21730500D02*
X2154405Y-21720976D01*
X2154405Y-21720976D02*
X2144881Y-21701929D01*
X2144881Y-21701929D02*
X2135357Y-21663833D01*
X2135357Y-21663833D02*
X2135357Y-21616214D01*
X2135357Y-21616214D02*
X2144881Y-21578119D01*
X2144881Y-21578119D02*
X2154405Y-21559071D01*
X2154405Y-21559071D02*
X2163929Y-21549548D01*
X2163929Y-21549548D02*
X2182976Y-21540024D01*
X2335357Y-21720976D02*
X2344881Y-21730500D01*
X2344881Y-21730500D02*
X2335357Y-21740024D01*
X2335357Y-21740024D02*
X2325834Y-21730500D01*
X2325834Y-21730500D02*
X2335357Y-21720976D01*
X2335357Y-21720976D02*
X2335357Y-21740024D01*
X2468691Y-21540024D02*
X2487738Y-21540024D01*
X2487738Y-21540024D02*
X2506786Y-21549548D01*
X2506786Y-21549548D02*
X2516310Y-21559071D01*
X2516310Y-21559071D02*
X2525834Y-21578119D01*
X2525834Y-21578119D02*
X2535357Y-21616214D01*
X2535357Y-21616214D02*
X2535357Y-21663833D01*
X2535357Y-21663833D02*
X2525834Y-21701929D01*
X2525834Y-21701929D02*
X2516310Y-21720976D01*
X2516310Y-21720976D02*
X2506786Y-21730500D01*
X2506786Y-21730500D02*
X2487738Y-21740024D01*
X2487738Y-21740024D02*
X2468691Y-21740024D01*
X2468691Y-21740024D02*
X2449643Y-21730500D01*
X2449643Y-21730500D02*
X2440119Y-21720976D01*
X2440119Y-21720976D02*
X2430595Y-21701929D01*
X2430595Y-21701929D02*
X2421072Y-21663833D01*
X2421072Y-21663833D02*
X2421072Y-21616214D01*
X2421072Y-21616214D02*
X2430595Y-21578119D01*
X2430595Y-21578119D02*
X2440119Y-21559071D01*
X2440119Y-21559071D02*
X2449643Y-21549548D01*
X2449643Y-21549548D02*
X2468691Y-21540024D01*
X2611548Y-21559071D02*
X2621072Y-21549548D01*
X2621072Y-21549548D02*
X2640119Y-21540024D01*
X2640119Y-21540024D02*
X2687738Y-21540024D01*
X2687738Y-21540024D02*
X2706786Y-21549548D01*
X2706786Y-21549548D02*
X2716310Y-21559071D01*
X2716310Y-21559071D02*
X2725834Y-21578119D01*
X2725834Y-21578119D02*
X2725834Y-21597167D01*
X2725834Y-21597167D02*
X2716310Y-21625738D01*
X2716310Y-21625738D02*
X2602024Y-21740024D01*
X2602024Y-21740024D02*
X2725834Y-21740024D01*
X2897262Y-21540024D02*
X2859167Y-21540024D01*
X2859167Y-21540024D02*
X2840119Y-21549548D01*
X2840119Y-21549548D02*
X2830595Y-21559071D01*
X2830595Y-21559071D02*
X2811548Y-21587643D01*
X2811548Y-21587643D02*
X2802024Y-21625738D01*
X2802024Y-21625738D02*
X2802024Y-21701929D01*
X2802024Y-21701929D02*
X2811548Y-21720976D01*
X2811548Y-21720976D02*
X2821072Y-21730500D01*
X2821072Y-21730500D02*
X2840119Y-21740024D01*
X2840119Y-21740024D02*
X2878214Y-21740024D01*
X2878214Y-21740024D02*
X2897262Y-21730500D01*
X2897262Y-21730500D02*
X2906786Y-21720976D01*
X2906786Y-21720976D02*
X2916310Y-21701929D01*
X2916310Y-21701929D02*
X2916310Y-21654310D01*
X2916310Y-21654310D02*
X2906786Y-21635262D01*
X2906786Y-21635262D02*
X2897262Y-21625738D01*
X2897262Y-21625738D02*
X2878214Y-21616214D01*
X2878214Y-21616214D02*
X2840119Y-21616214D01*
X2840119Y-21616214D02*
X2821072Y-21625738D01*
X2821072Y-21625738D02*
X2811548Y-21635262D01*
X2811548Y-21635262D02*
X2802024Y-21654310D01*
X3040119Y-21540024D02*
X3059167Y-21540024D01*
X3059167Y-21540024D02*
X3078214Y-21549548D01*
X3078214Y-21549548D02*
X3087738Y-21559071D01*
X3087738Y-21559071D02*
X3097262Y-21578119D01*
X3097262Y-21578119D02*
X3106786Y-21616214D01*
X3106786Y-21616214D02*
X3106786Y-21663833D01*
X3106786Y-21663833D02*
X3097262Y-21701929D01*
X3097262Y-21701929D02*
X3087738Y-21720976D01*
X3087738Y-21720976D02*
X3078214Y-21730500D01*
X3078214Y-21730500D02*
X3059167Y-21740024D01*
X3059167Y-21740024D02*
X3040119Y-21740024D01*
X3040119Y-21740024D02*
X3021072Y-21730500D01*
X3021072Y-21730500D02*
X3011548Y-21720976D01*
X3011548Y-21720976D02*
X3002024Y-21701929D01*
X3002024Y-21701929D02*
X2992500Y-21663833D01*
X2992500Y-21663833D02*
X2992500Y-21616214D01*
X2992500Y-21616214D02*
X3002024Y-21578119D01*
X3002024Y-21578119D02*
X3011548Y-21559071D01*
X3011548Y-21559071D02*
X3021072Y-21549548D01*
X3021072Y-21549548D02*
X3040119Y-21540024D01*
X3182976Y-21540024D02*
X3182976Y-21578119D01*
X3259167Y-21540024D02*
X3259167Y-21578119D01*
X3554405Y-21816214D02*
X3544881Y-21806690D01*
X3544881Y-21806690D02*
X3525834Y-21778119D01*
X3525834Y-21778119D02*
X3516310Y-21759071D01*
X3516310Y-21759071D02*
X3506786Y-21730500D01*
X3506786Y-21730500D02*
X3497262Y-21682881D01*
X3497262Y-21682881D02*
X3497262Y-21644786D01*
X3497262Y-21644786D02*
X3506786Y-21597167D01*
X3506786Y-21597167D02*
X3516310Y-21568595D01*
X3516310Y-21568595D02*
X3525834Y-21549548D01*
X3525834Y-21549548D02*
X3544881Y-21520976D01*
X3544881Y-21520976D02*
X3554405Y-21511452D01*
X3621072Y-21559071D02*
X3630595Y-21549548D01*
X3630595Y-21549548D02*
X3649643Y-21540024D01*
X3649643Y-21540024D02*
X3697262Y-21540024D01*
X3697262Y-21540024D02*
X3716310Y-21549548D01*
X3716310Y-21549548D02*
X3725834Y-21559071D01*
X3725834Y-21559071D02*
X3735357Y-21578119D01*
X3735357Y-21578119D02*
X3735357Y-21597167D01*
X3735357Y-21597167D02*
X3725834Y-21625738D01*
X3725834Y-21625738D02*
X3611548Y-21740024D01*
X3611548Y-21740024D02*
X3735357Y-21740024D01*
X3973453Y-21740024D02*
X3973453Y-21540024D01*
X4059167Y-21740024D02*
X4059167Y-21635262D01*
X4059167Y-21635262D02*
X4049643Y-21616214D01*
X4049643Y-21616214D02*
X4030596Y-21606690D01*
X4030596Y-21606690D02*
X4002024Y-21606690D01*
X4002024Y-21606690D02*
X3982976Y-21616214D01*
X3982976Y-21616214D02*
X3973453Y-21625738D01*
X4182976Y-21740024D02*
X4163929Y-21730500D01*
X4163929Y-21730500D02*
X4154405Y-21720976D01*
X4154405Y-21720976D02*
X4144881Y-21701929D01*
X4144881Y-21701929D02*
X4144881Y-21644786D01*
X4144881Y-21644786D02*
X4154405Y-21625738D01*
X4154405Y-21625738D02*
X4163929Y-21616214D01*
X4163929Y-21616214D02*
X4182976Y-21606690D01*
X4182976Y-21606690D02*
X4211548Y-21606690D01*
X4211548Y-21606690D02*
X4230596Y-21616214D01*
X4230596Y-21616214D02*
X4240119Y-21625738D01*
X4240119Y-21625738D02*
X4249643Y-21644786D01*
X4249643Y-21644786D02*
X4249643Y-21701929D01*
X4249643Y-21701929D02*
X4240119Y-21720976D01*
X4240119Y-21720976D02*
X4230596Y-21730500D01*
X4230596Y-21730500D02*
X4211548Y-21740024D01*
X4211548Y-21740024D02*
X4182976Y-21740024D01*
X4363929Y-21740024D02*
X4344881Y-21730500D01*
X4344881Y-21730500D02*
X4335358Y-21711452D01*
X4335358Y-21711452D02*
X4335358Y-21540024D01*
X4516310Y-21730500D02*
X4497262Y-21740024D01*
X4497262Y-21740024D02*
X4459167Y-21740024D01*
X4459167Y-21740024D02*
X4440119Y-21730500D01*
X4440119Y-21730500D02*
X4430596Y-21711452D01*
X4430596Y-21711452D02*
X4430596Y-21635262D01*
X4430596Y-21635262D02*
X4440119Y-21616214D01*
X4440119Y-21616214D02*
X4459167Y-21606690D01*
X4459167Y-21606690D02*
X4497262Y-21606690D01*
X4497262Y-21606690D02*
X4516310Y-21616214D01*
X4516310Y-21616214D02*
X4525834Y-21635262D01*
X4525834Y-21635262D02*
X4525834Y-21654310D01*
X4525834Y-21654310D02*
X4430596Y-21673357D01*
X4602024Y-21730500D02*
X4621072Y-21740024D01*
X4621072Y-21740024D02*
X4659167Y-21740024D01*
X4659167Y-21740024D02*
X4678215Y-21730500D01*
X4678215Y-21730500D02*
X4687739Y-21711452D01*
X4687739Y-21711452D02*
X4687739Y-21701929D01*
X4687739Y-21701929D02*
X4678215Y-21682881D01*
X4678215Y-21682881D02*
X4659167Y-21673357D01*
X4659167Y-21673357D02*
X4630596Y-21673357D01*
X4630596Y-21673357D02*
X4611548Y-21663833D01*
X4611548Y-21663833D02*
X4602024Y-21644786D01*
X4602024Y-21644786D02*
X4602024Y-21635262D01*
X4602024Y-21635262D02*
X4611548Y-21616214D01*
X4611548Y-21616214D02*
X4630596Y-21606690D01*
X4630596Y-21606690D02*
X4659167Y-21606690D01*
X4659167Y-21606690D02*
X4678215Y-21616214D01*
X4754405Y-21816214D02*
X4763929Y-21806690D01*
X4763929Y-21806690D02*
X4782977Y-21778119D01*
X4782977Y-21778119D02*
X4792500Y-21759071D01*
X4792500Y-21759071D02*
X4802024Y-21730500D01*
X4802024Y-21730500D02*
X4811548Y-21682881D01*
X4811548Y-21682881D02*
X4811548Y-21644786D01*
X4811548Y-21644786D02*
X4802024Y-21597167D01*
X4802024Y-21597167D02*
X4792500Y-21568595D01*
X4792500Y-21568595D02*
X4782977Y-21549548D01*
X4782977Y-21549548D02*
X4763929Y-21520976D01*
X4763929Y-21520976D02*
X4754405Y-21511452D01*
X5116310Y-21816214D02*
X5106786Y-21806690D01*
X5106786Y-21806690D02*
X5087739Y-21778119D01*
X5087739Y-21778119D02*
X5078215Y-21759071D01*
X5078215Y-21759071D02*
X5068691Y-21730500D01*
X5068691Y-21730500D02*
X5059167Y-21682881D01*
X5059167Y-21682881D02*
X5059167Y-21644786D01*
X5059167Y-21644786D02*
X5068691Y-21597167D01*
X5068691Y-21597167D02*
X5078215Y-21568595D01*
X5078215Y-21568595D02*
X5087739Y-21549548D01*
X5087739Y-21549548D02*
X5106786Y-21520976D01*
X5106786Y-21520976D02*
X5116310Y-21511452D01*
X5192500Y-21606690D02*
X5192500Y-21740024D01*
X5192500Y-21625738D02*
X5202024Y-21616214D01*
X5202024Y-21616214D02*
X5221072Y-21606690D01*
X5221072Y-21606690D02*
X5249643Y-21606690D01*
X5249643Y-21606690D02*
X5268691Y-21616214D01*
X5268691Y-21616214D02*
X5278215Y-21635262D01*
X5278215Y-21635262D02*
X5278215Y-21740024D01*
X5402024Y-21740024D02*
X5382977Y-21730500D01*
X5382977Y-21730500D02*
X5373453Y-21720976D01*
X5373453Y-21720976D02*
X5363929Y-21701929D01*
X5363929Y-21701929D02*
X5363929Y-21644786D01*
X5363929Y-21644786D02*
X5373453Y-21625738D01*
X5373453Y-21625738D02*
X5382977Y-21616214D01*
X5382977Y-21616214D02*
X5402024Y-21606690D01*
X5402024Y-21606690D02*
X5430596Y-21606690D01*
X5430596Y-21606690D02*
X5449643Y-21616214D01*
X5449643Y-21616214D02*
X5459167Y-21625738D01*
X5459167Y-21625738D02*
X5468691Y-21644786D01*
X5468691Y-21644786D02*
X5468691Y-21701929D01*
X5468691Y-21701929D02*
X5459167Y-21720976D01*
X5459167Y-21720976D02*
X5449643Y-21730500D01*
X5449643Y-21730500D02*
X5430596Y-21740024D01*
X5430596Y-21740024D02*
X5402024Y-21740024D01*
X5525834Y-21606690D02*
X5602024Y-21606690D01*
X5554405Y-21540024D02*
X5554405Y-21711452D01*
X5554405Y-21711452D02*
X5563929Y-21730500D01*
X5563929Y-21730500D02*
X5582977Y-21740024D01*
X5582977Y-21740024D02*
X5602024Y-21740024D01*
X5821072Y-21606690D02*
X5821072Y-21806690D01*
X5821072Y-21616214D02*
X5840119Y-21606690D01*
X5840119Y-21606690D02*
X5878215Y-21606690D01*
X5878215Y-21606690D02*
X5897262Y-21616214D01*
X5897262Y-21616214D02*
X5906786Y-21625738D01*
X5906786Y-21625738D02*
X5916310Y-21644786D01*
X5916310Y-21644786D02*
X5916310Y-21701929D01*
X5916310Y-21701929D02*
X5906786Y-21720976D01*
X5906786Y-21720976D02*
X5897262Y-21730500D01*
X5897262Y-21730500D02*
X5878215Y-21740024D01*
X5878215Y-21740024D02*
X5840119Y-21740024D01*
X5840119Y-21740024D02*
X5821072Y-21730500D01*
X6030596Y-21740024D02*
X6011548Y-21730500D01*
X6011548Y-21730500D02*
X6002024Y-21711452D01*
X6002024Y-21711452D02*
X6002024Y-21540024D01*
X6192500Y-21740024D02*
X6192500Y-21635262D01*
X6192500Y-21635262D02*
X6182977Y-21616214D01*
X6182977Y-21616214D02*
X6163929Y-21606690D01*
X6163929Y-21606690D02*
X6125834Y-21606690D01*
X6125834Y-21606690D02*
X6106786Y-21616214D01*
X6192500Y-21730500D02*
X6173453Y-21740024D01*
X6173453Y-21740024D02*
X6125834Y-21740024D01*
X6125834Y-21740024D02*
X6106786Y-21730500D01*
X6106786Y-21730500D02*
X6097262Y-21711452D01*
X6097262Y-21711452D02*
X6097262Y-21692405D01*
X6097262Y-21692405D02*
X6106786Y-21673357D01*
X6106786Y-21673357D02*
X6125834Y-21663833D01*
X6125834Y-21663833D02*
X6173453Y-21663833D01*
X6173453Y-21663833D02*
X6192500Y-21654310D01*
X6259167Y-21606690D02*
X6335358Y-21606690D01*
X6287739Y-21540024D02*
X6287739Y-21711452D01*
X6287739Y-21711452D02*
X6297262Y-21730500D01*
X6297262Y-21730500D02*
X6316310Y-21740024D01*
X6316310Y-21740024D02*
X6335358Y-21740024D01*
X6478215Y-21730500D02*
X6459167Y-21740024D01*
X6459167Y-21740024D02*
X6421072Y-21740024D01*
X6421072Y-21740024D02*
X6402024Y-21730500D01*
X6402024Y-21730500D02*
X6392500Y-21711452D01*
X6392500Y-21711452D02*
X6392500Y-21635262D01*
X6392500Y-21635262D02*
X6402024Y-21616214D01*
X6402024Y-21616214D02*
X6421072Y-21606690D01*
X6421072Y-21606690D02*
X6459167Y-21606690D01*
X6459167Y-21606690D02*
X6478215Y-21616214D01*
X6478215Y-21616214D02*
X6487739Y-21635262D01*
X6487739Y-21635262D02*
X6487739Y-21654310D01*
X6487739Y-21654310D02*
X6392500Y-21673357D01*
X6659167Y-21740024D02*
X6659167Y-21540024D01*
X6659167Y-21730500D02*
X6640120Y-21740024D01*
X6640120Y-21740024D02*
X6602024Y-21740024D01*
X6602024Y-21740024D02*
X6582977Y-21730500D01*
X6582977Y-21730500D02*
X6573453Y-21720976D01*
X6573453Y-21720976D02*
X6563929Y-21701929D01*
X6563929Y-21701929D02*
X6563929Y-21644786D01*
X6563929Y-21644786D02*
X6573453Y-21625738D01*
X6573453Y-21625738D02*
X6582977Y-21616214D01*
X6582977Y-21616214D02*
X6602024Y-21606690D01*
X6602024Y-21606690D02*
X6640120Y-21606690D01*
X6640120Y-21606690D02*
X6659167Y-21616214D01*
X6735358Y-21816214D02*
X6744881Y-21806690D01*
X6744881Y-21806690D02*
X6763929Y-21778119D01*
X6763929Y-21778119D02*
X6773453Y-21759071D01*
X6773453Y-21759071D02*
X6782977Y-21730500D01*
X6782977Y-21730500D02*
X6792500Y-21682881D01*
X6792500Y-21682881D02*
X6792500Y-21644786D01*
X6792500Y-21644786D02*
X6782977Y-21597167D01*
X6782977Y-21597167D02*
X6773453Y-21568595D01*
X6773453Y-21568595D02*
X6763929Y-21549548D01*
X6763929Y-21549548D02*
X6744881Y-21520976D01*
X6744881Y-21520976D02*
X6735358Y-21511452D01*
X-7500Y-21911500D02*
G75*
G03*
X-7500Y-21911500I-100000J0D01*
G01*
X221071Y-21804024D02*
X344881Y-21804024D01*
X344881Y-21804024D02*
X278214Y-21880214D01*
X278214Y-21880214D02*
X306786Y-21880214D01*
X306786Y-21880214D02*
X325833Y-21889738D01*
X325833Y-21889738D02*
X335357Y-21899262D01*
X335357Y-21899262D02*
X344881Y-21918310D01*
X344881Y-21918310D02*
X344881Y-21965929D01*
X344881Y-21965929D02*
X335357Y-21984976D01*
X335357Y-21984976D02*
X325833Y-21994500D01*
X325833Y-21994500D02*
X306786Y-22004024D01*
X306786Y-22004024D02*
X249643Y-22004024D01*
X249643Y-22004024D02*
X230595Y-21994500D01*
X230595Y-21994500D02*
X221071Y-21984976D01*
X430595Y-21984976D02*
X440119Y-21994500D01*
X440119Y-21994500D02*
X430595Y-22004024D01*
X430595Y-22004024D02*
X421071Y-21994500D01*
X421071Y-21994500D02*
X430595Y-21984976D01*
X430595Y-21984976D02*
X430595Y-22004024D01*
X516309Y-21823071D02*
X525833Y-21813548D01*
X525833Y-21813548D02*
X544881Y-21804024D01*
X544881Y-21804024D02*
X592500Y-21804024D01*
X592500Y-21804024D02*
X611548Y-21813548D01*
X611548Y-21813548D02*
X621071Y-21823071D01*
X621071Y-21823071D02*
X630595Y-21842119D01*
X630595Y-21842119D02*
X630595Y-21861167D01*
X630595Y-21861167D02*
X621071Y-21889738D01*
X621071Y-21889738D02*
X506786Y-22004024D01*
X506786Y-22004024D02*
X630595Y-22004024D01*
X754405Y-21804024D02*
X773452Y-21804024D01*
X773452Y-21804024D02*
X792500Y-21813548D01*
X792500Y-21813548D02*
X802024Y-21823071D01*
X802024Y-21823071D02*
X811548Y-21842119D01*
X811548Y-21842119D02*
X821071Y-21880214D01*
X821071Y-21880214D02*
X821071Y-21927833D01*
X821071Y-21927833D02*
X811548Y-21965929D01*
X811548Y-21965929D02*
X802024Y-21984976D01*
X802024Y-21984976D02*
X792500Y-21994500D01*
X792500Y-21994500D02*
X773452Y-22004024D01*
X773452Y-22004024D02*
X754405Y-22004024D01*
X754405Y-22004024D02*
X735357Y-21994500D01*
X735357Y-21994500D02*
X725833Y-21984976D01*
X725833Y-21984976D02*
X716309Y-21965929D01*
X716309Y-21965929D02*
X706786Y-21927833D01*
X706786Y-21927833D02*
X706786Y-21880214D01*
X706786Y-21880214D02*
X716309Y-21842119D01*
X716309Y-21842119D02*
X725833Y-21823071D01*
X725833Y-21823071D02*
X735357Y-21813548D01*
X735357Y-21813548D02*
X754405Y-21804024D01*
X944881Y-21804024D02*
X963929Y-21804024D01*
X963929Y-21804024D02*
X982976Y-21813548D01*
X982976Y-21813548D02*
X992500Y-21823071D01*
X992500Y-21823071D02*
X1002024Y-21842119D01*
X1002024Y-21842119D02*
X1011548Y-21880214D01*
X1011548Y-21880214D02*
X1011548Y-21927833D01*
X1011548Y-21927833D02*
X1002024Y-21965929D01*
X1002024Y-21965929D02*
X992500Y-21984976D01*
X992500Y-21984976D02*
X982976Y-21994500D01*
X982976Y-21994500D02*
X963929Y-22004024D01*
X963929Y-22004024D02*
X944881Y-22004024D01*
X944881Y-22004024D02*
X925833Y-21994500D01*
X925833Y-21994500D02*
X916309Y-21984976D01*
X916309Y-21984976D02*
X906786Y-21965929D01*
X906786Y-21965929D02*
X897262Y-21927833D01*
X897262Y-21927833D02*
X897262Y-21880214D01*
X897262Y-21880214D02*
X906786Y-21842119D01*
X906786Y-21842119D02*
X916309Y-21823071D01*
X916309Y-21823071D02*
X925833Y-21813548D01*
X925833Y-21813548D02*
X944881Y-21804024D01*
X1097262Y-22004024D02*
X1097262Y-21870690D01*
X1097262Y-21889738D02*
X1106786Y-21880214D01*
X1106786Y-21880214D02*
X1125833Y-21870690D01*
X1125833Y-21870690D02*
X1154405Y-21870690D01*
X1154405Y-21870690D02*
X1173452Y-21880214D01*
X1173452Y-21880214D02*
X1182976Y-21899262D01*
X1182976Y-21899262D02*
X1182976Y-22004024D01*
X1182976Y-21899262D02*
X1192500Y-21880214D01*
X1192500Y-21880214D02*
X1211548Y-21870690D01*
X1211548Y-21870690D02*
X1240119Y-21870690D01*
X1240119Y-21870690D02*
X1259167Y-21880214D01*
X1259167Y-21880214D02*
X1268691Y-21899262D01*
X1268691Y-21899262D02*
X1268691Y-22004024D01*
X1363929Y-22004024D02*
X1363929Y-21870690D01*
X1363929Y-21889738D02*
X1373452Y-21880214D01*
X1373452Y-21880214D02*
X1392500Y-21870690D01*
X1392500Y-21870690D02*
X1421071Y-21870690D01*
X1421071Y-21870690D02*
X1440119Y-21880214D01*
X1440119Y-21880214D02*
X1449643Y-21899262D01*
X1449643Y-21899262D02*
X1449643Y-22004024D01*
X1449643Y-21899262D02*
X1459167Y-21880214D01*
X1459167Y-21880214D02*
X1478214Y-21870690D01*
X1478214Y-21870690D02*
X1506786Y-21870690D01*
X1506786Y-21870690D02*
X1525833Y-21880214D01*
X1525833Y-21880214D02*
X1535357Y-21899262D01*
X1535357Y-21899262D02*
X1535357Y-22004024D01*
X1925833Y-21794500D02*
X1754405Y-22051643D01*
X2182976Y-21804024D02*
X2202024Y-21804024D01*
X2202024Y-21804024D02*
X2221072Y-21813548D01*
X2221072Y-21813548D02*
X2230595Y-21823071D01*
X2230595Y-21823071D02*
X2240119Y-21842119D01*
X2240119Y-21842119D02*
X2249643Y-21880214D01*
X2249643Y-21880214D02*
X2249643Y-21927833D01*
X2249643Y-21927833D02*
X2240119Y-21965929D01*
X2240119Y-21965929D02*
X2230595Y-21984976D01*
X2230595Y-21984976D02*
X2221072Y-21994500D01*
X2221072Y-21994500D02*
X2202024Y-22004024D01*
X2202024Y-22004024D02*
X2182976Y-22004024D01*
X2182976Y-22004024D02*
X2163929Y-21994500D01*
X2163929Y-21994500D02*
X2154405Y-21984976D01*
X2154405Y-21984976D02*
X2144881Y-21965929D01*
X2144881Y-21965929D02*
X2135357Y-21927833D01*
X2135357Y-21927833D02*
X2135357Y-21880214D01*
X2135357Y-21880214D02*
X2144881Y-21842119D01*
X2144881Y-21842119D02*
X2154405Y-21823071D01*
X2154405Y-21823071D02*
X2163929Y-21813548D01*
X2163929Y-21813548D02*
X2182976Y-21804024D01*
X2335357Y-21984976D02*
X2344881Y-21994500D01*
X2344881Y-21994500D02*
X2335357Y-22004024D01*
X2335357Y-22004024D02*
X2325834Y-21994500D01*
X2325834Y-21994500D02*
X2335357Y-21984976D01*
X2335357Y-21984976D02*
X2335357Y-22004024D01*
X2535357Y-22004024D02*
X2421072Y-22004024D01*
X2478214Y-22004024D02*
X2478214Y-21804024D01*
X2478214Y-21804024D02*
X2459167Y-21832595D01*
X2459167Y-21832595D02*
X2440119Y-21851643D01*
X2440119Y-21851643D02*
X2421072Y-21861167D01*
X2611548Y-21823071D02*
X2621072Y-21813548D01*
X2621072Y-21813548D02*
X2640119Y-21804024D01*
X2640119Y-21804024D02*
X2687738Y-21804024D01*
X2687738Y-21804024D02*
X2706786Y-21813548D01*
X2706786Y-21813548D02*
X2716310Y-21823071D01*
X2716310Y-21823071D02*
X2725834Y-21842119D01*
X2725834Y-21842119D02*
X2725834Y-21861167D01*
X2725834Y-21861167D02*
X2716310Y-21889738D01*
X2716310Y-21889738D02*
X2602024Y-22004024D01*
X2602024Y-22004024D02*
X2725834Y-22004024D01*
X2897262Y-21804024D02*
X2859167Y-21804024D01*
X2859167Y-21804024D02*
X2840119Y-21813548D01*
X2840119Y-21813548D02*
X2830595Y-21823071D01*
X2830595Y-21823071D02*
X2811548Y-21851643D01*
X2811548Y-21851643D02*
X2802024Y-21889738D01*
X2802024Y-21889738D02*
X2802024Y-21965929D01*
X2802024Y-21965929D02*
X2811548Y-21984976D01*
X2811548Y-21984976D02*
X2821072Y-21994500D01*
X2821072Y-21994500D02*
X2840119Y-22004024D01*
X2840119Y-22004024D02*
X2878214Y-22004024D01*
X2878214Y-22004024D02*
X2897262Y-21994500D01*
X2897262Y-21994500D02*
X2906786Y-21984976D01*
X2906786Y-21984976D02*
X2916310Y-21965929D01*
X2916310Y-21965929D02*
X2916310Y-21918310D01*
X2916310Y-21918310D02*
X2906786Y-21899262D01*
X2906786Y-21899262D02*
X2897262Y-21889738D01*
X2897262Y-21889738D02*
X2878214Y-21880214D01*
X2878214Y-21880214D02*
X2840119Y-21880214D01*
X2840119Y-21880214D02*
X2821072Y-21889738D01*
X2821072Y-21889738D02*
X2811548Y-21899262D01*
X2811548Y-21899262D02*
X2802024Y-21918310D01*
X3040119Y-21804024D02*
X3059167Y-21804024D01*
X3059167Y-21804024D02*
X3078214Y-21813548D01*
X3078214Y-21813548D02*
X3087738Y-21823071D01*
X3087738Y-21823071D02*
X3097262Y-21842119D01*
X3097262Y-21842119D02*
X3106786Y-21880214D01*
X3106786Y-21880214D02*
X3106786Y-21927833D01*
X3106786Y-21927833D02*
X3097262Y-21965929D01*
X3097262Y-21965929D02*
X3087738Y-21984976D01*
X3087738Y-21984976D02*
X3078214Y-21994500D01*
X3078214Y-21994500D02*
X3059167Y-22004024D01*
X3059167Y-22004024D02*
X3040119Y-22004024D01*
X3040119Y-22004024D02*
X3021072Y-21994500D01*
X3021072Y-21994500D02*
X3011548Y-21984976D01*
X3011548Y-21984976D02*
X3002024Y-21965929D01*
X3002024Y-21965929D02*
X2992500Y-21927833D01*
X2992500Y-21927833D02*
X2992500Y-21880214D01*
X2992500Y-21880214D02*
X3002024Y-21842119D01*
X3002024Y-21842119D02*
X3011548Y-21823071D01*
X3011548Y-21823071D02*
X3021072Y-21813548D01*
X3021072Y-21813548D02*
X3040119Y-21804024D01*
X3182976Y-21804024D02*
X3182976Y-21842119D01*
X3259167Y-21804024D02*
X3259167Y-21842119D01*
X3554405Y-22080214D02*
X3544881Y-22070690D01*
X3544881Y-22070690D02*
X3525834Y-22042119D01*
X3525834Y-22042119D02*
X3516310Y-22023071D01*
X3516310Y-22023071D02*
X3506786Y-21994500D01*
X3506786Y-21994500D02*
X3497262Y-21946881D01*
X3497262Y-21946881D02*
X3497262Y-21908786D01*
X3497262Y-21908786D02*
X3506786Y-21861167D01*
X3506786Y-21861167D02*
X3516310Y-21832595D01*
X3516310Y-21832595D02*
X3525834Y-21813548D01*
X3525834Y-21813548D02*
X3544881Y-21784976D01*
X3544881Y-21784976D02*
X3554405Y-21775452D01*
X3716310Y-21870690D02*
X3716310Y-22004024D01*
X3668691Y-21794500D02*
X3621072Y-21937357D01*
X3621072Y-21937357D02*
X3744881Y-21937357D01*
X3973453Y-22004024D02*
X3973453Y-21804024D01*
X4059167Y-22004024D02*
X4059167Y-21899262D01*
X4059167Y-21899262D02*
X4049643Y-21880214D01*
X4049643Y-21880214D02*
X4030596Y-21870690D01*
X4030596Y-21870690D02*
X4002024Y-21870690D01*
X4002024Y-21870690D02*
X3982976Y-21880214D01*
X3982976Y-21880214D02*
X3973453Y-21889738D01*
X4182976Y-22004024D02*
X4163929Y-21994500D01*
X4163929Y-21994500D02*
X4154405Y-21984976D01*
X4154405Y-21984976D02*
X4144881Y-21965929D01*
X4144881Y-21965929D02*
X4144881Y-21908786D01*
X4144881Y-21908786D02*
X4154405Y-21889738D01*
X4154405Y-21889738D02*
X4163929Y-21880214D01*
X4163929Y-21880214D02*
X4182976Y-21870690D01*
X4182976Y-21870690D02*
X4211548Y-21870690D01*
X4211548Y-21870690D02*
X4230596Y-21880214D01*
X4230596Y-21880214D02*
X4240119Y-21889738D01*
X4240119Y-21889738D02*
X4249643Y-21908786D01*
X4249643Y-21908786D02*
X4249643Y-21965929D01*
X4249643Y-21965929D02*
X4240119Y-21984976D01*
X4240119Y-21984976D02*
X4230596Y-21994500D01*
X4230596Y-21994500D02*
X4211548Y-22004024D01*
X4211548Y-22004024D02*
X4182976Y-22004024D01*
X4363929Y-22004024D02*
X4344881Y-21994500D01*
X4344881Y-21994500D02*
X4335358Y-21975452D01*
X4335358Y-21975452D02*
X4335358Y-21804024D01*
X4516310Y-21994500D02*
X4497262Y-22004024D01*
X4497262Y-22004024D02*
X4459167Y-22004024D01*
X4459167Y-22004024D02*
X4440119Y-21994500D01*
X4440119Y-21994500D02*
X4430596Y-21975452D01*
X4430596Y-21975452D02*
X4430596Y-21899262D01*
X4430596Y-21899262D02*
X4440119Y-21880214D01*
X4440119Y-21880214D02*
X4459167Y-21870690D01*
X4459167Y-21870690D02*
X4497262Y-21870690D01*
X4497262Y-21870690D02*
X4516310Y-21880214D01*
X4516310Y-21880214D02*
X4525834Y-21899262D01*
X4525834Y-21899262D02*
X4525834Y-21918310D01*
X4525834Y-21918310D02*
X4430596Y-21937357D01*
X4602024Y-21994500D02*
X4621072Y-22004024D01*
X4621072Y-22004024D02*
X4659167Y-22004024D01*
X4659167Y-22004024D02*
X4678215Y-21994500D01*
X4678215Y-21994500D02*
X4687739Y-21975452D01*
X4687739Y-21975452D02*
X4687739Y-21965929D01*
X4687739Y-21965929D02*
X4678215Y-21946881D01*
X4678215Y-21946881D02*
X4659167Y-21937357D01*
X4659167Y-21937357D02*
X4630596Y-21937357D01*
X4630596Y-21937357D02*
X4611548Y-21927833D01*
X4611548Y-21927833D02*
X4602024Y-21908786D01*
X4602024Y-21908786D02*
X4602024Y-21899262D01*
X4602024Y-21899262D02*
X4611548Y-21880214D01*
X4611548Y-21880214D02*
X4630596Y-21870690D01*
X4630596Y-21870690D02*
X4659167Y-21870690D01*
X4659167Y-21870690D02*
X4678215Y-21880214D01*
X4754405Y-22080214D02*
X4763929Y-22070690D01*
X4763929Y-22070690D02*
X4782977Y-22042119D01*
X4782977Y-22042119D02*
X4792500Y-22023071D01*
X4792500Y-22023071D02*
X4802024Y-21994500D01*
X4802024Y-21994500D02*
X4811548Y-21946881D01*
X4811548Y-21946881D02*
X4811548Y-21908786D01*
X4811548Y-21908786D02*
X4802024Y-21861167D01*
X4802024Y-21861167D02*
X4792500Y-21832595D01*
X4792500Y-21832595D02*
X4782977Y-21813548D01*
X4782977Y-21813548D02*
X4763929Y-21784976D01*
X4763929Y-21784976D02*
X4754405Y-21775452D01*
X5116310Y-22080214D02*
X5106786Y-22070690D01*
X5106786Y-22070690D02*
X5087739Y-22042119D01*
X5087739Y-22042119D02*
X5078215Y-22023071D01*
X5078215Y-22023071D02*
X5068691Y-21994500D01*
X5068691Y-21994500D02*
X5059167Y-21946881D01*
X5059167Y-21946881D02*
X5059167Y-21908786D01*
X5059167Y-21908786D02*
X5068691Y-21861167D01*
X5068691Y-21861167D02*
X5078215Y-21832595D01*
X5078215Y-21832595D02*
X5087739Y-21813548D01*
X5087739Y-21813548D02*
X5106786Y-21784976D01*
X5106786Y-21784976D02*
X5116310Y-21775452D01*
X5192500Y-21870690D02*
X5192500Y-22004024D01*
X5192500Y-21889738D02*
X5202024Y-21880214D01*
X5202024Y-21880214D02*
X5221072Y-21870690D01*
X5221072Y-21870690D02*
X5249643Y-21870690D01*
X5249643Y-21870690D02*
X5268691Y-21880214D01*
X5268691Y-21880214D02*
X5278215Y-21899262D01*
X5278215Y-21899262D02*
X5278215Y-22004024D01*
X5402024Y-22004024D02*
X5382977Y-21994500D01*
X5382977Y-21994500D02*
X5373453Y-21984976D01*
X5373453Y-21984976D02*
X5363929Y-21965929D01*
X5363929Y-21965929D02*
X5363929Y-21908786D01*
X5363929Y-21908786D02*
X5373453Y-21889738D01*
X5373453Y-21889738D02*
X5382977Y-21880214D01*
X5382977Y-21880214D02*
X5402024Y-21870690D01*
X5402024Y-21870690D02*
X5430596Y-21870690D01*
X5430596Y-21870690D02*
X5449643Y-21880214D01*
X5449643Y-21880214D02*
X5459167Y-21889738D01*
X5459167Y-21889738D02*
X5468691Y-21908786D01*
X5468691Y-21908786D02*
X5468691Y-21965929D01*
X5468691Y-21965929D02*
X5459167Y-21984976D01*
X5459167Y-21984976D02*
X5449643Y-21994500D01*
X5449643Y-21994500D02*
X5430596Y-22004024D01*
X5430596Y-22004024D02*
X5402024Y-22004024D01*
X5525834Y-21870690D02*
X5602024Y-21870690D01*
X5554405Y-21804024D02*
X5554405Y-21975452D01*
X5554405Y-21975452D02*
X5563929Y-21994500D01*
X5563929Y-21994500D02*
X5582977Y-22004024D01*
X5582977Y-22004024D02*
X5602024Y-22004024D01*
X5821072Y-21870690D02*
X5821072Y-22070690D01*
X5821072Y-21880214D02*
X5840119Y-21870690D01*
X5840119Y-21870690D02*
X5878215Y-21870690D01*
X5878215Y-21870690D02*
X5897262Y-21880214D01*
X5897262Y-21880214D02*
X5906786Y-21889738D01*
X5906786Y-21889738D02*
X5916310Y-21908786D01*
X5916310Y-21908786D02*
X5916310Y-21965929D01*
X5916310Y-21965929D02*
X5906786Y-21984976D01*
X5906786Y-21984976D02*
X5897262Y-21994500D01*
X5897262Y-21994500D02*
X5878215Y-22004024D01*
X5878215Y-22004024D02*
X5840119Y-22004024D01*
X5840119Y-22004024D02*
X5821072Y-21994500D01*
X6030596Y-22004024D02*
X6011548Y-21994500D01*
X6011548Y-21994500D02*
X6002024Y-21975452D01*
X6002024Y-21975452D02*
X6002024Y-21804024D01*
X6192500Y-22004024D02*
X6192500Y-21899262D01*
X6192500Y-21899262D02*
X6182977Y-21880214D01*
X6182977Y-21880214D02*
X6163929Y-21870690D01*
X6163929Y-21870690D02*
X6125834Y-21870690D01*
X6125834Y-21870690D02*
X6106786Y-21880214D01*
X6192500Y-21994500D02*
X6173453Y-22004024D01*
X6173453Y-22004024D02*
X6125834Y-22004024D01*
X6125834Y-22004024D02*
X6106786Y-21994500D01*
X6106786Y-21994500D02*
X6097262Y-21975452D01*
X6097262Y-21975452D02*
X6097262Y-21956405D01*
X6097262Y-21956405D02*
X6106786Y-21937357D01*
X6106786Y-21937357D02*
X6125834Y-21927833D01*
X6125834Y-21927833D02*
X6173453Y-21927833D01*
X6173453Y-21927833D02*
X6192500Y-21918310D01*
X6259167Y-21870690D02*
X6335358Y-21870690D01*
X6287739Y-21804024D02*
X6287739Y-21975452D01*
X6287739Y-21975452D02*
X6297262Y-21994500D01*
X6297262Y-21994500D02*
X6316310Y-22004024D01*
X6316310Y-22004024D02*
X6335358Y-22004024D01*
X6478215Y-21994500D02*
X6459167Y-22004024D01*
X6459167Y-22004024D02*
X6421072Y-22004024D01*
X6421072Y-22004024D02*
X6402024Y-21994500D01*
X6402024Y-21994500D02*
X6392500Y-21975452D01*
X6392500Y-21975452D02*
X6392500Y-21899262D01*
X6392500Y-21899262D02*
X6402024Y-21880214D01*
X6402024Y-21880214D02*
X6421072Y-21870690D01*
X6421072Y-21870690D02*
X6459167Y-21870690D01*
X6459167Y-21870690D02*
X6478215Y-21880214D01*
X6478215Y-21880214D02*
X6487739Y-21899262D01*
X6487739Y-21899262D02*
X6487739Y-21918310D01*
X6487739Y-21918310D02*
X6392500Y-21937357D01*
X6659167Y-22004024D02*
X6659167Y-21804024D01*
X6659167Y-21994500D02*
X6640120Y-22004024D01*
X6640120Y-22004024D02*
X6602024Y-22004024D01*
X6602024Y-22004024D02*
X6582977Y-21994500D01*
X6582977Y-21994500D02*
X6573453Y-21984976D01*
X6573453Y-21984976D02*
X6563929Y-21965929D01*
X6563929Y-21965929D02*
X6563929Y-21908786D01*
X6563929Y-21908786D02*
X6573453Y-21889738D01*
X6573453Y-21889738D02*
X6582977Y-21880214D01*
X6582977Y-21880214D02*
X6602024Y-21870690D01*
X6602024Y-21870690D02*
X6640120Y-21870690D01*
X6640120Y-21870690D02*
X6659167Y-21880214D01*
X6735358Y-22080214D02*
X6744881Y-22070690D01*
X6744881Y-22070690D02*
X6763929Y-22042119D01*
X6763929Y-22042119D02*
X6773453Y-22023071D01*
X6773453Y-22023071D02*
X6782977Y-21994500D01*
X6782977Y-21994500D02*
X6792500Y-21946881D01*
X6792500Y-21946881D02*
X6792500Y-21908786D01*
X6792500Y-21908786D02*
X6782977Y-21861167D01*
X6782977Y-21861167D02*
X6773453Y-21832595D01*
X6773453Y-21832595D02*
X6763929Y-21813548D01*
X6763929Y-21813548D02*
X6744881Y-21784976D01*
X6744881Y-21784976D02*
X6735358Y-21775452D01*
M02*
