G04 #@! TF.GenerationSoftware,KiCad,Pcbnew,7.0.2*
G04 #@! TF.CreationDate,2024-01-31T20:37:37-08:00*
G04 #@! TF.ProjectId,Lightsaber,4c696768-7473-4616-9265-722e6b696361,rev?*
G04 #@! TF.SameCoordinates,Original*
G04 #@! TF.FileFunction,Paste,Top*
G04 #@! TF.FilePolarity,Positive*
%FSLAX46Y46*%
G04 Gerber Fmt 4.6, Leading zero omitted, Abs format (unit mm)*
G04 Created by KiCad (PCBNEW 7.0.2) date 2024-01-31 20:37:37*
%MOMM*%
%LPD*%
G01*
G04 APERTURE LIST*
G04 Aperture macros list*
%AMRoundRect*
0 Rectangle with rounded corners*
0 $1 Rounding radius*
0 $2 $3 $4 $5 $6 $7 $8 $9 X,Y pos of 4 corners*
0 Add a 4 corners polygon primitive as box body*
4,1,4,$2,$3,$4,$5,$6,$7,$8,$9,$2,$3,0*
0 Add four circle primitives for the rounded corners*
1,1,$1+$1,$2,$3*
1,1,$1+$1,$4,$5*
1,1,$1+$1,$6,$7*
1,1,$1+$1,$8,$9*
0 Add four rect primitives between the rounded corners*
20,1,$1+$1,$2,$3,$4,$5,0*
20,1,$1+$1,$4,$5,$6,$7,0*
20,1,$1+$1,$6,$7,$8,$9,0*
20,1,$1+$1,$8,$9,$2,$3,0*%
G04 Aperture macros list end*
%ADD10RoundRect,0.150000X-0.150000X0.512500X-0.150000X-0.512500X0.150000X-0.512500X0.150000X0.512500X0*%
%ADD11RoundRect,0.237500X-0.237500X0.300000X-0.237500X-0.300000X0.237500X-0.300000X0.237500X0.300000X0*%
%ADD12RoundRect,0.237500X-0.300000X-0.237500X0.300000X-0.237500X0.300000X0.237500X-0.300000X0.237500X0*%
%ADD13RoundRect,0.237500X-0.250000X-0.237500X0.250000X-0.237500X0.250000X0.237500X-0.250000X0.237500X0*%
%ADD14RoundRect,0.250000X-0.337500X-0.475000X0.337500X-0.475000X0.337500X0.475000X-0.337500X0.475000X0*%
%ADD15RoundRect,0.237500X0.237500X-0.300000X0.237500X0.300000X-0.237500X0.300000X-0.237500X-0.300000X0*%
%ADD16RoundRect,0.237500X0.300000X0.237500X-0.300000X0.237500X-0.300000X-0.237500X0.300000X-0.237500X0*%
%ADD17RoundRect,0.250000X0.275000X-0.275000X0.275000X0.275000X-0.275000X0.275000X-0.275000X-0.275000X0*%
%ADD18RoundRect,0.062500X0.062500X-0.350000X0.062500X0.350000X-0.062500X0.350000X-0.062500X-0.350000X0*%
%ADD19RoundRect,0.062500X0.350000X-0.062500X0.350000X0.062500X-0.350000X0.062500X-0.350000X-0.062500X0*%
%ADD20RoundRect,0.250000X0.475000X-0.337500X0.475000X0.337500X-0.475000X0.337500X-0.475000X-0.337500X0*%
%ADD21RoundRect,0.237500X0.237500X-0.250000X0.237500X0.250000X-0.237500X0.250000X-0.237500X-0.250000X0*%
%ADD22RoundRect,0.237500X0.250000X0.237500X-0.250000X0.237500X-0.250000X-0.237500X0.250000X-0.237500X0*%
%ADD23RoundRect,0.150000X-0.587500X-0.150000X0.587500X-0.150000X0.587500X0.150000X-0.587500X0.150000X0*%
%ADD24RoundRect,0.237500X-0.237500X0.250000X-0.237500X-0.250000X0.237500X-0.250000X0.237500X0.250000X0*%
%ADD25RoundRect,0.237500X0.287500X0.237500X-0.287500X0.237500X-0.287500X-0.237500X0.287500X-0.237500X0*%
%ADD26R,0.609600X1.143000*%
%ADD27R,0.304800X1.143000*%
%ADD28RoundRect,0.237500X-0.287500X-0.237500X0.287500X-0.237500X0.287500X0.237500X-0.287500X0.237500X0*%
%ADD29RoundRect,0.150000X-0.512500X-0.150000X0.512500X-0.150000X0.512500X0.150000X-0.512500X0.150000X0*%
%ADD30RoundRect,0.025000X0.100000X0.145000X-0.100000X0.145000X-0.100000X-0.145000X0.100000X-0.145000X0*%
%ADD31RoundRect,0.106000X0.644000X0.424000X-0.644000X0.424000X-0.644000X-0.424000X0.644000X-0.424000X0*%
%ADD32R,0.600000X0.240000*%
%ADD33RoundRect,0.075000X-0.350000X-0.075000X0.350000X-0.075000X0.350000X0.075000X-0.350000X0.075000X0*%
%ADD34RoundRect,0.075000X0.075000X-0.350000X0.075000X0.350000X-0.075000X0.350000X-0.075000X-0.350000X0*%
%ADD35R,0.900000X1.500000*%
%ADD36R,1.500000X0.900000*%
%ADD37R,0.900000X0.900000*%
%ADD38RoundRect,0.237500X0.237500X-0.287500X0.237500X0.287500X-0.237500X0.287500X-0.237500X-0.287500X0*%
%ADD39RoundRect,0.150000X0.150000X-0.512500X0.150000X0.512500X-0.150000X0.512500X-0.150000X-0.512500X0*%
%ADD40RoundRect,0.250000X1.500000X0.550000X-1.500000X0.550000X-1.500000X-0.550000X1.500000X-0.550000X0*%
%ADD41RoundRect,0.237500X-0.237500X0.287500X-0.237500X-0.287500X0.237500X-0.287500X0.237500X0.287500X0*%
%ADD42RoundRect,0.250001X-0.849999X0.462499X-0.849999X-0.462499X0.849999X-0.462499X0.849999X0.462499X0*%
%ADD43RoundRect,0.240000X0.385000X-0.240000X0.385000X0.240000X-0.385000X0.240000X-0.385000X-0.240000X0*%
%ADD44RoundRect,0.150000X0.150000X-0.825000X0.150000X0.825000X-0.150000X0.825000X-0.150000X-0.825000X0*%
G04 APERTURE END LIST*
D10*
X23700000Y-149362500D03*
X22750000Y-149362500D03*
X21800000Y-149362500D03*
X21800000Y-151637500D03*
X23700000Y-151637500D03*
D11*
X32400000Y-180337500D03*
X32400000Y-182062500D03*
D12*
X8437500Y-123350000D03*
X10162500Y-123350000D03*
D13*
X28162500Y-169880000D03*
X29987500Y-169880000D03*
D14*
X22862500Y-179000000D03*
X24937500Y-179000000D03*
D13*
X24637500Y-187912500D03*
X26462500Y-187912500D03*
D15*
X7000000Y-199275000D03*
X7000000Y-197550000D03*
D13*
X21537500Y-167750000D03*
X23362500Y-167750000D03*
D12*
X30287500Y-146100000D03*
X32012500Y-146100000D03*
D16*
X29912500Y-166500000D03*
X28187500Y-166500000D03*
D17*
X24750000Y-196100000D03*
X26050000Y-196100000D03*
X24750000Y-194800000D03*
X26050000Y-194800000D03*
D18*
X24150000Y-197387500D03*
X24650000Y-197387500D03*
X25150000Y-197387500D03*
X25650000Y-197387500D03*
X26150000Y-197387500D03*
X26650000Y-197387500D03*
D19*
X27337500Y-196700000D03*
X27337500Y-196200000D03*
X27337500Y-195700000D03*
X27337500Y-195200000D03*
X27337500Y-194700000D03*
X27337500Y-194200000D03*
D18*
X26650000Y-193512500D03*
X26150000Y-193512500D03*
X25650000Y-193512500D03*
X25150000Y-193512500D03*
X24650000Y-193512500D03*
X24150000Y-193512500D03*
D19*
X23462500Y-194200000D03*
X23462500Y-194700000D03*
X23462500Y-195200000D03*
X23462500Y-195700000D03*
X23462500Y-196200000D03*
X23462500Y-196700000D03*
D20*
X24900000Y-186100000D03*
X24900000Y-184025000D03*
D12*
X30487500Y-158700000D03*
X32212500Y-158700000D03*
D16*
X12875000Y-201250000D03*
X11150000Y-201250000D03*
D12*
X16937500Y-138500000D03*
X18662500Y-138500000D03*
D21*
X32400000Y-185712500D03*
X32400000Y-183887500D03*
D16*
X29900000Y-164850000D03*
X28175000Y-164850000D03*
D12*
X29787500Y-198350000D03*
X31512500Y-198350000D03*
D22*
X10712500Y-207500000D03*
X8887500Y-207500000D03*
D16*
X5312500Y-198350000D03*
X3587500Y-198350000D03*
D12*
X29785000Y-200060000D03*
X31510000Y-200060000D03*
D23*
X18162500Y-180600000D03*
X18162500Y-182500000D03*
X20037500Y-181550000D03*
D12*
X1587500Y-178600000D03*
X3312500Y-178600000D03*
D24*
X33900000Y-194525000D03*
X33900000Y-196350000D03*
D21*
X20700000Y-136012500D03*
X20700000Y-134187500D03*
D25*
X33775000Y-190900000D03*
X32025000Y-190900000D03*
D26*
X14300000Y-203093800D03*
X15099999Y-203093800D03*
D27*
X16250000Y-203093800D03*
X17250000Y-203093800D03*
X17750000Y-203093800D03*
X18750000Y-203093800D03*
D26*
X19900001Y-203093800D03*
X20700000Y-203093800D03*
D27*
X19249999Y-203093800D03*
X18250001Y-203093800D03*
X16749999Y-203093800D03*
X15750001Y-203093800D03*
D12*
X30287500Y-147750000D03*
X32012500Y-147750000D03*
X30487500Y-153700000D03*
X32212500Y-153700000D03*
D28*
X1175000Y-201250000D03*
X2925000Y-201250000D03*
D29*
X11662500Y-196000000D03*
X11662500Y-196950000D03*
X11662500Y-197900000D03*
X13937500Y-197900000D03*
X13937500Y-196000000D03*
D30*
X28775000Y-163330000D03*
X28775000Y-160270000D03*
D31*
X28525000Y-162430000D03*
X28525000Y-161170000D03*
D30*
X28275000Y-163330000D03*
X28275000Y-160270000D03*
D32*
X29925000Y-162800000D03*
X29925000Y-162300000D03*
X29925000Y-161800000D03*
X29925000Y-161300000D03*
X29925000Y-160800000D03*
X27125000Y-160800000D03*
X27125000Y-161300000D03*
X27125000Y-161800000D03*
X27125000Y-162300000D03*
X27125000Y-162800000D03*
D25*
X29925000Y-173300000D03*
X28175000Y-173300000D03*
D33*
X1300000Y-192750000D03*
X1300000Y-193250000D03*
X1300000Y-193750000D03*
X1300000Y-194250000D03*
X1300000Y-194750000D03*
X1300000Y-195250000D03*
D34*
X2000000Y-195950000D03*
X2500000Y-195950000D03*
X3000000Y-195950000D03*
X3500000Y-195950000D03*
X4000000Y-195950000D03*
X4500000Y-195950000D03*
D33*
X5200000Y-195250000D03*
X5200000Y-194750000D03*
X5200000Y-194250000D03*
X5200000Y-193750000D03*
X5200000Y-193250000D03*
X5200000Y-192750000D03*
D34*
X4500000Y-192050000D03*
X4000000Y-192050000D03*
X3500000Y-192050000D03*
X3000000Y-192050000D03*
X2500000Y-192050000D03*
X2000000Y-192050000D03*
D22*
X10712500Y-204500000D03*
X8887500Y-204500000D03*
X29962500Y-171600000D03*
X28137500Y-171600000D03*
D13*
X7987500Y-176900000D03*
X9812500Y-176900000D03*
D12*
X10437500Y-193000000D03*
X12162500Y-193000000D03*
D35*
X1745000Y-173750000D03*
X3015000Y-173750000D03*
X4285000Y-173750000D03*
X5555000Y-173750000D03*
X6825000Y-173750000D03*
X8095000Y-173750000D03*
X9365000Y-173750000D03*
X10635000Y-173750000D03*
X11905000Y-173750000D03*
X13175000Y-173750000D03*
X14445000Y-173750000D03*
X15715000Y-173750000D03*
X16985000Y-173750000D03*
X18255000Y-173750000D03*
D36*
X19350000Y-170715000D03*
X19350000Y-169445000D03*
X19350000Y-168175000D03*
X19350000Y-166905000D03*
X19350000Y-165635000D03*
X19350000Y-164365000D03*
X19350000Y-163095000D03*
X19350000Y-161825000D03*
X19350000Y-160555000D03*
X19350000Y-159285000D03*
D35*
X18255000Y-156250000D03*
X16985000Y-156250000D03*
X15715000Y-156250000D03*
X14445000Y-156250000D03*
X13175000Y-156250000D03*
X11905000Y-156250000D03*
X10635000Y-156250000D03*
X9365000Y-156250000D03*
X8095000Y-156250000D03*
X6825000Y-156250000D03*
X5555000Y-156250000D03*
X4285000Y-156250000D03*
X3015000Y-156250000D03*
X1745000Y-156250000D03*
D37*
X7910000Y-167900000D03*
X9310000Y-167900000D03*
X10710000Y-167900000D03*
X7910000Y-166500000D03*
X9310000Y-166500000D03*
X10710000Y-166500000D03*
X7910000Y-165100000D03*
X9310000Y-165100000D03*
X10710000Y-165100000D03*
D15*
X8700000Y-199262500D03*
X8700000Y-197537500D03*
D22*
X23612500Y-155300000D03*
X21787500Y-155300000D03*
D12*
X12437500Y-138500000D03*
X14162500Y-138500000D03*
X26137500Y-199500000D03*
X27862500Y-199500000D03*
D22*
X6512500Y-201300000D03*
X4687500Y-201300000D03*
X3175000Y-187250000D03*
X1350000Y-187250000D03*
X30012500Y-168150000D03*
X28187500Y-168150000D03*
D12*
X26137500Y-201200000D03*
X27862500Y-201200000D03*
D21*
X14300000Y-180712500D03*
X14300000Y-178887500D03*
D38*
X26250000Y-151875000D03*
X26250000Y-150125000D03*
D22*
X25862500Y-204550000D03*
X24037500Y-204550000D03*
D21*
X28000000Y-151912500D03*
X28000000Y-150087500D03*
D39*
X29900000Y-151887500D03*
X30850000Y-151887500D03*
X31800000Y-151887500D03*
X31800000Y-149612500D03*
X29900000Y-149612500D03*
D16*
X12912500Y-199600000D03*
X11187500Y-199600000D03*
D12*
X30487500Y-155400000D03*
X32212500Y-155400000D03*
D28*
X8037500Y-182150000D03*
X9787500Y-182150000D03*
D25*
X20187500Y-194250000D03*
X18437500Y-194250000D03*
D13*
X7987500Y-180400000D03*
X9812500Y-180400000D03*
D12*
X28187500Y-176700000D03*
X29912500Y-176700000D03*
D13*
X21537500Y-169400000D03*
X23362500Y-169400000D03*
D12*
X8325000Y-126360000D03*
X10050000Y-126360000D03*
X1537500Y-182000000D03*
X3262500Y-182000000D03*
D11*
X25550000Y-160787500D03*
X25550000Y-162512500D03*
D28*
X8012500Y-178640000D03*
X9762500Y-178640000D03*
D12*
X1537500Y-180300000D03*
X3262500Y-180300000D03*
D40*
X7600000Y-151000000D03*
X2200000Y-151000000D03*
D12*
X10437500Y-191150000D03*
X12162500Y-191150000D03*
D13*
X24075000Y-207500000D03*
X25900000Y-207500000D03*
D23*
X18162500Y-177100000D03*
X18162500Y-179000000D03*
X20037500Y-178050000D03*
D13*
X30437500Y-157050000D03*
X32262500Y-157050000D03*
D24*
X32100000Y-194525000D03*
X32100000Y-196350000D03*
D22*
X33812500Y-189100000D03*
X31987500Y-189100000D03*
D41*
X30300000Y-194562500D03*
X30300000Y-196312500D03*
D12*
X28187500Y-175000000D03*
X29912500Y-175000000D03*
D21*
X26750000Y-126812500D03*
X26750000Y-124987500D03*
D24*
X16200000Y-178887500D03*
X16200000Y-180712500D03*
D22*
X3175000Y-185500000D03*
X1350000Y-185500000D03*
D12*
X21075000Y-145650000D03*
X22800000Y-145650000D03*
X21825000Y-153600000D03*
X23550000Y-153600000D03*
D25*
X23575000Y-159500000D03*
X21825000Y-159500000D03*
D16*
X5150000Y-188950000D03*
X3425000Y-188950000D03*
D22*
X24712500Y-177050000D03*
X22887500Y-177050000D03*
D24*
X18700000Y-152387500D03*
X18700000Y-154212500D03*
D42*
X32150000Y-160637500D03*
X32150000Y-162962500D03*
D22*
X23362500Y-166100000D03*
X21537500Y-166100000D03*
X20262500Y-192500000D03*
X18437500Y-192500000D03*
D12*
X1587500Y-176900000D03*
X3312500Y-176900000D03*
D43*
X27950000Y-183870000D03*
X29450000Y-183870000D03*
X27950000Y-182730000D03*
X29450000Y-182730000D03*
D44*
X26795000Y-185775000D03*
X28065000Y-185775000D03*
X29335000Y-185775000D03*
X30605000Y-185775000D03*
X30605000Y-180825000D03*
X29335000Y-180825000D03*
X28065000Y-180825000D03*
X26795000Y-180825000D03*
M02*
