G04 #@! TF.GenerationSoftware,KiCad,Pcbnew,7.0.2*
G04 #@! TF.CreationDate,2024-01-31T20:37:37-08:00*
G04 #@! TF.ProjectId,Lightsaber,4c696768-7473-4616-9265-722e6b696361,rev?*
G04 #@! TF.SameCoordinates,Original*
G04 #@! TF.FileFunction,Copper,L4,Bot*
G04 #@! TF.FilePolarity,Positive*
%FSLAX46Y46*%
G04 Gerber Fmt 4.6, Leading zero omitted, Abs format (unit mm)*
G04 Created by KiCad (PCBNEW 7.0.2) date 2024-01-31 20:37:37*
%MOMM*%
%LPD*%
G01*
G04 APERTURE LIST*
G04 #@! TA.AperFunction,ComponentPad*
%ADD10C,1.498600*%
G04 #@! TD*
G04 #@! TA.AperFunction,ComponentPad*
%ADD11O,1.200000X2.000000*%
G04 #@! TD*
G04 #@! TA.AperFunction,ComponentPad*
%ADD12O,1.200000X2.300000*%
G04 #@! TD*
G04 #@! TA.AperFunction,ComponentPad*
%ADD13C,0.500000*%
G04 #@! TD*
G04 #@! TA.AperFunction,HeatsinkPad*
%ADD14C,0.600000*%
G04 #@! TD*
G04 #@! TA.AperFunction,ComponentPad*
%ADD15R,2.000000X2.000000*%
G04 #@! TD*
G04 #@! TA.AperFunction,SMDPad,CuDef*
%ADD16R,2.500000X1.800000*%
G04 #@! TD*
G04 #@! TA.AperFunction,ComponentPad*
%ADD17C,3.600000*%
G04 #@! TD*
G04 #@! TA.AperFunction,ViaPad*
%ADD18C,0.800000*%
G04 #@! TD*
G04 #@! TA.AperFunction,Conductor*
%ADD19C,0.500000*%
G04 #@! TD*
G04 #@! TA.AperFunction,Conductor*
%ADD20C,0.254000*%
G04 #@! TD*
G04 #@! TA.AperFunction,Conductor*
%ADD21C,0.250000*%
G04 #@! TD*
G04 APERTURE END LIST*
D10*
X27553000Y-133274999D03*
X27553000Y-130775001D03*
X13999878Y-128946900D03*
X16500000Y-128946900D03*
X19000122Y-128946900D03*
D11*
X13179998Y-207848800D03*
X21820002Y-207848800D03*
D12*
X13179998Y-203668801D03*
X21820002Y-203668801D03*
D10*
X27553000Y-141999998D03*
X27553000Y-139500000D03*
D13*
X29100000Y-161800000D03*
X28525000Y-162750000D03*
X28525000Y-160850000D03*
X27950000Y-161800000D03*
D14*
X8610000Y-167900000D03*
X10010000Y-167900000D03*
X7910000Y-167200000D03*
X9310000Y-167200000D03*
X10710000Y-167200000D03*
X8610000Y-166500000D03*
X10010000Y-166500000D03*
X7910000Y-165800000D03*
X9310000Y-165800000D03*
X10710000Y-165800000D03*
X8610000Y-165100000D03*
X10010000Y-165100000D03*
D15*
X23800000Y-172950000D03*
D10*
X6828500Y-141725001D03*
X6828500Y-144224999D03*
X8446900Y-135500122D03*
X8446900Y-133000000D03*
X8446900Y-130499878D03*
D15*
X12800000Y-153400000D03*
D13*
X27700000Y-183950000D03*
X28700000Y-183950000D03*
X29700000Y-183950000D03*
D16*
X28700000Y-183300000D03*
D13*
X27700000Y-182650000D03*
X28700000Y-182650000D03*
X29700000Y-182650000D03*
D17*
X20040000Y-189620000D03*
X17500000Y-197240000D03*
X14960000Y-189620000D03*
X14960000Y-141620000D03*
X17500000Y-134000000D03*
X20040000Y-141620000D03*
D18*
X33890000Y-207140000D03*
X33890000Y-204600000D03*
X33890000Y-202060000D03*
X33890000Y-184280000D03*
X33890000Y-181740000D03*
X33890000Y-141100000D03*
X33890000Y-138560000D03*
X33890000Y-136020000D03*
X33890000Y-133480000D03*
X33890000Y-130940000D03*
X33890000Y-128400000D03*
X33890000Y-125860000D03*
X33890000Y-123320000D03*
X31350000Y-166500000D03*
X31350000Y-143640000D03*
X31350000Y-141100000D03*
X31350000Y-138560000D03*
X31350000Y-133480000D03*
X31350000Y-130940000D03*
X31350000Y-128400000D03*
X28810000Y-207140000D03*
X28810000Y-191900000D03*
X28810000Y-189360000D03*
X28810000Y-158880000D03*
X28810000Y-156340000D03*
X28810000Y-153800000D03*
X28810000Y-148720000D03*
X28810000Y-143640000D03*
X28810000Y-136020000D03*
X28810000Y-128400000D03*
X28810000Y-125860000D03*
X26270000Y-189360000D03*
X26270000Y-148720000D03*
X26270000Y-146180000D03*
X26270000Y-136020000D03*
X26270000Y-128400000D03*
X23730000Y-143640000D03*
X23730000Y-138560000D03*
X23730000Y-130940000D03*
X23730000Y-128400000D03*
X23730000Y-125860000D03*
X23730000Y-123320000D03*
X21190000Y-186820000D03*
X21190000Y-174120000D03*
X21190000Y-130940000D03*
X21190000Y-128400000D03*
X21190000Y-125860000D03*
X21190000Y-123320000D03*
X18650000Y-207140000D03*
X18650000Y-186820000D03*
X18650000Y-184280000D03*
X18650000Y-151260000D03*
X18650000Y-148720000D03*
X18650000Y-130940000D03*
X18650000Y-125860000D03*
X18650000Y-123320000D03*
X16110000Y-207140000D03*
X16110000Y-199520000D03*
X16110000Y-186820000D03*
X16110000Y-184280000D03*
X16110000Y-169040000D03*
X16110000Y-166500000D03*
X16110000Y-163960000D03*
X16110000Y-161420000D03*
X16110000Y-125860000D03*
X16110000Y-123320000D03*
X13570000Y-186820000D03*
X13570000Y-184280000D03*
X13570000Y-169040000D03*
X13570000Y-166500000D03*
X13570000Y-163960000D03*
X13570000Y-161420000D03*
X13570000Y-151260000D03*
X13570000Y-148720000D03*
X13570000Y-146180000D03*
X13570000Y-136020000D03*
X13570000Y-130940000D03*
X13570000Y-125860000D03*
X13570000Y-123320000D03*
X11030000Y-186820000D03*
X11030000Y-184280000D03*
X11030000Y-181740000D03*
X11030000Y-179200000D03*
X11030000Y-176660000D03*
X11030000Y-171580000D03*
X11030000Y-169040000D03*
X11030000Y-163960000D03*
X11030000Y-161420000D03*
X11030000Y-133480000D03*
X11030000Y-130940000D03*
X11030000Y-128400000D03*
X8490000Y-194440000D03*
X8490000Y-169040000D03*
X8490000Y-163960000D03*
X8490000Y-153800000D03*
X8490000Y-148720000D03*
X8490000Y-146180000D03*
X8490000Y-143640000D03*
X8490000Y-141100000D03*
X8490000Y-138560000D03*
X8490000Y-128400000D03*
X5950000Y-186820000D03*
X5950000Y-184280000D03*
X5950000Y-153800000D03*
X5950000Y-148720000D03*
X5950000Y-146180000D03*
X5950000Y-138560000D03*
X5950000Y-136020000D03*
X5950000Y-133480000D03*
X5950000Y-130940000D03*
X5950000Y-128400000D03*
X5950000Y-125860000D03*
X3410000Y-158880000D03*
X3410000Y-153800000D03*
X3410000Y-148720000D03*
X3410000Y-141100000D03*
X3410000Y-138560000D03*
X3410000Y-136020000D03*
X3410000Y-133480000D03*
X3410000Y-130940000D03*
X3410000Y-128400000D03*
X21550000Y-164900000D03*
X20550000Y-155300000D03*
X25250000Y-155650000D03*
X32100000Y-168150000D03*
X27000000Y-175000000D03*
X31200000Y-171600000D03*
X10450000Y-190050000D03*
X20650000Y-153600000D03*
X31200000Y-168150000D03*
X10450000Y-189100000D03*
X26050000Y-175000000D03*
X12850000Y-196950000D03*
X24400000Y-162500000D03*
X28050000Y-187450000D03*
X33500000Y-155350000D03*
X33250000Y-147750000D03*
X33250000Y-146100000D03*
X33500000Y-153750000D03*
X33600000Y-185700000D03*
X27850000Y-202200000D03*
X31250000Y-169850000D03*
X550000Y-197100000D03*
X26300000Y-196300000D03*
X26750000Y-123700000D03*
X33500000Y-158750000D03*
X31200000Y-176700000D03*
X31200000Y-175000000D03*
X8900000Y-208700000D03*
X30850000Y-150700000D03*
X8900000Y-203300000D03*
X26250000Y-194600000D03*
X19950000Y-138500000D03*
X4600000Y-178600000D03*
X4550000Y-180300000D03*
X26250000Y-153100000D03*
X1700000Y-157700000D03*
X750000Y-175300000D03*
X1150000Y-202450000D03*
X24600000Y-194600000D03*
X11150000Y-202450000D03*
X24550000Y-196300000D03*
X33800000Y-192100000D03*
X3437500Y-190050000D03*
X24700000Y-153600000D03*
X24050000Y-205750000D03*
X26950000Y-166500000D03*
X11400000Y-126350000D03*
X6500000Y-192750000D03*
X31250000Y-173300000D03*
X6000000Y-197150000D03*
X20700000Y-132950000D03*
X30600000Y-187450000D03*
X26950000Y-164850000D03*
X6800000Y-182150000D03*
X15450000Y-138500000D03*
X4550000Y-182000000D03*
X26150000Y-179000000D03*
X4600000Y-176900000D03*
X11450000Y-123350000D03*
X8700000Y-196300000D03*
X17900000Y-170700000D03*
X22750000Y-150650000D03*
X13300000Y-193000000D03*
X32850000Y-198350000D03*
X32850000Y-200050000D03*
X10000000Y-199750000D03*
X12150000Y-189950000D03*
X4450000Y-199300000D03*
X6800000Y-178650000D03*
X24300000Y-202500000D03*
X4400000Y-187250000D03*
X18100000Y-191250000D03*
X33900000Y-193300000D03*
X8700000Y-200600000D03*
X3200000Y-183200000D03*
X26500000Y-202500000D03*
X1537500Y-183200000D03*
X4450000Y-185500000D03*
X25400000Y-202500000D03*
X33800000Y-187850000D03*
X33550000Y-157100000D03*
X26400000Y-155650000D03*
X32450000Y-177950000D03*
X32450000Y-178900000D03*
X24600000Y-149350000D03*
X22550000Y-198600000D03*
X17800000Y-205150000D03*
X21400000Y-198650000D03*
X16749999Y-205150001D03*
X16400000Y-154550000D03*
X15350000Y-154550000D03*
X15700000Y-158650000D03*
X14450000Y-159950000D03*
X20600000Y-179350000D03*
X22650000Y-192150000D03*
X23650000Y-192100000D03*
X20600000Y-182850000D03*
X32950000Y-149600000D03*
X31450000Y-201750000D03*
X6800000Y-180400000D03*
X1400000Y-160700000D03*
X29335000Y-187385000D03*
X2550000Y-161800000D03*
X6800000Y-176900000D03*
X5550000Y-158650000D03*
X20200000Y-196150000D03*
X21550000Y-196150000D03*
X6800000Y-158650000D03*
X500000Y-189250000D03*
X2900000Y-164000000D03*
X1750000Y-189250000D03*
X4285000Y-160765000D03*
X6900000Y-196100000D03*
X17350000Y-175550000D03*
D19*
X25750000Y-171700000D02*
X27950000Y-173900000D01*
X25750000Y-166250000D02*
X25750000Y-171700000D01*
X12900000Y-153400000D02*
X25750000Y-166250000D01*
X27950000Y-173900000D02*
X27950000Y-175250000D01*
X27950000Y-175250000D02*
X30650000Y-177950000D01*
X12800000Y-153400000D02*
X12900000Y-153400000D01*
X30650000Y-177950000D02*
X32450000Y-177950000D01*
X32450000Y-177950000D02*
X32450000Y-178900000D01*
D20*
X23800000Y-152650000D02*
X24600000Y-151850000D01*
X23800000Y-155350000D02*
X23800000Y-152650000D01*
X24100000Y-155650000D02*
X23800000Y-155350000D01*
X24600000Y-151850000D02*
X24600000Y-149350000D01*
X25250000Y-155650000D02*
X24100000Y-155650000D01*
X25200000Y-155600000D02*
X25150000Y-155600000D01*
X25250000Y-155650000D02*
X25200000Y-155600000D01*
D21*
X27850000Y-157100000D02*
X33550000Y-157100000D01*
X26400000Y-155650000D02*
X27850000Y-157100000D01*
D20*
X17800000Y-205150000D02*
X17800000Y-204050000D01*
X17800000Y-204050000D02*
X22550000Y-199300000D01*
X22550000Y-199300000D02*
X22550000Y-198600000D01*
X16749999Y-202100001D02*
X20200000Y-198650000D01*
X20200000Y-198650000D02*
X21400000Y-198650000D01*
X16749999Y-205150001D02*
X16749999Y-202100001D01*
D21*
X25950000Y-139500000D02*
X27553000Y-139500000D01*
X16400000Y-154550000D02*
X16400000Y-149050000D01*
X16400000Y-149050000D02*
X25950000Y-139500000D01*
X15350000Y-154550000D02*
X15350000Y-146000000D01*
X15350000Y-146000000D02*
X17550000Y-143800000D01*
X17550000Y-143800000D02*
X17550000Y-139450000D01*
X26224999Y-130775001D02*
X27553000Y-130775001D01*
X17550000Y-139450000D02*
X26224999Y-130775001D01*
D20*
X14600000Y-158650000D02*
X10900000Y-154950000D01*
X16500000Y-131250000D02*
X16500000Y-128946900D01*
X15700000Y-158650000D02*
X14600000Y-158650000D01*
X10900000Y-154950000D02*
X10900000Y-136850000D01*
X10900000Y-136850000D02*
X16500000Y-131250000D01*
X14450000Y-159950000D02*
X14250000Y-159950000D01*
X10350000Y-134903100D02*
X8446900Y-133000000D01*
X10350000Y-156050000D02*
X10350000Y-134903100D01*
X14250000Y-159950000D02*
X10350000Y-156050000D01*
X22650000Y-186000000D02*
X22650000Y-192150000D01*
X19850000Y-182500000D02*
X19850000Y-183200000D01*
X20600000Y-179350000D02*
X21250000Y-179350000D01*
X21550000Y-180800000D02*
X19850000Y-182500000D01*
X21550000Y-179650000D02*
X21550000Y-180800000D01*
X21250000Y-179350000D02*
X21550000Y-179650000D01*
X19850000Y-183200000D02*
X22650000Y-186000000D01*
X23650000Y-185900000D02*
X23650000Y-192100000D01*
X20600000Y-182850000D02*
X23650000Y-185900000D01*
X34550000Y-151200000D02*
X32950000Y-149600000D01*
X34550000Y-179050000D02*
X34550000Y-151200000D01*
X31450000Y-182150000D02*
X34550000Y-179050000D01*
X31450000Y-201750000D02*
X31450000Y-182150000D01*
X6800000Y-180400000D02*
X5400000Y-179000000D01*
X5400000Y-176500000D02*
X1400000Y-172500000D01*
X1400000Y-172500000D02*
X1400000Y-160700000D01*
X5400000Y-179000000D02*
X5400000Y-176500000D01*
X23800000Y-181850000D02*
X23800000Y-172950000D01*
X29335000Y-187385000D02*
X23800000Y-181850000D01*
X1900000Y-162450000D02*
X1900000Y-172000000D01*
X2550000Y-161800000D02*
X2550000Y-161800000D01*
X1900000Y-172000000D02*
X6800000Y-176900000D01*
X2550000Y-161800000D02*
X1900000Y-162450000D01*
X5550000Y-168950000D02*
X5550000Y-158650000D01*
X9150000Y-191550000D02*
X9150000Y-172550000D01*
X20200000Y-196150000D02*
X18850000Y-194800000D01*
X9150000Y-172550000D02*
X5550000Y-168950000D01*
X12400000Y-194800000D02*
X9150000Y-191550000D01*
X18850000Y-194800000D02*
X12400000Y-194800000D01*
X6800000Y-169400000D02*
X6800000Y-158650000D01*
X9650000Y-191150000D02*
X9650000Y-172250000D01*
X21550000Y-195450000D02*
X19850000Y-193750000D01*
X12250000Y-193750000D02*
X9650000Y-191150000D01*
X21550000Y-196150000D02*
X21550000Y-195450000D01*
X19850000Y-193750000D02*
X12250000Y-193750000D01*
X9650000Y-172250000D02*
X6800000Y-169400000D01*
X500000Y-189250000D02*
X1400000Y-188350000D01*
X8000000Y-175850000D02*
X2950000Y-170800000D01*
X1400000Y-188350000D02*
X6200000Y-188350000D01*
X2900000Y-164000000D02*
X2950000Y-163950000D01*
X8000000Y-186550000D02*
X8000000Y-175850000D01*
X6200000Y-188350000D02*
X8000000Y-186550000D01*
X2950000Y-170800000D02*
X2950000Y-164050000D01*
X2950000Y-164050000D02*
X2900000Y-164000000D01*
X4250000Y-171200000D02*
X8550000Y-175500000D01*
X4285000Y-160765000D02*
X4250000Y-160800000D01*
X8550000Y-175500000D02*
X8550000Y-186700000D01*
X4250000Y-160800000D02*
X4250000Y-160850000D01*
X4250000Y-160800000D02*
X4250000Y-171200000D01*
X8550000Y-186700000D02*
X6000000Y-189250000D01*
X6000000Y-189250000D02*
X1750000Y-189250000D01*
X11700000Y-200350000D02*
X7450000Y-196100000D01*
X18650000Y-193250000D02*
X20100000Y-193250000D01*
X17600000Y-200350000D02*
X11700000Y-200350000D01*
X20600000Y-198150000D02*
X19800000Y-198150000D01*
X17350000Y-191950000D02*
X18650000Y-193250000D01*
X19800000Y-198150000D02*
X17600000Y-200350000D01*
X22300000Y-196450000D02*
X20600000Y-198150000D01*
X20100000Y-193250000D02*
X22300000Y-195450000D01*
X7450000Y-196100000D02*
X6900000Y-196100000D01*
X17350000Y-175550000D02*
X17350000Y-191950000D01*
X22300000Y-195450000D02*
X22300000Y-196450000D01*
G04 #@! TA.AperFunction,Conductor*
G36*
X34958691Y-120019407D02*
G01*
X34994655Y-120068907D01*
X34999500Y-120099500D01*
X34999500Y-150954084D01*
X34980593Y-151012275D01*
X34931093Y-151048239D01*
X34869907Y-151048239D01*
X34820407Y-151012275D01*
X34814763Y-151003583D01*
X34804751Y-150986241D01*
X34804750Y-150986240D01*
X34774775Y-150961088D01*
X34768419Y-150955264D01*
X33573621Y-149760467D01*
X33545844Y-149705950D01*
X33545472Y-149677547D01*
X33555682Y-149600000D01*
X33535044Y-149443238D01*
X33474536Y-149297159D01*
X33394795Y-149193238D01*
X33378282Y-149171717D01*
X33252841Y-149075464D01*
X33106761Y-149014955D01*
X32970637Y-148997034D01*
X32950000Y-148994318D01*
X32949999Y-148994318D01*
X32793238Y-149014955D01*
X32647158Y-149075464D01*
X32521717Y-149171717D01*
X32425464Y-149297158D01*
X32364955Y-149443238D01*
X32344318Y-149600000D01*
X32364955Y-149756761D01*
X32425464Y-149902841D01*
X32521717Y-150028282D01*
X32617971Y-150102139D01*
X32647159Y-150124536D01*
X32793238Y-150185044D01*
X32950000Y-150205682D01*
X33027542Y-150195472D01*
X33087700Y-150206621D01*
X33110467Y-150223621D01*
X34193504Y-151306658D01*
X34221281Y-151361175D01*
X34222500Y-151376662D01*
X34222500Y-156698344D01*
X34203593Y-156756535D01*
X34154093Y-156792499D01*
X34092907Y-156792499D01*
X34044958Y-156758611D01*
X33978282Y-156671717D01*
X33852841Y-156575464D01*
X33706761Y-156514955D01*
X33550000Y-156494318D01*
X33393238Y-156514955D01*
X33247158Y-156575464D01*
X33121717Y-156671717D01*
X33072571Y-156735767D01*
X33022147Y-156770423D01*
X32994029Y-156774500D01*
X28025834Y-156774500D01*
X27967643Y-156755593D01*
X27955830Y-156745504D01*
X27023292Y-155812966D01*
X26995515Y-155758449D01*
X26995143Y-155730046D01*
X27005682Y-155650000D01*
X26985044Y-155493238D01*
X26924536Y-155347159D01*
X26875895Y-155283768D01*
X26828282Y-155221717D01*
X26702841Y-155125464D01*
X26556761Y-155064955D01*
X26400000Y-155044318D01*
X26243238Y-155064955D01*
X26097158Y-155125464D01*
X25971717Y-155221717D01*
X25903542Y-155310566D01*
X25853118Y-155345222D01*
X25791953Y-155343621D01*
X25746458Y-155310566D01*
X25678282Y-155221717D01*
X25552841Y-155125464D01*
X25406761Y-155064955D01*
X25270636Y-155047034D01*
X25250000Y-155044318D01*
X25249999Y-155044318D01*
X25093238Y-155064955D01*
X24947158Y-155125464D01*
X24821719Y-155221716D01*
X24774105Y-155283768D01*
X24723680Y-155318423D01*
X24695563Y-155322500D01*
X24276662Y-155322500D01*
X24218471Y-155303593D01*
X24206658Y-155293504D01*
X24156496Y-155243342D01*
X24128719Y-155188825D01*
X24127500Y-155173338D01*
X24127500Y-152826662D01*
X24146407Y-152768471D01*
X24156496Y-152756658D01*
X24476914Y-152436240D01*
X24818423Y-152094730D01*
X24824781Y-152088906D01*
X24854750Y-152063760D01*
X24874315Y-152029871D01*
X24878943Y-152022605D01*
X24901394Y-151990543D01*
X24901806Y-151989004D01*
X24911698Y-151965121D01*
X24912497Y-151963739D01*
X24919290Y-151925211D01*
X24921157Y-151916785D01*
X24931287Y-151878984D01*
X24927876Y-151840010D01*
X24927500Y-151831381D01*
X24927500Y-149904435D01*
X24946407Y-149846244D01*
X24966231Y-149825894D01*
X25028282Y-149778282D01*
X25124536Y-149652841D01*
X25185044Y-149506762D01*
X25205682Y-149350000D01*
X25185044Y-149193238D01*
X25124536Y-149047159D01*
X25069338Y-148975223D01*
X25028282Y-148921717D01*
X24902841Y-148825464D01*
X24756761Y-148764955D01*
X24600000Y-148744318D01*
X24443238Y-148764955D01*
X24297158Y-148825464D01*
X24171717Y-148921717D01*
X24075464Y-149047158D01*
X24014955Y-149193238D01*
X23994318Y-149350000D01*
X24014955Y-149506761D01*
X24075464Y-149652841D01*
X24171716Y-149778281D01*
X24199859Y-149799875D01*
X24233766Y-149825893D01*
X24268423Y-149876316D01*
X24272500Y-149904435D01*
X24272500Y-151673337D01*
X24253593Y-151731528D01*
X24243504Y-151743341D01*
X23581589Y-152405255D01*
X23575223Y-152411088D01*
X23545249Y-152436240D01*
X23525683Y-152470128D01*
X23521045Y-152477409D01*
X23498604Y-152509457D01*
X23498190Y-152511006D01*
X23488305Y-152534870D01*
X23487503Y-152536258D01*
X23480708Y-152574794D01*
X23478839Y-152583223D01*
X23468712Y-152621015D01*
X23472123Y-152659987D01*
X23472500Y-152668617D01*
X23472500Y-155331382D01*
X23472123Y-155340012D01*
X23468712Y-155378984D01*
X23478839Y-155416778D01*
X23480708Y-155425207D01*
X23487502Y-155463737D01*
X23488303Y-155465124D01*
X23498192Y-155488999D01*
X23498605Y-155490543D01*
X23521045Y-155522589D01*
X23525680Y-155529864D01*
X23536070Y-155547861D01*
X23545250Y-155563761D01*
X23575223Y-155588911D01*
X23581591Y-155594745D01*
X23855253Y-155868407D01*
X23861087Y-155874774D01*
X23886240Y-155904750D01*
X23920127Y-155924315D01*
X23927409Y-155928955D01*
X23959454Y-155951393D01*
X23959456Y-155951393D01*
X23959457Y-155951394D01*
X23960995Y-155951806D01*
X23984873Y-155961696D01*
X23986261Y-155962497D01*
X24010589Y-155966786D01*
X24024788Y-155969290D01*
X24033224Y-155971160D01*
X24071015Y-155981287D01*
X24071015Y-155981286D01*
X24071016Y-155981287D01*
X24109988Y-155977876D01*
X24118618Y-155977500D01*
X24695563Y-155977500D01*
X24753754Y-155996407D01*
X24774105Y-156016232D01*
X24821718Y-156078282D01*
X24947159Y-156174536D01*
X25093238Y-156235044D01*
X25250000Y-156255682D01*
X25406762Y-156235044D01*
X25552841Y-156174536D01*
X25678282Y-156078282D01*
X25746458Y-155989432D01*
X25796882Y-155954777D01*
X25858046Y-155956378D01*
X25903542Y-155989433D01*
X25971717Y-156078282D01*
X26021887Y-156116778D01*
X26097159Y-156174536D01*
X26243238Y-156235044D01*
X26400000Y-156255682D01*
X26480042Y-156245143D01*
X26540200Y-156256292D01*
X26562966Y-156273292D01*
X27606730Y-157317056D01*
X27612564Y-157323423D01*
X27637545Y-157353194D01*
X27671215Y-157372633D01*
X27678477Y-157377260D01*
X27710316Y-157399554D01*
X27711765Y-157399942D01*
X27711768Y-157399943D01*
X27735650Y-157409834D01*
X27736955Y-157410588D01*
X27770732Y-157416543D01*
X27775220Y-157417335D01*
X27783647Y-157419203D01*
X27821193Y-157429264D01*
X27859909Y-157425876D01*
X27868537Y-157425500D01*
X32994029Y-157425500D01*
X33052220Y-157444407D01*
X33072571Y-157464233D01*
X33121717Y-157528282D01*
X33217971Y-157602139D01*
X33247159Y-157624536D01*
X33393238Y-157685044D01*
X33550000Y-157705682D01*
X33706762Y-157685044D01*
X33852841Y-157624536D01*
X33978282Y-157528282D01*
X34044957Y-157441388D01*
X34095382Y-157406732D01*
X34156546Y-157408333D01*
X34205088Y-157445580D01*
X34222500Y-157501655D01*
X34222500Y-178873337D01*
X34203593Y-178931528D01*
X34193504Y-178943341D01*
X31231589Y-181905255D01*
X31225223Y-181911088D01*
X31195249Y-181936240D01*
X31175683Y-181970128D01*
X31171045Y-181977409D01*
X31148604Y-182009457D01*
X31148190Y-182011006D01*
X31138305Y-182034870D01*
X31137503Y-182036258D01*
X31130708Y-182074794D01*
X31128839Y-182083223D01*
X31118712Y-182121017D01*
X31122122Y-182159989D01*
X31122499Y-182168617D01*
X31122500Y-201195563D01*
X31103593Y-201253754D01*
X31083768Y-201274105D01*
X31021716Y-201321719D01*
X30925464Y-201447158D01*
X30864955Y-201593238D01*
X30844318Y-201750000D01*
X30864955Y-201906761D01*
X30925464Y-202052841D01*
X31021717Y-202178282D01*
X31096488Y-202235655D01*
X31147159Y-202274536D01*
X31293238Y-202335044D01*
X31450000Y-202355682D01*
X31606762Y-202335044D01*
X31752841Y-202274536D01*
X31878282Y-202178282D01*
X31974536Y-202052841D01*
X32035044Y-201906762D01*
X32055682Y-201750000D01*
X32035044Y-201593238D01*
X31974536Y-201447159D01*
X31878282Y-201321718D01*
X31816232Y-201274105D01*
X31781577Y-201223680D01*
X31777500Y-201195563D01*
X31777500Y-193300000D01*
X33294318Y-193300000D01*
X33314955Y-193456761D01*
X33375464Y-193602841D01*
X33471717Y-193728282D01*
X33567971Y-193802139D01*
X33597159Y-193824536D01*
X33743238Y-193885044D01*
X33900000Y-193905682D01*
X34056762Y-193885044D01*
X34202841Y-193824536D01*
X34328282Y-193728282D01*
X34424536Y-193602841D01*
X34485044Y-193456762D01*
X34505682Y-193300000D01*
X34485044Y-193143238D01*
X34424536Y-192997159D01*
X34387279Y-192948605D01*
X34328282Y-192871717D01*
X34202841Y-192775464D01*
X34056761Y-192714955D01*
X33900000Y-192694318D01*
X33743238Y-192714955D01*
X33597158Y-192775464D01*
X33471717Y-192871717D01*
X33375464Y-192997158D01*
X33314955Y-193143238D01*
X33294318Y-193300000D01*
X31777500Y-193300000D01*
X31777500Y-187850000D01*
X33194318Y-187850000D01*
X33214955Y-188006761D01*
X33275464Y-188152841D01*
X33371717Y-188278282D01*
X33467970Y-188352139D01*
X33497159Y-188374536D01*
X33643238Y-188435044D01*
X33800000Y-188455682D01*
X33956762Y-188435044D01*
X34102841Y-188374536D01*
X34228282Y-188278282D01*
X34324536Y-188152841D01*
X34385044Y-188006762D01*
X34405682Y-187850000D01*
X34385044Y-187693238D01*
X34324536Y-187547159D01*
X34282174Y-187491951D01*
X34228282Y-187421717D01*
X34102841Y-187325464D01*
X33956761Y-187264955D01*
X33800000Y-187244318D01*
X33643238Y-187264955D01*
X33497158Y-187325464D01*
X33371717Y-187421717D01*
X33275464Y-187547158D01*
X33214955Y-187693238D01*
X33194318Y-187850000D01*
X31777500Y-187850000D01*
X31777500Y-182326661D01*
X31796407Y-182268470D01*
X31806490Y-182256663D01*
X34768422Y-179294730D01*
X34774768Y-179288916D01*
X34804750Y-179263760D01*
X34814763Y-179246415D01*
X34860232Y-179205474D01*
X34921082Y-179199078D01*
X34974071Y-179229670D01*
X34998958Y-179285565D01*
X34999500Y-179295915D01*
X34999500Y-209900500D01*
X34980593Y-209958691D01*
X34931093Y-209994655D01*
X34900500Y-209999500D01*
X99500Y-209999500D01*
X41309Y-209980593D01*
X5345Y-209931093D01*
X500Y-209900500D01*
X500Y-208298849D01*
X12079998Y-208298849D01*
X12080221Y-208303544D01*
X12094963Y-208457924D01*
X12154147Y-208659489D01*
X12250409Y-208846210D01*
X12380269Y-209011341D01*
X12539029Y-209148907D01*
X12720965Y-209253947D01*
X12919484Y-209322656D01*
X12929997Y-209324167D01*
X12929998Y-209324166D01*
X12929998Y-208419229D01*
X12950846Y-208452900D01*
X13041783Y-208521572D01*
X13151387Y-208552757D01*
X13264855Y-208542243D01*
X13366863Y-208491449D01*
X13429997Y-208422193D01*
X13429997Y-209320058D01*
X13541410Y-209293030D01*
X13732496Y-209205763D01*
X13903621Y-209083905D01*
X14048590Y-208931866D01*
X14162166Y-208755139D01*
X14240242Y-208560116D01*
X14279998Y-208353837D01*
X14279998Y-208298849D01*
X20720002Y-208298849D01*
X20720225Y-208303544D01*
X20734967Y-208457924D01*
X20794151Y-208659489D01*
X20890413Y-208846210D01*
X21020273Y-209011341D01*
X21179033Y-209148907D01*
X21360969Y-209253947D01*
X21559488Y-209322656D01*
X21570001Y-209324167D01*
X21570002Y-209324166D01*
X21570002Y-208419229D01*
X21590850Y-208452900D01*
X21681787Y-208521572D01*
X21791391Y-208552757D01*
X21904859Y-208542243D01*
X22006867Y-208491449D01*
X22070002Y-208422192D01*
X22070002Y-209320057D01*
X22181414Y-209293030D01*
X22372500Y-209205763D01*
X22543625Y-209083905D01*
X22688594Y-208931866D01*
X22802170Y-208755139D01*
X22880246Y-208560116D01*
X22920002Y-208353837D01*
X22920002Y-208098801D01*
X22920001Y-208098800D01*
X22124802Y-208098800D01*
X22124802Y-207598800D01*
X22920001Y-207598800D01*
X22920002Y-207598799D01*
X22920002Y-207398750D01*
X22919778Y-207394055D01*
X22905036Y-207239675D01*
X22845852Y-207038110D01*
X22749590Y-206851389D01*
X22619730Y-206686258D01*
X22460970Y-206548692D01*
X22279034Y-206443652D01*
X22080515Y-206374943D01*
X22070003Y-206373431D01*
X22070002Y-206373432D01*
X22070002Y-207278370D01*
X22049154Y-207244700D01*
X21958217Y-207176028D01*
X21848613Y-207144843D01*
X21735145Y-207155357D01*
X21633137Y-207206151D01*
X21570002Y-207275407D01*
X21570002Y-206377540D01*
X21570001Y-206377540D01*
X21458594Y-206404569D01*
X21267499Y-206491839D01*
X21096378Y-206613694D01*
X20951409Y-206765733D01*
X20837833Y-206942460D01*
X20759757Y-207137483D01*
X20720002Y-207343762D01*
X20720002Y-207598799D01*
X20720003Y-207598800D01*
X21515202Y-207598800D01*
X21515202Y-208098800D01*
X20720003Y-208098800D01*
X20720002Y-208098801D01*
X20720002Y-208298849D01*
X14279998Y-208298849D01*
X14279998Y-208098801D01*
X14279997Y-208098800D01*
X13484798Y-208098800D01*
X13484798Y-207598800D01*
X14279997Y-207598800D01*
X14279998Y-207598799D01*
X14279998Y-207398750D01*
X14279774Y-207394055D01*
X14265032Y-207239675D01*
X14205848Y-207038110D01*
X14109586Y-206851389D01*
X13979726Y-206686258D01*
X13820966Y-206548692D01*
X13639030Y-206443652D01*
X13440511Y-206374943D01*
X13429999Y-206373431D01*
X13429997Y-206373432D01*
X13429997Y-207278370D01*
X13409150Y-207244700D01*
X13318213Y-207176028D01*
X13208609Y-207144843D01*
X13095141Y-207155357D01*
X12993133Y-207206151D01*
X12929997Y-207275408D01*
X12929997Y-206377541D01*
X12818588Y-206404570D01*
X12627495Y-206491839D01*
X12456374Y-206613694D01*
X12311405Y-206765733D01*
X12197829Y-206942460D01*
X12119753Y-207137483D01*
X12079998Y-207343762D01*
X12079998Y-207598799D01*
X12079999Y-207598800D01*
X12875198Y-207598800D01*
X12875198Y-208098800D01*
X12079999Y-208098800D01*
X12079998Y-208098801D01*
X12079998Y-208298849D01*
X500Y-208298849D01*
X500Y-205934678D01*
X2362148Y-205934678D01*
X2372148Y-206195591D01*
X2421862Y-206451927D01*
X2510120Y-206697666D01*
X2634859Y-206927059D01*
X2788212Y-207128238D01*
X2793150Y-207134716D01*
X2981286Y-207315778D01*
X3092573Y-207394055D01*
X3194859Y-207466001D01*
X3428851Y-207581859D01*
X3568397Y-207626020D01*
X3677795Y-207660641D01*
X3935845Y-207700500D01*
X3935847Y-207700500D01*
X4129672Y-207700500D01*
X4131577Y-207700500D01*
X4326744Y-207685516D01*
X4580986Y-207626021D01*
X4823166Y-207528414D01*
X5047608Y-207394982D01*
X5249052Y-207228852D01*
X5422775Y-207033920D01*
X5564706Y-206814753D01*
X5671518Y-206576489D01*
X5740707Y-206324713D01*
X5770652Y-206065325D01*
X5765644Y-205934678D01*
X29295748Y-205934678D01*
X29305748Y-206195591D01*
X29355462Y-206451927D01*
X29443720Y-206697666D01*
X29568459Y-206927059D01*
X29721812Y-207128238D01*
X29726750Y-207134716D01*
X29914886Y-207315778D01*
X30026173Y-207394055D01*
X30128459Y-207466001D01*
X30362451Y-207581859D01*
X30501997Y-207626020D01*
X30611395Y-207660641D01*
X30869445Y-207700500D01*
X30869447Y-207700500D01*
X31063272Y-207700500D01*
X31065177Y-207700500D01*
X31260344Y-207685516D01*
X31514586Y-207626021D01*
X31756766Y-207528414D01*
X31981208Y-207394982D01*
X32182652Y-207228852D01*
X32356375Y-207033920D01*
X32498306Y-206814753D01*
X32605118Y-206576489D01*
X32674307Y-206324713D01*
X32704252Y-206065325D01*
X32694251Y-205804407D01*
X32644538Y-205548073D01*
X32556279Y-205302332D01*
X32492610Y-205185247D01*
X32431540Y-205072940D01*
X32273252Y-204865287D01*
X32273250Y-204865284D01*
X32085114Y-204684222D01*
X31871544Y-204534001D01*
X31871540Y-204533998D01*
X31637548Y-204418140D01*
X31388609Y-204339360D01*
X31388607Y-204339359D01*
X31388605Y-204339359D01*
X31130555Y-204299500D01*
X30934823Y-204299500D01*
X30932936Y-204299644D01*
X30932932Y-204299645D01*
X30739654Y-204314484D01*
X30485414Y-204373979D01*
X30243231Y-204471587D01*
X30018795Y-204605015D01*
X29817345Y-204771149D01*
X29643623Y-204966081D01*
X29501695Y-205185244D01*
X29394881Y-205423513D01*
X29325693Y-205675284D01*
X29295748Y-205934678D01*
X5765644Y-205934678D01*
X5760651Y-205804407D01*
X5710938Y-205548073D01*
X5622679Y-205302332D01*
X5559010Y-205185247D01*
X5497940Y-205072940D01*
X5339652Y-204865287D01*
X5339650Y-204865284D01*
X5151514Y-204684222D01*
X4937944Y-204534001D01*
X4937940Y-204533998D01*
X4703948Y-204418140D01*
X4455009Y-204339360D01*
X4455007Y-204339359D01*
X4455005Y-204339359D01*
X4196955Y-204299500D01*
X4001223Y-204299500D01*
X3999336Y-204299644D01*
X3999332Y-204299645D01*
X3806054Y-204314484D01*
X3551814Y-204373979D01*
X3309631Y-204471587D01*
X3085195Y-204605015D01*
X2883745Y-204771149D01*
X2710023Y-204966081D01*
X2568095Y-205185244D01*
X2461281Y-205423513D01*
X2392093Y-205675284D01*
X2362148Y-205934678D01*
X500Y-205934678D01*
X500Y-203418800D01*
X12079997Y-203418800D01*
X12079999Y-203418801D01*
X12875198Y-203418801D01*
X12875198Y-203918801D01*
X12079999Y-203918801D01*
X12079998Y-203918802D01*
X12079998Y-204268850D01*
X12080221Y-204273545D01*
X12094963Y-204427925D01*
X12154147Y-204629490D01*
X12250409Y-204816211D01*
X12380269Y-204981342D01*
X12539029Y-205118908D01*
X12720965Y-205223948D01*
X12919485Y-205292657D01*
X12929996Y-205294168D01*
X12929997Y-205294167D01*
X12929997Y-204390028D01*
X12950846Y-204423701D01*
X13041783Y-204492373D01*
X13151387Y-204523558D01*
X13264855Y-204513044D01*
X13366863Y-204462250D01*
X13429998Y-204392993D01*
X13429998Y-205290058D01*
X13541410Y-205263031D01*
X13732496Y-205175764D01*
X13903621Y-205053906D01*
X14048590Y-204901867D01*
X14162166Y-204725141D01*
X14223400Y-204572186D01*
X14262580Y-204525191D01*
X14321900Y-204510201D01*
X14371075Y-204527182D01*
X14421015Y-204561231D01*
X14545082Y-204599500D01*
X14545083Y-204599500D01*
X14642279Y-204599500D01*
X14706349Y-204589842D01*
X14738385Y-204585014D01*
X14855363Y-204528681D01*
X14950538Y-204440370D01*
X15015456Y-204327930D01*
X15044347Y-204201350D01*
X15034644Y-204071878D01*
X15034644Y-204071876D01*
X14987211Y-203951019D01*
X14906259Y-203849508D01*
X14906259Y-203849507D01*
X14798985Y-203776369D01*
X14674918Y-203738100D01*
X14577723Y-203738100D01*
X14577721Y-203738100D01*
X14481615Y-203752585D01*
X14364636Y-203808918D01*
X14274697Y-203892372D01*
X14219180Y-203918093D01*
X14207359Y-203918801D01*
X13484798Y-203918801D01*
X13484798Y-203418801D01*
X14279997Y-203418801D01*
X14279998Y-203418800D01*
X14279998Y-203068751D01*
X14279774Y-203064056D01*
X14265032Y-202909676D01*
X14205848Y-202708111D01*
X14109586Y-202521390D01*
X13979726Y-202356259D01*
X13820966Y-202218693D01*
X13639030Y-202113653D01*
X13440512Y-202044944D01*
X13429997Y-202043432D01*
X13429997Y-202947570D01*
X13409150Y-202913901D01*
X13318213Y-202845229D01*
X13208609Y-202814044D01*
X13095141Y-202824558D01*
X12993133Y-202875352D01*
X12929998Y-202944608D01*
X12929998Y-202047541D01*
X12929997Y-202047541D01*
X12818590Y-202074570D01*
X12627495Y-202161840D01*
X12456374Y-202283695D01*
X12311405Y-202435734D01*
X12197829Y-202612461D01*
X12119753Y-202807484D01*
X12079998Y-203013763D01*
X12079997Y-203418800D01*
X500Y-203418800D01*
X500Y-200600000D01*
X8094318Y-200600000D01*
X8114955Y-200756761D01*
X8175464Y-200902841D01*
X8271717Y-201028282D01*
X8367970Y-201102139D01*
X8397159Y-201124536D01*
X8543238Y-201185044D01*
X8700000Y-201205682D01*
X8856762Y-201185044D01*
X9002841Y-201124536D01*
X9128282Y-201028282D01*
X9224536Y-200902841D01*
X9285044Y-200756762D01*
X9305682Y-200600000D01*
X9285044Y-200443238D01*
X9224536Y-200297159D01*
X9202139Y-200267971D01*
X9128282Y-200171717D01*
X9002841Y-200075464D01*
X8856761Y-200014955D01*
X8700000Y-199994318D01*
X8543238Y-200014955D01*
X8397158Y-200075464D01*
X8271717Y-200171717D01*
X8175464Y-200297158D01*
X8114955Y-200443238D01*
X8094318Y-200600000D01*
X500Y-200600000D01*
X500Y-196799000D01*
X19407Y-196740809D01*
X68907Y-196704845D01*
X99500Y-196700000D01*
X5949999Y-196700000D01*
X5950000Y-196700000D01*
X5950000Y-191350000D01*
X5949999Y-191350000D01*
X99500Y-191350000D01*
X41309Y-191331093D01*
X5345Y-191281593D01*
X500Y-191251000D01*
X500Y-189824386D01*
X19407Y-189766195D01*
X68907Y-189730231D01*
X130093Y-189730231D01*
X159766Y-189745843D01*
X197159Y-189774536D01*
X343238Y-189835044D01*
X500000Y-189855682D01*
X656762Y-189835044D01*
X802841Y-189774536D01*
X928282Y-189678282D01*
X1024536Y-189552841D01*
X1033536Y-189531110D01*
X1073273Y-189484587D01*
X1132767Y-189470303D01*
X1189295Y-189493718D01*
X1216464Y-189531112D01*
X1225464Y-189552842D01*
X1321717Y-189678282D01*
X1417971Y-189752139D01*
X1447159Y-189774536D01*
X1593238Y-189835044D01*
X1750000Y-189855682D01*
X1906762Y-189835044D01*
X2052841Y-189774536D01*
X2178282Y-189678282D01*
X2225894Y-189616232D01*
X2276320Y-189581577D01*
X2304437Y-189577500D01*
X5981382Y-189577500D01*
X5990012Y-189577877D01*
X6028982Y-189581287D01*
X6028982Y-189581286D01*
X6028984Y-189581287D01*
X6066785Y-189571157D01*
X6075211Y-189569290D01*
X6113736Y-189562498D01*
X6113737Y-189562497D01*
X6113739Y-189562497D01*
X6115116Y-189561701D01*
X6139003Y-189551806D01*
X6140543Y-189551394D01*
X6172591Y-189528952D01*
X6179876Y-189524312D01*
X6189205Y-189518926D01*
X6213760Y-189504750D01*
X6238916Y-189474768D01*
X6244730Y-189468422D01*
X8653497Y-187059656D01*
X8708013Y-187031880D01*
X8768445Y-187041451D01*
X8811710Y-187084716D01*
X8822500Y-187129661D01*
X8822500Y-191531382D01*
X8822123Y-191540012D01*
X8818712Y-191578984D01*
X8828839Y-191616778D01*
X8830708Y-191625207D01*
X8837502Y-191663737D01*
X8838303Y-191665124D01*
X8848192Y-191688999D01*
X8848605Y-191690543D01*
X8871045Y-191722589D01*
X8875680Y-191729864D01*
X8886070Y-191747861D01*
X8895250Y-191763761D01*
X8925223Y-191788911D01*
X8931591Y-191794745D01*
X12155264Y-195018419D01*
X12161088Y-195024775D01*
X12186240Y-195054750D01*
X12186241Y-195054751D01*
X12220118Y-195074309D01*
X12227403Y-195078950D01*
X12250171Y-195094892D01*
X12259457Y-195101394D01*
X12260995Y-195101806D01*
X12284873Y-195111696D01*
X12286261Y-195112497D01*
X12310589Y-195116786D01*
X12324788Y-195119290D01*
X12333224Y-195121160D01*
X12371015Y-195131287D01*
X12371015Y-195131286D01*
X12371016Y-195131287D01*
X12409988Y-195127876D01*
X12418618Y-195127500D01*
X16195330Y-195127500D01*
X16253521Y-195146407D01*
X16289485Y-195195907D01*
X16289485Y-195257093D01*
X16253521Y-195306593D01*
X16250331Y-195308816D01*
X16099538Y-195409571D01*
X16094405Y-195413510D01*
X16058528Y-195444973D01*
X17054317Y-196440764D01*
X16959214Y-196495672D01*
X16816277Y-196624373D01*
X16703222Y-196779980D01*
X16698047Y-196791602D01*
X15704973Y-195798528D01*
X15673510Y-195834405D01*
X15669571Y-195839538D01*
X15505669Y-196084836D01*
X15502432Y-196090444D01*
X15371951Y-196355032D01*
X15369476Y-196361007D01*
X15274644Y-196640373D01*
X15272972Y-196646612D01*
X15215414Y-196935974D01*
X15214572Y-196942374D01*
X15195277Y-197236765D01*
X15195277Y-197243234D01*
X15214572Y-197537625D01*
X15215414Y-197544025D01*
X15272972Y-197833387D01*
X15274644Y-197839626D01*
X15369475Y-198118988D01*
X15371955Y-198124974D01*
X15502431Y-198389555D01*
X15505668Y-198395163D01*
X15669573Y-198640464D01*
X15673512Y-198645597D01*
X15704973Y-198681470D01*
X16698046Y-197688396D01*
X16703222Y-197700020D01*
X16816277Y-197855627D01*
X16959214Y-197984328D01*
X17054317Y-198039235D01*
X16058528Y-199035025D01*
X16094406Y-199066490D01*
X16099536Y-199070427D01*
X16344836Y-199234331D01*
X16350444Y-199237568D01*
X16615025Y-199368044D01*
X16621011Y-199370524D01*
X16900373Y-199465355D01*
X16906612Y-199467027D01*
X17195974Y-199524585D01*
X17202374Y-199525427D01*
X17496766Y-199544723D01*
X17503234Y-199544723D01*
X17710432Y-199531142D01*
X17769735Y-199546203D01*
X17808859Y-199593245D01*
X17812861Y-199654299D01*
X17786911Y-199699933D01*
X17493343Y-199993503D01*
X17438826Y-200021281D01*
X17423339Y-200022500D01*
X11876663Y-200022500D01*
X11818472Y-200003593D01*
X11806659Y-199993504D01*
X7694745Y-195881591D01*
X7688911Y-195875223D01*
X7663761Y-195845250D01*
X7644976Y-195834405D01*
X7629864Y-195825680D01*
X7622589Y-195821045D01*
X7590543Y-195798605D01*
X7588999Y-195798192D01*
X7565126Y-195788303D01*
X7563739Y-195787503D01*
X7563738Y-195787502D01*
X7563737Y-195787502D01*
X7525207Y-195780708D01*
X7516778Y-195778839D01*
X7478983Y-195768712D01*
X7461614Y-195770232D01*
X7401997Y-195756469D01*
X7374444Y-195731877D01*
X7328280Y-195671716D01*
X7202841Y-195575464D01*
X7056761Y-195514955D01*
X6900000Y-195494318D01*
X6743238Y-195514955D01*
X6597158Y-195575464D01*
X6471717Y-195671717D01*
X6375464Y-195797158D01*
X6314955Y-195943238D01*
X6294318Y-196100000D01*
X6314955Y-196256761D01*
X6375464Y-196402841D01*
X6471717Y-196528282D01*
X6567971Y-196602139D01*
X6597159Y-196624536D01*
X6743238Y-196685044D01*
X6900000Y-196705682D01*
X7056762Y-196685044D01*
X7202841Y-196624536D01*
X7308541Y-196543429D01*
X7366218Y-196523005D01*
X7424883Y-196540383D01*
X7438813Y-196551967D01*
X11455264Y-200568419D01*
X11461088Y-200574775D01*
X11486240Y-200604750D01*
X11486241Y-200604751D01*
X11520120Y-200624310D01*
X11527397Y-200628945D01*
X11559457Y-200651395D01*
X11561001Y-200651808D01*
X11584875Y-200661697D01*
X11586261Y-200662497D01*
X11624787Y-200669289D01*
X11633214Y-200671157D01*
X11671016Y-200681287D01*
X11709988Y-200677876D01*
X11718618Y-200677500D01*
X17470337Y-200677500D01*
X17528528Y-200696407D01*
X17564492Y-200745907D01*
X17564492Y-200807093D01*
X17540341Y-200846504D01*
X16531588Y-201855256D01*
X16525222Y-201861089D01*
X16495248Y-201886241D01*
X16475682Y-201920129D01*
X16471044Y-201927410D01*
X16448603Y-201959458D01*
X16448189Y-201961007D01*
X16438304Y-201984871D01*
X16437502Y-201986259D01*
X16430707Y-202024795D01*
X16428838Y-202033224D01*
X16418711Y-202071016D01*
X16422122Y-202109988D01*
X16422499Y-202118618D01*
X16422499Y-204595564D01*
X16403592Y-204653755D01*
X16383767Y-204674106D01*
X16321715Y-204721720D01*
X16225463Y-204847159D01*
X16164954Y-204993239D01*
X16144317Y-205150000D01*
X16164954Y-205306762D01*
X16225463Y-205452842D01*
X16321716Y-205578283D01*
X16417969Y-205652140D01*
X16447158Y-205674537D01*
X16593237Y-205735045D01*
X16749999Y-205755683D01*
X16906761Y-205735045D01*
X17052840Y-205674537D01*
X17178281Y-205578283D01*
X17196456Y-205554595D01*
X17246879Y-205519940D01*
X17308044Y-205521540D01*
X17353541Y-205554594D01*
X17371718Y-205578283D01*
X17473480Y-205656366D01*
X17497159Y-205674536D01*
X17643238Y-205735044D01*
X17800000Y-205755682D01*
X17956762Y-205735044D01*
X18102841Y-205674536D01*
X18228282Y-205578282D01*
X18324536Y-205452841D01*
X18385044Y-205306762D01*
X18405682Y-205150000D01*
X18385044Y-204993238D01*
X18324536Y-204847159D01*
X18266211Y-204771148D01*
X18228283Y-204721719D01*
X18166232Y-204674105D01*
X18131577Y-204623680D01*
X18127500Y-204595563D01*
X18127500Y-204226662D01*
X18146407Y-204168471D01*
X18156496Y-204156658D01*
X18176903Y-204136251D01*
X19955653Y-204136251D01*
X19965355Y-204265723D01*
X20012788Y-204386580D01*
X20055683Y-204440369D01*
X20093741Y-204488092D01*
X20201015Y-204561231D01*
X20325082Y-204599500D01*
X20325083Y-204599500D01*
X20422279Y-204599500D01*
X20486349Y-204589842D01*
X20518385Y-204585014D01*
X20635363Y-204528681D01*
X20635363Y-204528680D01*
X20643463Y-204524780D01*
X20704095Y-204516567D01*
X20757974Y-204545561D01*
X20781406Y-204586083D01*
X20794151Y-204629487D01*
X20890413Y-204816211D01*
X21020273Y-204981342D01*
X21179033Y-205118908D01*
X21360969Y-205223948D01*
X21559488Y-205292657D01*
X21570001Y-205294168D01*
X21570002Y-205294167D01*
X21570002Y-204390030D01*
X21590850Y-204423701D01*
X21681787Y-204492373D01*
X21791391Y-204523558D01*
X21904859Y-204513044D01*
X22006867Y-204462250D01*
X22070002Y-204392993D01*
X22070002Y-205290058D01*
X22181414Y-205263031D01*
X22372500Y-205175764D01*
X22543625Y-205053906D01*
X22688594Y-204901867D01*
X22802170Y-204725140D01*
X22880246Y-204530117D01*
X22920002Y-204323838D01*
X22920002Y-203918802D01*
X22920001Y-203918801D01*
X22124802Y-203918801D01*
X22124802Y-203418801D01*
X22920001Y-203418801D01*
X22920002Y-203418800D01*
X22920002Y-203068751D01*
X22919778Y-203064056D01*
X22905036Y-202909676D01*
X22845852Y-202708111D01*
X22749590Y-202521390D01*
X22732769Y-202500000D01*
X23694318Y-202500000D01*
X23714955Y-202656761D01*
X23775464Y-202802841D01*
X23871717Y-202928282D01*
X23967971Y-203002139D01*
X23997159Y-203024536D01*
X24143238Y-203085044D01*
X24300000Y-203105682D01*
X24456762Y-203085044D01*
X24602841Y-203024536D01*
X24728282Y-202928282D01*
X24771458Y-202872013D01*
X24821880Y-202837358D01*
X24883044Y-202838959D01*
X24928541Y-202872014D01*
X24971717Y-202928282D01*
X25067971Y-203002139D01*
X25097159Y-203024536D01*
X25243238Y-203085044D01*
X25400000Y-203105682D01*
X25556762Y-203085044D01*
X25702841Y-203024536D01*
X25828282Y-202928282D01*
X25871457Y-202872014D01*
X25921882Y-202837358D01*
X25983046Y-202838959D01*
X26028542Y-202872014D01*
X26071717Y-202928282D01*
X26167970Y-203002139D01*
X26197159Y-203024536D01*
X26343238Y-203085044D01*
X26500000Y-203105682D01*
X26656762Y-203085044D01*
X26802841Y-203024536D01*
X26928282Y-202928282D01*
X27024536Y-202802841D01*
X27085044Y-202656762D01*
X27105682Y-202500000D01*
X27085044Y-202343238D01*
X27024536Y-202197159D01*
X27002139Y-202167971D01*
X26928282Y-202071717D01*
X26802841Y-201975464D01*
X26656761Y-201914955D01*
X26500000Y-201894318D01*
X26343238Y-201914955D01*
X26197158Y-201975464D01*
X26071716Y-202071718D01*
X26028540Y-202127986D01*
X25978116Y-202162641D01*
X25916951Y-202161039D01*
X25871458Y-202127986D01*
X25828282Y-202071718D01*
X25828280Y-202071716D01*
X25828279Y-202071715D01*
X25702841Y-201975464D01*
X25556761Y-201914955D01*
X25400000Y-201894318D01*
X25243238Y-201914955D01*
X25097158Y-201975464D01*
X24971717Y-202071717D01*
X24928542Y-202127985D01*
X24878118Y-202162641D01*
X24816953Y-202161040D01*
X24771458Y-202127985D01*
X24728282Y-202071717D01*
X24602841Y-201975464D01*
X24456761Y-201914955D01*
X24300000Y-201894318D01*
X24143238Y-201914955D01*
X23997158Y-201975464D01*
X23871717Y-202071717D01*
X23775464Y-202197158D01*
X23714955Y-202343238D01*
X23694318Y-202500000D01*
X22732769Y-202500000D01*
X22619730Y-202356259D01*
X22460970Y-202218693D01*
X22279034Y-202113653D01*
X22080515Y-202044944D01*
X22070003Y-202043432D01*
X22070002Y-202043433D01*
X22070002Y-202947571D01*
X22049154Y-202913901D01*
X21958217Y-202845229D01*
X21848613Y-202814044D01*
X21735145Y-202824558D01*
X21633137Y-202875352D01*
X21570002Y-202944608D01*
X21570002Y-202047541D01*
X21570001Y-202047541D01*
X21458594Y-202074570D01*
X21267499Y-202161840D01*
X21096378Y-202283695D01*
X20951409Y-202435734D01*
X20837833Y-202612461D01*
X20759757Y-202807484D01*
X20720002Y-203013763D01*
X20720002Y-203418800D01*
X20720003Y-203418801D01*
X21515202Y-203418801D01*
X21515202Y-203918801D01*
X20789194Y-203918801D01*
X20731003Y-203899894D01*
X20711792Y-203881526D01*
X20705687Y-203873871D01*
X20686259Y-203849508D01*
X20578985Y-203776369D01*
X20454918Y-203738100D01*
X20357723Y-203738100D01*
X20357721Y-203738100D01*
X20261615Y-203752585D01*
X20144636Y-203808918D01*
X20049461Y-203897230D01*
X19984545Y-204009667D01*
X19984544Y-204009669D01*
X19984544Y-204009670D01*
X19955653Y-204136250D01*
X19955653Y-204136251D01*
X18176903Y-204136251D01*
X20457898Y-201855256D01*
X22768423Y-199544730D01*
X22774782Y-199538905D01*
X22804750Y-199513760D01*
X22824311Y-199479877D01*
X22828948Y-199472597D01*
X22851394Y-199440543D01*
X22851806Y-199439003D01*
X22861701Y-199415116D01*
X22862497Y-199413739D01*
X22869296Y-199375171D01*
X22871153Y-199366799D01*
X22881286Y-199328985D01*
X22877877Y-199290019D01*
X22877500Y-199281390D01*
X22877500Y-199154435D01*
X22896407Y-199096244D01*
X22916231Y-199075894D01*
X22978282Y-199028282D01*
X23074536Y-198902841D01*
X23135044Y-198756762D01*
X23155682Y-198600000D01*
X23135044Y-198443238D01*
X23074536Y-198297159D01*
X23052139Y-198267971D01*
X22978282Y-198171717D01*
X22852841Y-198075464D01*
X22706761Y-198014955D01*
X22570637Y-197997034D01*
X22550000Y-197994318D01*
X22549999Y-197994318D01*
X22393238Y-198014955D01*
X22247158Y-198075464D01*
X22121717Y-198171717D01*
X22034359Y-198285566D01*
X21983935Y-198320222D01*
X21922770Y-198318621D01*
X21877275Y-198285566D01*
X21828282Y-198221717D01*
X21702841Y-198125464D01*
X21556761Y-198064955D01*
X21394762Y-198043628D01*
X21339537Y-198017287D01*
X21310342Y-197963516D01*
X21318328Y-197902854D01*
X21337675Y-197875477D01*
X22518422Y-196694730D01*
X22524768Y-196688916D01*
X22554750Y-196663760D01*
X22574313Y-196629873D01*
X22578954Y-196622589D01*
X22601393Y-196590544D01*
X22601392Y-196590544D01*
X22601394Y-196590543D01*
X22601806Y-196589003D01*
X22611701Y-196565116D01*
X22612497Y-196563739D01*
X22618749Y-196528282D01*
X22619290Y-196525211D01*
X22621157Y-196516785D01*
X22631287Y-196478984D01*
X22627876Y-196440011D01*
X22627500Y-196431382D01*
X22627500Y-195468617D01*
X22627877Y-195459987D01*
X22631287Y-195421015D01*
X22621160Y-195383224D01*
X22619290Y-195374788D01*
X22612497Y-195336262D01*
X22612497Y-195336261D01*
X22611698Y-195334878D01*
X22601806Y-195310997D01*
X22601394Y-195309457D01*
X22578945Y-195277397D01*
X22574318Y-195270134D01*
X22554750Y-195236240D01*
X22524775Y-195211088D01*
X22518419Y-195205264D01*
X20344745Y-193031591D01*
X20338911Y-193025223D01*
X20313761Y-192995250D01*
X20297861Y-192986070D01*
X20279864Y-192975680D01*
X20272589Y-192971045D01*
X20240543Y-192948605D01*
X20238999Y-192948192D01*
X20215126Y-192938303D01*
X20213739Y-192937503D01*
X20213738Y-192937502D01*
X20213737Y-192937502D01*
X20175207Y-192930708D01*
X20166778Y-192928839D01*
X20128984Y-192918712D01*
X20090012Y-192922123D01*
X20081382Y-192922500D01*
X18826663Y-192922500D01*
X18768472Y-192903593D01*
X18756659Y-192893504D01*
X17867272Y-192004117D01*
X17839495Y-191949600D01*
X17849066Y-191889168D01*
X17892331Y-191845903D01*
X17950197Y-191835960D01*
X18100000Y-191855682D01*
X18256762Y-191835044D01*
X18402841Y-191774536D01*
X18528282Y-191678282D01*
X18624536Y-191552841D01*
X18624538Y-191552835D01*
X18625122Y-191552075D01*
X18675547Y-191517419D01*
X18736711Y-191519020D01*
X18758667Y-191530027D01*
X18884833Y-191614329D01*
X18890444Y-191617568D01*
X19155025Y-191748044D01*
X19161011Y-191750524D01*
X19440373Y-191845355D01*
X19446612Y-191847027D01*
X19735974Y-191904585D01*
X19742374Y-191905427D01*
X20036766Y-191924723D01*
X20043234Y-191924723D01*
X20337625Y-191905427D01*
X20344025Y-191904585D01*
X20633387Y-191847027D01*
X20639626Y-191845355D01*
X20918988Y-191750524D01*
X20924974Y-191748044D01*
X21189555Y-191617568D01*
X21195163Y-191614331D01*
X21440465Y-191450425D01*
X21445588Y-191446495D01*
X21481470Y-191415025D01*
X20485682Y-190419235D01*
X20580786Y-190364328D01*
X20723723Y-190235627D01*
X20836778Y-190080020D01*
X20841952Y-190068397D01*
X21835025Y-191061470D01*
X21866495Y-191025588D01*
X21870425Y-191020465D01*
X22034331Y-190775163D01*
X22037561Y-190769567D01*
X22134709Y-190572570D01*
X22177404Y-190528742D01*
X22237705Y-190518380D01*
X22292581Y-190545442D01*
X22321070Y-190599590D01*
X22322500Y-190616356D01*
X22322500Y-191595563D01*
X22303593Y-191653754D01*
X22283768Y-191674105D01*
X22221716Y-191721719D01*
X22125464Y-191847158D01*
X22064955Y-191993238D01*
X22044318Y-192150000D01*
X22064955Y-192306761D01*
X22125464Y-192452841D01*
X22221717Y-192578282D01*
X22317971Y-192652139D01*
X22347159Y-192674536D01*
X22493238Y-192735044D01*
X22650000Y-192755682D01*
X22806762Y-192735044D01*
X22952841Y-192674536D01*
X23078282Y-192578282D01*
X23095317Y-192556080D01*
X23145740Y-192521424D01*
X23206905Y-192523025D01*
X23234127Y-192537805D01*
X23347157Y-192624535D01*
X23347158Y-192624535D01*
X23347159Y-192624536D01*
X23493238Y-192685044D01*
X23650000Y-192705682D01*
X23806762Y-192685044D01*
X23952841Y-192624536D01*
X24078282Y-192528282D01*
X24174536Y-192402841D01*
X24235044Y-192256762D01*
X24255682Y-192100000D01*
X24235044Y-191943238D01*
X24174536Y-191797159D01*
X24078282Y-191671718D01*
X24016232Y-191624105D01*
X23981577Y-191573680D01*
X23977500Y-191545563D01*
X23977500Y-185918608D01*
X23977877Y-185909979D01*
X23981286Y-185871016D01*
X23981286Y-185871015D01*
X23971155Y-185833210D01*
X23969291Y-185824796D01*
X23969127Y-185823867D01*
X23962497Y-185786261D01*
X23961696Y-185784873D01*
X23951806Y-185760995D01*
X23951394Y-185759457D01*
X23944892Y-185750171D01*
X23928950Y-185727403D01*
X23924309Y-185720118D01*
X23904751Y-185686241D01*
X23904750Y-185686240D01*
X23874775Y-185661088D01*
X23868419Y-185655264D01*
X21223621Y-183010467D01*
X21195844Y-182955950D01*
X21195472Y-182927547D01*
X21205682Y-182850000D01*
X21185044Y-182693238D01*
X21124536Y-182547159D01*
X21066109Y-182471015D01*
X21028282Y-182421717D01*
X20902841Y-182325464D01*
X20746170Y-182260568D01*
X20699644Y-182220831D01*
X20685361Y-182161336D01*
X20708776Y-182104808D01*
X20714039Y-182099113D01*
X21768422Y-181044730D01*
X21774768Y-181038916D01*
X21804750Y-181013760D01*
X21824313Y-180979873D01*
X21828954Y-180972589D01*
X21851393Y-180940544D01*
X21851392Y-180940544D01*
X21851394Y-180940543D01*
X21851806Y-180939003D01*
X21861701Y-180915116D01*
X21862497Y-180913739D01*
X21869290Y-180875211D01*
X21871157Y-180866785D01*
X21881287Y-180828984D01*
X21877876Y-180790011D01*
X21877500Y-180781382D01*
X21877500Y-179668617D01*
X21877877Y-179659987D01*
X21881287Y-179621015D01*
X21871160Y-179583224D01*
X21869290Y-179574788D01*
X21862497Y-179536262D01*
X21862497Y-179536261D01*
X21861696Y-179534873D01*
X21851806Y-179510995D01*
X21851393Y-179509454D01*
X21828955Y-179477409D01*
X21824315Y-179470127D01*
X21804750Y-179436240D01*
X21774774Y-179411087D01*
X21768407Y-179405253D01*
X21494745Y-179131591D01*
X21488911Y-179125223D01*
X21463761Y-179095250D01*
X21447861Y-179086070D01*
X21429864Y-179075680D01*
X21422589Y-179071045D01*
X21390543Y-179048605D01*
X21388999Y-179048192D01*
X21365126Y-179038303D01*
X21363739Y-179037503D01*
X21363738Y-179037502D01*
X21363737Y-179037502D01*
X21325207Y-179030708D01*
X21316778Y-179028839D01*
X21278984Y-179018712D01*
X21240012Y-179022123D01*
X21231382Y-179022500D01*
X21154437Y-179022500D01*
X21096246Y-179003593D01*
X21075895Y-178983768D01*
X21044874Y-178943341D01*
X21028282Y-178921718D01*
X21028280Y-178921717D01*
X21028280Y-178921716D01*
X20902841Y-178825464D01*
X20756761Y-178764955D01*
X20600000Y-178744318D01*
X20443238Y-178764955D01*
X20297158Y-178825464D01*
X20171717Y-178921717D01*
X20075464Y-179047158D01*
X20014955Y-179193238D01*
X19994318Y-179350000D01*
X20014955Y-179506761D01*
X20075464Y-179652841D01*
X20171717Y-179778282D01*
X20234768Y-179826662D01*
X20297159Y-179874536D01*
X20443238Y-179935044D01*
X20600000Y-179955682D01*
X20756762Y-179935044D01*
X20902841Y-179874536D01*
X20994080Y-179804526D01*
X21028280Y-179778284D01*
X21028282Y-179778282D01*
X21040683Y-179762120D01*
X21091104Y-179727465D01*
X21152269Y-179729064D01*
X21189229Y-179752383D01*
X21193504Y-179756658D01*
X21221281Y-179811175D01*
X21222500Y-179826662D01*
X21222500Y-180623337D01*
X21203593Y-180681528D01*
X21193504Y-180693341D01*
X19631589Y-182255255D01*
X19625223Y-182261088D01*
X19595249Y-182286240D01*
X19575683Y-182320128D01*
X19571045Y-182327409D01*
X19548604Y-182359457D01*
X19548190Y-182361006D01*
X19538305Y-182384870D01*
X19537503Y-182386258D01*
X19530708Y-182424794D01*
X19528839Y-182433223D01*
X19518712Y-182471015D01*
X19522123Y-182509987D01*
X19522500Y-182518617D01*
X19522500Y-183181382D01*
X19522123Y-183190012D01*
X19518712Y-183228984D01*
X19528839Y-183266778D01*
X19530708Y-183275207D01*
X19537502Y-183313737D01*
X19538303Y-183315124D01*
X19548192Y-183338999D01*
X19548605Y-183340543D01*
X19571045Y-183372589D01*
X19575680Y-183379864D01*
X19586070Y-183397861D01*
X19595250Y-183413761D01*
X19625223Y-183438911D01*
X19631591Y-183444745D01*
X22293504Y-186106658D01*
X22321281Y-186161175D01*
X22322500Y-186176662D01*
X22322500Y-188623642D01*
X22303593Y-188681833D01*
X22254093Y-188717797D01*
X22192907Y-188717797D01*
X22143407Y-188681833D01*
X22134710Y-188667429D01*
X22037567Y-188470444D01*
X22034330Y-188464836D01*
X21870427Y-188219536D01*
X21866490Y-188214406D01*
X21835025Y-188178528D01*
X20841952Y-189171600D01*
X20836778Y-189159980D01*
X20723723Y-189004373D01*
X20580786Y-188875672D01*
X20485680Y-188820762D01*
X21481470Y-187824973D01*
X21445597Y-187793512D01*
X21440464Y-187789573D01*
X21195163Y-187625668D01*
X21189555Y-187622431D01*
X20924974Y-187491955D01*
X20918988Y-187489475D01*
X20639626Y-187394644D01*
X20633387Y-187392972D01*
X20344025Y-187335414D01*
X20337625Y-187334572D01*
X20043234Y-187315277D01*
X20036766Y-187315277D01*
X19742374Y-187334572D01*
X19735974Y-187335414D01*
X19446612Y-187392972D01*
X19440373Y-187394644D01*
X19161007Y-187489476D01*
X19155032Y-187491951D01*
X18890444Y-187622432D01*
X18884836Y-187625669D01*
X18639538Y-187789571D01*
X18634405Y-187793510D01*
X18598528Y-187824973D01*
X19594318Y-188820763D01*
X19499214Y-188875672D01*
X19356277Y-189004373D01*
X19243222Y-189159980D01*
X19238047Y-189171601D01*
X18244973Y-188178528D01*
X18213510Y-188214405D01*
X18209571Y-188219538D01*
X18045669Y-188464836D01*
X18042432Y-188470444D01*
X17911951Y-188735032D01*
X17909476Y-188741007D01*
X17870246Y-188856577D01*
X17833637Y-188905602D01*
X17775204Y-188923746D01*
X17717266Y-188904078D01*
X17681953Y-188854111D01*
X17677500Y-188824754D01*
X17677500Y-176104435D01*
X17696407Y-176046244D01*
X17716231Y-176025894D01*
X17778282Y-175978282D01*
X17874536Y-175852841D01*
X17935044Y-175706762D01*
X17955682Y-175550000D01*
X17935044Y-175393238D01*
X17874536Y-175247159D01*
X17811103Y-175164491D01*
X17778282Y-175121717D01*
X17652841Y-175025464D01*
X17506761Y-174964955D01*
X17370637Y-174947034D01*
X17350000Y-174944318D01*
X17349999Y-174944318D01*
X17193238Y-174964955D01*
X17047158Y-175025464D01*
X16921717Y-175121717D01*
X16825464Y-175247158D01*
X16764955Y-175393238D01*
X16744318Y-175550000D01*
X16764955Y-175706761D01*
X16825464Y-175852841D01*
X16921716Y-175978281D01*
X16931325Y-175985654D01*
X16983766Y-176025893D01*
X17018423Y-176076316D01*
X17022500Y-176104435D01*
X17022500Y-188240499D01*
X17003593Y-188298690D01*
X16954093Y-188334654D01*
X16892907Y-188334654D01*
X16843407Y-188298690D01*
X16841184Y-188295500D01*
X16790427Y-188219536D01*
X16786490Y-188214406D01*
X16755025Y-188178528D01*
X15761952Y-189171600D01*
X15756778Y-189159980D01*
X15643723Y-189004373D01*
X15500786Y-188875672D01*
X15405680Y-188820762D01*
X16401470Y-187824973D01*
X16365597Y-187793512D01*
X16360464Y-187789573D01*
X16115163Y-187625668D01*
X16109555Y-187622431D01*
X15844974Y-187491955D01*
X15838988Y-187489475D01*
X15559626Y-187394644D01*
X15553387Y-187392972D01*
X15264025Y-187335414D01*
X15257625Y-187334572D01*
X14963234Y-187315277D01*
X14956766Y-187315277D01*
X14662374Y-187334572D01*
X14655974Y-187335414D01*
X14366612Y-187392972D01*
X14360373Y-187394644D01*
X14081007Y-187489476D01*
X14075032Y-187491951D01*
X13810444Y-187622432D01*
X13804836Y-187625669D01*
X13559538Y-187789571D01*
X13554405Y-187793510D01*
X13518528Y-187824973D01*
X14514318Y-188820763D01*
X14419214Y-188875672D01*
X14276277Y-189004373D01*
X14163222Y-189159980D01*
X14158047Y-189171602D01*
X13164973Y-188178528D01*
X13133510Y-188214405D01*
X13129571Y-188219538D01*
X12965669Y-188464836D01*
X12962432Y-188470444D01*
X12831951Y-188735032D01*
X12829476Y-188741007D01*
X12734644Y-189020373D01*
X12732972Y-189026612D01*
X12675414Y-189315974D01*
X12674572Y-189322374D01*
X12655277Y-189616765D01*
X12655277Y-189623234D01*
X12674572Y-189917625D01*
X12675414Y-189924025D01*
X12732972Y-190213387D01*
X12734644Y-190219626D01*
X12829475Y-190498988D01*
X12831955Y-190504974D01*
X12962431Y-190769555D01*
X12965668Y-190775163D01*
X13129573Y-191020464D01*
X13133512Y-191025597D01*
X13164973Y-191061470D01*
X14158046Y-190068396D01*
X14163222Y-190080020D01*
X14276277Y-190235627D01*
X14419214Y-190364328D01*
X14514317Y-190419235D01*
X13518528Y-191415025D01*
X13554406Y-191446490D01*
X13559536Y-191450427D01*
X13804836Y-191614331D01*
X13810444Y-191617568D01*
X14075025Y-191748044D01*
X14081011Y-191750524D01*
X14360373Y-191845355D01*
X14366612Y-191847027D01*
X14655974Y-191904585D01*
X14662374Y-191905427D01*
X14956766Y-191924723D01*
X14963234Y-191924723D01*
X15257625Y-191905427D01*
X15264025Y-191904585D01*
X15553387Y-191847027D01*
X15559626Y-191845355D01*
X15838988Y-191750524D01*
X15844974Y-191748044D01*
X16109555Y-191617568D01*
X16115163Y-191614331D01*
X16360465Y-191450425D01*
X16365588Y-191446495D01*
X16401470Y-191415025D01*
X15405681Y-190419236D01*
X15500786Y-190364328D01*
X15643723Y-190235627D01*
X15756778Y-190080020D01*
X15761952Y-190068397D01*
X16755025Y-191061470D01*
X16786495Y-191025588D01*
X16790425Y-191020465D01*
X16841184Y-190944500D01*
X16889234Y-190906620D01*
X16950372Y-190904218D01*
X17001246Y-190938211D01*
X17022424Y-190995614D01*
X17022500Y-190999501D01*
X17022500Y-191931382D01*
X17022123Y-191940012D01*
X17018712Y-191978984D01*
X17028839Y-192016778D01*
X17030708Y-192025207D01*
X17037502Y-192063737D01*
X17038303Y-192065124D01*
X17048192Y-192088999D01*
X17048605Y-192090543D01*
X17071045Y-192122589D01*
X17075680Y-192129864D01*
X17086070Y-192147861D01*
X17095250Y-192163761D01*
X17125223Y-192188911D01*
X17131591Y-192194745D01*
X18190341Y-193253496D01*
X18218118Y-193308013D01*
X18208547Y-193368445D01*
X18165282Y-193411710D01*
X18120337Y-193422500D01*
X12426663Y-193422500D01*
X12368472Y-193403593D01*
X12356659Y-193393504D01*
X10006496Y-191043341D01*
X9978719Y-190988824D01*
X9977500Y-190973337D01*
X9977500Y-190645103D01*
X9996407Y-190586912D01*
X10045907Y-190550948D01*
X10107093Y-190550948D01*
X10136762Y-190566558D01*
X10147159Y-190574536D01*
X10293238Y-190635044D01*
X10450000Y-190655682D01*
X10606762Y-190635044D01*
X10752841Y-190574536D01*
X10878282Y-190478282D01*
X10974536Y-190352841D01*
X11035044Y-190206762D01*
X11055682Y-190050000D01*
X11035044Y-189893238D01*
X10974536Y-189747159D01*
X10888677Y-189635265D01*
X10868254Y-189577592D01*
X10885631Y-189518926D01*
X10888678Y-189514733D01*
X10974536Y-189402841D01*
X11035044Y-189256762D01*
X11055682Y-189100000D01*
X11035044Y-188943238D01*
X10974536Y-188797159D01*
X10931449Y-188741007D01*
X10878282Y-188671717D01*
X10752841Y-188575464D01*
X10606761Y-188514955D01*
X10470637Y-188497034D01*
X10450000Y-188494318D01*
X10449999Y-188494318D01*
X10293238Y-188514955D01*
X10147157Y-188575464D01*
X10136767Y-188583438D01*
X10079091Y-188603862D01*
X10020425Y-188586484D01*
X9983178Y-188537942D01*
X9977500Y-188504896D01*
X9977500Y-173969746D01*
X22599500Y-173969746D01*
X22611133Y-174028231D01*
X22655447Y-174094552D01*
X22681746Y-174112124D01*
X22721769Y-174138867D01*
X22780252Y-174150500D01*
X23373500Y-174150500D01*
X23431691Y-174169407D01*
X23467655Y-174218907D01*
X23472500Y-174249500D01*
X23472500Y-181831382D01*
X23472123Y-181840012D01*
X23468712Y-181878984D01*
X23478839Y-181916778D01*
X23480708Y-181925207D01*
X23487502Y-181963737D01*
X23488303Y-181965124D01*
X23498192Y-181988999D01*
X23498605Y-181990543D01*
X23521045Y-182022589D01*
X23525680Y-182029864D01*
X23536070Y-182047861D01*
X23545250Y-182063761D01*
X23575223Y-182088911D01*
X23581591Y-182094745D01*
X28711377Y-187224531D01*
X28739154Y-187279048D01*
X28739526Y-187307456D01*
X28729318Y-187384999D01*
X28749955Y-187541761D01*
X28810464Y-187687841D01*
X28906717Y-187813282D01*
X28982945Y-187871773D01*
X29032159Y-187909536D01*
X29178238Y-187970044D01*
X29335000Y-187990682D01*
X29491762Y-187970044D01*
X29637841Y-187909536D01*
X29763282Y-187813282D01*
X29859536Y-187687841D01*
X29920044Y-187541762D01*
X29940682Y-187385000D01*
X29920044Y-187228238D01*
X29859536Y-187082159D01*
X29820956Y-187031880D01*
X29763282Y-186956717D01*
X29637841Y-186860464D01*
X29491761Y-186799955D01*
X29355637Y-186782034D01*
X29335000Y-186779318D01*
X29334999Y-186779318D01*
X29257456Y-186789526D01*
X29197295Y-186778375D01*
X29174531Y-186761377D01*
X26363153Y-183949999D01*
X27244866Y-183949999D01*
X27248492Y-183975211D01*
X27249500Y-183989301D01*
X27249499Y-184219746D01*
X27261133Y-184278231D01*
X27305447Y-184344552D01*
X27349761Y-184374162D01*
X27371769Y-184388867D01*
X27430252Y-184400500D01*
X27430253Y-184400500D01*
X29969747Y-184400500D01*
X29969748Y-184400500D01*
X30028231Y-184388867D01*
X30094552Y-184344552D01*
X30138867Y-184278231D01*
X30150500Y-184219748D01*
X30150500Y-183989301D01*
X30151508Y-183975211D01*
X30155133Y-183949999D01*
X30151508Y-183924786D01*
X30150500Y-183910697D01*
X30150500Y-182689301D01*
X30151508Y-182675211D01*
X30155133Y-182649999D01*
X30151508Y-182624786D01*
X30150500Y-182610697D01*
X30150500Y-182380253D01*
X30149174Y-182373588D01*
X30138867Y-182321769D01*
X30115127Y-182286240D01*
X30094552Y-182255447D01*
X30028231Y-182211133D01*
X29969748Y-182199500D01*
X27430252Y-182199500D01*
X27401010Y-182205316D01*
X27371768Y-182211133D01*
X27305447Y-182255447D01*
X27261133Y-182321768D01*
X27249499Y-182380253D01*
X27249499Y-182610697D01*
X27248492Y-182624784D01*
X27244867Y-182650000D01*
X27248492Y-182675211D01*
X27249500Y-182689301D01*
X27249500Y-183910697D01*
X27248492Y-183924786D01*
X27244866Y-183949999D01*
X26363153Y-183949999D01*
X24156496Y-181743342D01*
X24128719Y-181688825D01*
X24127500Y-181673338D01*
X24127500Y-174249500D01*
X24146407Y-174191309D01*
X24195907Y-174155345D01*
X24226500Y-174150500D01*
X24819747Y-174150500D01*
X24819748Y-174150500D01*
X24878231Y-174138867D01*
X24944552Y-174094552D01*
X24988867Y-174028231D01*
X25000500Y-173969748D01*
X25000500Y-171930252D01*
X24988867Y-171871769D01*
X24968993Y-171842026D01*
X24944552Y-171805447D01*
X24878231Y-171761133D01*
X24819748Y-171749500D01*
X22780252Y-171749500D01*
X22751010Y-171755316D01*
X22721768Y-171761133D01*
X22655447Y-171805447D01*
X22611133Y-171871768D01*
X22599500Y-171930253D01*
X22599500Y-173969746D01*
X9977500Y-173969746D01*
X9977500Y-172268617D01*
X9977877Y-172259987D01*
X9981287Y-172221015D01*
X9971159Y-172183221D01*
X9969289Y-172174785D01*
X9962497Y-172136262D01*
X9962497Y-172136261D01*
X9961697Y-172134875D01*
X9951808Y-172111001D01*
X9951395Y-172109457D01*
X9928945Y-172077397D01*
X9924310Y-172070120D01*
X9904751Y-172036241D01*
X9895266Y-172028282D01*
X9874775Y-172011088D01*
X9868419Y-172005264D01*
X8527500Y-170664345D01*
X7156493Y-169293338D01*
X7128718Y-169238824D01*
X7127500Y-169223349D01*
X7127500Y-168616660D01*
X8246891Y-168616660D01*
X8260699Y-168625336D01*
X8430853Y-168684876D01*
X8610000Y-168705061D01*
X8789143Y-168684876D01*
X8959304Y-168625335D01*
X8973107Y-168616661D01*
X8973106Y-168616660D01*
X9646891Y-168616660D01*
X9660699Y-168625336D01*
X9830853Y-168684876D01*
X10010000Y-168705061D01*
X10189143Y-168684876D01*
X10359304Y-168625335D01*
X10373107Y-168616661D01*
X10009999Y-168253553D01*
X9646891Y-168616660D01*
X8973106Y-168616660D01*
X8609999Y-168253553D01*
X8246891Y-168616660D01*
X7127500Y-168616660D01*
X7127499Y-167916660D01*
X7546891Y-167916660D01*
X7560699Y-167925336D01*
X7730854Y-167984876D01*
X7737119Y-167985582D01*
X7792828Y-168010883D01*
X7823026Y-168064097D01*
X7824417Y-168072876D01*
X7825123Y-168079143D01*
X7884664Y-168249306D01*
X7893337Y-168263107D01*
X8223953Y-167932492D01*
X8510000Y-167932492D01*
X8548197Y-167985065D01*
X8594162Y-168000000D01*
X8625838Y-168000000D01*
X8671803Y-167985065D01*
X8710000Y-167932492D01*
X8710000Y-167899999D01*
X8963552Y-167899999D01*
X9309998Y-168246446D01*
X9623953Y-167932492D01*
X9910000Y-167932492D01*
X9948197Y-167985065D01*
X9994162Y-168000000D01*
X10025838Y-168000000D01*
X10071803Y-167985065D01*
X10110000Y-167932492D01*
X10110000Y-167900000D01*
X10363552Y-167900000D01*
X10726660Y-168263108D01*
X10726661Y-168263107D01*
X10735335Y-168249304D01*
X10794876Y-168079142D01*
X10795582Y-168072881D01*
X10820882Y-168017172D01*
X10874096Y-167986973D01*
X10882881Y-167985582D01*
X10889142Y-167984876D01*
X11059304Y-167925335D01*
X11073107Y-167916661D01*
X10709999Y-167553553D01*
X10363552Y-167900000D01*
X10110000Y-167900000D01*
X10110000Y-167867508D01*
X10071803Y-167814935D01*
X10025838Y-167800000D01*
X9994162Y-167800000D01*
X9948197Y-167814935D01*
X9910000Y-167867508D01*
X9910000Y-167932492D01*
X9623953Y-167932492D01*
X9656446Y-167899999D01*
X9310000Y-167553553D01*
X8963552Y-167899999D01*
X8710000Y-167899999D01*
X8710000Y-167867508D01*
X8671803Y-167814935D01*
X8625838Y-167800000D01*
X8594162Y-167800000D01*
X8548197Y-167814935D01*
X8510000Y-167867508D01*
X8510000Y-167932492D01*
X8223953Y-167932492D01*
X8256446Y-167899999D01*
X7910000Y-167553553D01*
X7546891Y-167916660D01*
X7127499Y-167916660D01*
X7127499Y-167666471D01*
X7146407Y-167608280D01*
X7160700Y-167597895D01*
X7159625Y-167596820D01*
X7523953Y-167232492D01*
X7810000Y-167232492D01*
X7848197Y-167285065D01*
X7894162Y-167300000D01*
X7925838Y-167300000D01*
X7971803Y-167285065D01*
X8010000Y-167232492D01*
X8010000Y-167200000D01*
X8263553Y-167200000D01*
X8609998Y-167546446D01*
X8923952Y-167232492D01*
X9210000Y-167232492D01*
X9248197Y-167285065D01*
X9294162Y-167300000D01*
X9325838Y-167300000D01*
X9371803Y-167285065D01*
X9410000Y-167232492D01*
X9410000Y-167199999D01*
X9663552Y-167199999D01*
X10009999Y-167546446D01*
X10323953Y-167232492D01*
X10610000Y-167232492D01*
X10648197Y-167285065D01*
X10694162Y-167300000D01*
X10725838Y-167300000D01*
X10771803Y-167285065D01*
X10810000Y-167232492D01*
X10810000Y-167200000D01*
X11063552Y-167200000D01*
X11426660Y-167563108D01*
X11426661Y-167563107D01*
X11435335Y-167549304D01*
X11494876Y-167379143D01*
X11515061Y-167200000D01*
X11494876Y-167020853D01*
X11435336Y-166850699D01*
X11426660Y-166836891D01*
X11063552Y-167200000D01*
X10810000Y-167200000D01*
X10810000Y-167167508D01*
X10771803Y-167114935D01*
X10725838Y-167100000D01*
X10694162Y-167100000D01*
X10648197Y-167114935D01*
X10610000Y-167167508D01*
X10610000Y-167232492D01*
X10323953Y-167232492D01*
X10356446Y-167199999D01*
X10009999Y-166853553D01*
X9663552Y-167199999D01*
X9410000Y-167199999D01*
X9410000Y-167167508D01*
X9371803Y-167114935D01*
X9325838Y-167100000D01*
X9294162Y-167100000D01*
X9248197Y-167114935D01*
X9210000Y-167167508D01*
X9210000Y-167232492D01*
X8923952Y-167232492D01*
X8956446Y-167199998D01*
X8610000Y-166853553D01*
X8263553Y-167200000D01*
X8010000Y-167200000D01*
X8010000Y-167167508D01*
X7971803Y-167114935D01*
X7925838Y-167100000D01*
X7894162Y-167100000D01*
X7848197Y-167114935D01*
X7810000Y-167167508D01*
X7810000Y-167232492D01*
X7523953Y-167232492D01*
X7556446Y-167199999D01*
X7159625Y-166803178D01*
X7161180Y-166801622D01*
X7136356Y-166774454D01*
X7127500Y-166733527D01*
X7127500Y-166500000D01*
X7563553Y-166500000D01*
X7909999Y-166846446D01*
X8223954Y-166532492D01*
X8510000Y-166532492D01*
X8548197Y-166585065D01*
X8594162Y-166600000D01*
X8625838Y-166600000D01*
X8671803Y-166585065D01*
X8710000Y-166532492D01*
X8710000Y-166499999D01*
X8963552Y-166499999D01*
X9309998Y-166846446D01*
X9623953Y-166532492D01*
X9910000Y-166532492D01*
X9948197Y-166585065D01*
X9994162Y-166600000D01*
X10025838Y-166600000D01*
X10071803Y-166585065D01*
X10110000Y-166532492D01*
X10110000Y-166499999D01*
X10363552Y-166499999D01*
X10709998Y-166846446D01*
X11056446Y-166499999D01*
X10710000Y-166153553D01*
X10363552Y-166499999D01*
X10110000Y-166499999D01*
X10110000Y-166467508D01*
X10071803Y-166414935D01*
X10025838Y-166400000D01*
X9994162Y-166400000D01*
X9948197Y-166414935D01*
X9910000Y-166467508D01*
X9910000Y-166532492D01*
X9623953Y-166532492D01*
X9656446Y-166499999D01*
X9310000Y-166153553D01*
X8963552Y-166499999D01*
X8710000Y-166499999D01*
X8710000Y-166467508D01*
X8671803Y-166414935D01*
X8625838Y-166400000D01*
X8594162Y-166400000D01*
X8548197Y-166414935D01*
X8510000Y-166467508D01*
X8510000Y-166532492D01*
X8223954Y-166532492D01*
X8256446Y-166500000D01*
X7910000Y-166153554D01*
X7563553Y-166500000D01*
X7127500Y-166500000D01*
X7127500Y-166266471D01*
X7146407Y-166208280D01*
X7160700Y-166197894D01*
X7159626Y-166196820D01*
X7523954Y-165832492D01*
X7810000Y-165832492D01*
X7848197Y-165885065D01*
X7894162Y-165900000D01*
X7925838Y-165900000D01*
X7971803Y-165885065D01*
X8010000Y-165832492D01*
X8010000Y-165800000D01*
X8263553Y-165800000D01*
X8609999Y-166146446D01*
X8923954Y-165832492D01*
X9210000Y-165832492D01*
X9248197Y-165885065D01*
X9294162Y-165900000D01*
X9325838Y-165900000D01*
X9371803Y-165885065D01*
X9410000Y-165832492D01*
X9410000Y-165799999D01*
X9663552Y-165799999D01*
X10009998Y-166146446D01*
X10323953Y-165832492D01*
X10610000Y-165832492D01*
X10648197Y-165885065D01*
X10694162Y-165900000D01*
X10725838Y-165900000D01*
X10771803Y-165885065D01*
X10810000Y-165832492D01*
X10810000Y-165799999D01*
X11063553Y-165799999D01*
X11426661Y-166163107D01*
X11435335Y-166149304D01*
X11494876Y-165979143D01*
X11515061Y-165800000D01*
X11494876Y-165620853D01*
X11435336Y-165450699D01*
X11426660Y-165436891D01*
X11063553Y-165799999D01*
X10810000Y-165799999D01*
X10810000Y-165767508D01*
X10771803Y-165714935D01*
X10725838Y-165700000D01*
X10694162Y-165700000D01*
X10648197Y-165714935D01*
X10610000Y-165767508D01*
X10610000Y-165832492D01*
X10323953Y-165832492D01*
X10356446Y-165799999D01*
X10010000Y-165453553D01*
X9663552Y-165799999D01*
X9410000Y-165799999D01*
X9410000Y-165767508D01*
X9371803Y-165714935D01*
X9325838Y-165700000D01*
X9294162Y-165700000D01*
X9248197Y-165714935D01*
X9210000Y-165767508D01*
X9210000Y-165832492D01*
X8923954Y-165832492D01*
X8956446Y-165800000D01*
X8610000Y-165453554D01*
X8263553Y-165800000D01*
X8010000Y-165800000D01*
X8010000Y-165767508D01*
X7971803Y-165714935D01*
X7925838Y-165700000D01*
X7894162Y-165700000D01*
X7848197Y-165714935D01*
X7810000Y-165767508D01*
X7810000Y-165832492D01*
X7523954Y-165832492D01*
X7556447Y-165799999D01*
X7159625Y-165403177D01*
X7161180Y-165401621D01*
X7136356Y-165374453D01*
X7127500Y-165333526D01*
X7127500Y-165083337D01*
X7546890Y-165083337D01*
X7909999Y-165446446D01*
X8223954Y-165132492D01*
X8510000Y-165132492D01*
X8548197Y-165185065D01*
X8594162Y-165200000D01*
X8625838Y-165200000D01*
X8671803Y-165185065D01*
X8710000Y-165132492D01*
X8710000Y-165099999D01*
X8963552Y-165099999D01*
X9309998Y-165446446D01*
X9623953Y-165132492D01*
X9910000Y-165132492D01*
X9948197Y-165185065D01*
X9994162Y-165200000D01*
X10025838Y-165200000D01*
X10071803Y-165185065D01*
X10110000Y-165132492D01*
X10110000Y-165099999D01*
X10363553Y-165099999D01*
X10710000Y-165446446D01*
X11073108Y-165083337D01*
X11059306Y-165074664D01*
X10889143Y-165015123D01*
X10882876Y-165014417D01*
X10827168Y-164989113D01*
X10796972Y-164935898D01*
X10795582Y-164927119D01*
X10794876Y-164920854D01*
X10735336Y-164750699D01*
X10726660Y-164736891D01*
X10363553Y-165099999D01*
X10110000Y-165099999D01*
X10110000Y-165067508D01*
X10071803Y-165014935D01*
X10025838Y-165000000D01*
X9994162Y-165000000D01*
X9948197Y-165014935D01*
X9910000Y-165067508D01*
X9910000Y-165132492D01*
X9623953Y-165132492D01*
X9656446Y-165099999D01*
X9310000Y-164753553D01*
X8963552Y-165099999D01*
X8710000Y-165099999D01*
X8710000Y-165067508D01*
X8671803Y-165014935D01*
X8625838Y-165000000D01*
X8594162Y-165000000D01*
X8548197Y-165014935D01*
X8510000Y-165067508D01*
X8510000Y-165132492D01*
X8223954Y-165132492D01*
X8256447Y-165099999D01*
X7893338Y-164736890D01*
X7884663Y-164750697D01*
X7825123Y-164920853D01*
X7824417Y-164927124D01*
X7799113Y-164982831D01*
X7745897Y-165013027D01*
X7737124Y-165014417D01*
X7730853Y-165015123D01*
X7560697Y-165074663D01*
X7546890Y-165083337D01*
X7127500Y-165083337D01*
X7127500Y-164383337D01*
X8246890Y-164383337D01*
X8609998Y-164746445D01*
X8973107Y-164383337D01*
X9646890Y-164383337D01*
X10009999Y-164746445D01*
X10373107Y-164383337D01*
X10359306Y-164374664D01*
X10189143Y-164315123D01*
X10010000Y-164294938D01*
X9830853Y-164315123D01*
X9660697Y-164374663D01*
X9646890Y-164383337D01*
X8973107Y-164383337D01*
X8959306Y-164374664D01*
X8789143Y-164315123D01*
X8610000Y-164294938D01*
X8430853Y-164315123D01*
X8260697Y-164374663D01*
X8246890Y-164383337D01*
X7127500Y-164383337D01*
X7127500Y-162324535D01*
X7127499Y-159204431D01*
X7146406Y-159146244D01*
X7166227Y-159125897D01*
X7228282Y-159078282D01*
X7324536Y-158952841D01*
X7385044Y-158806762D01*
X7405682Y-158650000D01*
X7385044Y-158493238D01*
X7324536Y-158347159D01*
X7275895Y-158283768D01*
X7228282Y-158221717D01*
X7102841Y-158125464D01*
X6956761Y-158064955D01*
X6800000Y-158044318D01*
X6643238Y-158064955D01*
X6497158Y-158125464D01*
X6371717Y-158221717D01*
X6275465Y-158347157D01*
X6266464Y-158368888D01*
X6226726Y-158415413D01*
X6167231Y-158429696D01*
X6110704Y-158406281D01*
X6083536Y-158368888D01*
X6074536Y-158347159D01*
X6025895Y-158283768D01*
X5978282Y-158221717D01*
X5852841Y-158125464D01*
X5706761Y-158064955D01*
X5550000Y-158044318D01*
X5393238Y-158064955D01*
X5247158Y-158125464D01*
X5121717Y-158221717D01*
X5025464Y-158347158D01*
X4964955Y-158493238D01*
X4944318Y-158650000D01*
X4964955Y-158806761D01*
X5025464Y-158952841D01*
X5121716Y-159078281D01*
X5121719Y-159078283D01*
X5183766Y-159125893D01*
X5218423Y-159176316D01*
X5222500Y-159204435D01*
X5222500Y-168931382D01*
X5222123Y-168940012D01*
X5218712Y-168978984D01*
X5228839Y-169016778D01*
X5230708Y-169025207D01*
X5237502Y-169063737D01*
X5238303Y-169065124D01*
X5248192Y-169088999D01*
X5248605Y-169090543D01*
X5271045Y-169122589D01*
X5275680Y-169129864D01*
X5286070Y-169147861D01*
X5295250Y-169163761D01*
X5325223Y-169188911D01*
X5331591Y-169194745D01*
X8793504Y-172656658D01*
X8821281Y-172711175D01*
X8822500Y-172726662D01*
X8822500Y-175070336D01*
X8803593Y-175128527D01*
X8754093Y-175164491D01*
X8692907Y-175164491D01*
X8653496Y-175140340D01*
X4606496Y-171093341D01*
X4578719Y-171038824D01*
X4577500Y-171023337D01*
X4577500Y-161346292D01*
X4596407Y-161288101D01*
X4616233Y-161267750D01*
X4713282Y-161193282D01*
X4726626Y-161175892D01*
X4809536Y-161067841D01*
X4870044Y-160921762D01*
X4890682Y-160765000D01*
X4870044Y-160608238D01*
X4809536Y-160462159D01*
X4759659Y-160397158D01*
X4713282Y-160336717D01*
X4587841Y-160240464D01*
X4441761Y-160179955D01*
X4285000Y-160159318D01*
X4128238Y-160179955D01*
X3982158Y-160240464D01*
X3856717Y-160336717D01*
X3760464Y-160462158D01*
X3699955Y-160608238D01*
X3679318Y-160765000D01*
X3699955Y-160921761D01*
X3760464Y-161067841D01*
X3856717Y-161193281D01*
X3883767Y-161214038D01*
X3918422Y-161264463D01*
X3922498Y-161292579D01*
X3922499Y-171070336D01*
X3903592Y-171128527D01*
X3854092Y-171164491D01*
X3792906Y-171164491D01*
X3753495Y-171140340D01*
X3306496Y-170693341D01*
X3278719Y-170638824D01*
X3277500Y-170623337D01*
X3277500Y-164516069D01*
X3296407Y-164457878D01*
X3316236Y-164437525D01*
X3328282Y-164428282D01*
X3424536Y-164302841D01*
X3485044Y-164156762D01*
X3505682Y-164000000D01*
X3485044Y-163843238D01*
X3424536Y-163697159D01*
X3348713Y-163598344D01*
X3328282Y-163571717D01*
X3202841Y-163475464D01*
X3056761Y-163414955D01*
X2900000Y-163394318D01*
X2743238Y-163414955D01*
X2597158Y-163475464D01*
X2471718Y-163571716D01*
X2405041Y-163658612D01*
X2354616Y-163693267D01*
X2293452Y-163691665D01*
X2244910Y-163654418D01*
X2227500Y-163598347D01*
X2227500Y-162626660D01*
X2246407Y-162568469D01*
X2256491Y-162556662D01*
X2389532Y-162423620D01*
X2444047Y-162395844D01*
X2472451Y-162395472D01*
X2550000Y-162405682D01*
X2706762Y-162385044D01*
X2852841Y-162324536D01*
X2978282Y-162228282D01*
X3074536Y-162102841D01*
X3135044Y-161956762D01*
X3155682Y-161800000D01*
X3135044Y-161643238D01*
X3074536Y-161497159D01*
X3035624Y-161446448D01*
X2978282Y-161371717D01*
X2852841Y-161275464D01*
X2706761Y-161214955D01*
X2564629Y-161196244D01*
X2550000Y-161194318D01*
X2549999Y-161194318D01*
X2393238Y-161214955D01*
X2247158Y-161275464D01*
X2121717Y-161371717D01*
X2025464Y-161497158D01*
X1964955Y-161643238D01*
X1944318Y-161800000D01*
X1954526Y-161877542D01*
X1943376Y-161937702D01*
X1926378Y-161960465D01*
X1896505Y-161990339D01*
X1841989Y-162018118D01*
X1781556Y-162008547D01*
X1738291Y-161965284D01*
X1727500Y-161920337D01*
X1727500Y-161254435D01*
X1746407Y-161196244D01*
X1766231Y-161175894D01*
X1828282Y-161128282D01*
X1834844Y-161119731D01*
X1894861Y-161041514D01*
X1924536Y-161002841D01*
X1985044Y-160856762D01*
X2005682Y-160700000D01*
X1985044Y-160543238D01*
X1924536Y-160397159D01*
X1878158Y-160336718D01*
X1828282Y-160271717D01*
X1702841Y-160175464D01*
X1556761Y-160114955D01*
X1400000Y-160094318D01*
X1243238Y-160114955D01*
X1097158Y-160175464D01*
X971717Y-160271717D01*
X875464Y-160397158D01*
X814955Y-160543238D01*
X794318Y-160700000D01*
X814955Y-160856761D01*
X875464Y-161002841D01*
X971716Y-161128281D01*
X978582Y-161133549D01*
X1033766Y-161175893D01*
X1068423Y-161226316D01*
X1072500Y-161254435D01*
X1072500Y-172481382D01*
X1072123Y-172490012D01*
X1068712Y-172528984D01*
X1078839Y-172566778D01*
X1080708Y-172575207D01*
X1087502Y-172613737D01*
X1088303Y-172615124D01*
X1098192Y-172638999D01*
X1098605Y-172640543D01*
X1121045Y-172672589D01*
X1125680Y-172679864D01*
X1129023Y-172685654D01*
X1145250Y-172713761D01*
X1175223Y-172738911D01*
X1181591Y-172744744D01*
X5043505Y-176606659D01*
X5071281Y-176661174D01*
X5072500Y-176676661D01*
X5072500Y-178981382D01*
X5072123Y-178990012D01*
X5068712Y-179028984D01*
X5078839Y-179066778D01*
X5080708Y-179075207D01*
X5087502Y-179113737D01*
X5088303Y-179115124D01*
X5098192Y-179138999D01*
X5098605Y-179140543D01*
X5121045Y-179172589D01*
X5125680Y-179179864D01*
X5131846Y-179190543D01*
X5145250Y-179213761D01*
X5175223Y-179238911D01*
X5181591Y-179244745D01*
X6176377Y-180239531D01*
X6204154Y-180294048D01*
X6204526Y-180322456D01*
X6194318Y-180399999D01*
X6214955Y-180556761D01*
X6275464Y-180702841D01*
X6371717Y-180828282D01*
X6427325Y-180870951D01*
X6497159Y-180924536D01*
X6643238Y-180985044D01*
X6800000Y-181005682D01*
X6956762Y-180985044D01*
X7102841Y-180924536D01*
X7228282Y-180828282D01*
X7324536Y-180702841D01*
X7385044Y-180556762D01*
X7405682Y-180400000D01*
X7385044Y-180243238D01*
X7324536Y-180097159D01*
X7302139Y-180067970D01*
X7228282Y-179971717D01*
X7102841Y-179875464D01*
X6956761Y-179814955D01*
X6820637Y-179797034D01*
X6800000Y-179794318D01*
X6799999Y-179794318D01*
X6722456Y-179804526D01*
X6662295Y-179793375D01*
X6639531Y-179776377D01*
X5756496Y-178893341D01*
X5728719Y-178838824D01*
X5727500Y-178823337D01*
X5727500Y-176529662D01*
X5746407Y-176471471D01*
X5795907Y-176435507D01*
X5857093Y-176435507D01*
X5896504Y-176459658D01*
X6176377Y-176739531D01*
X6204154Y-176794048D01*
X6204526Y-176822456D01*
X6194318Y-176899999D01*
X6214955Y-177056761D01*
X6275464Y-177202841D01*
X6371717Y-177328282D01*
X6467971Y-177402139D01*
X6497159Y-177424536D01*
X6643238Y-177485044D01*
X6800000Y-177505682D01*
X6956762Y-177485044D01*
X7102841Y-177424536D01*
X7228282Y-177328282D01*
X7324536Y-177202841D01*
X7385044Y-177056762D01*
X7405682Y-176900000D01*
X7385044Y-176743238D01*
X7324536Y-176597159D01*
X7260948Y-176514289D01*
X7228282Y-176471717D01*
X7102841Y-176375464D01*
X6956761Y-176314955D01*
X6820636Y-176297034D01*
X6800000Y-176294318D01*
X6799999Y-176294318D01*
X6722456Y-176304526D01*
X6662295Y-176293375D01*
X6639531Y-176276377D01*
X4449757Y-174086603D01*
X2256496Y-171893341D01*
X2228719Y-171838824D01*
X2227500Y-171823337D01*
X2227500Y-168150000D01*
X2227500Y-164401651D01*
X2246406Y-164343464D01*
X2295906Y-164307500D01*
X2357092Y-164307500D01*
X2405041Y-164341388D01*
X2471717Y-164428282D01*
X2583767Y-164514260D01*
X2618423Y-164564684D01*
X2622500Y-164592802D01*
X2622500Y-170781382D01*
X2622123Y-170790012D01*
X2618712Y-170828984D01*
X2628839Y-170866778D01*
X2630708Y-170875207D01*
X2637502Y-170913737D01*
X2638303Y-170915124D01*
X2648192Y-170938999D01*
X2648605Y-170940543D01*
X2671045Y-170972589D01*
X2675680Y-170979864D01*
X2684025Y-170994318D01*
X2695250Y-171013761D01*
X2725223Y-171038911D01*
X2731591Y-171044745D01*
X7643503Y-175956658D01*
X7671280Y-176011175D01*
X7672499Y-176026662D01*
X7672500Y-186373337D01*
X7653593Y-186431528D01*
X7643504Y-186443341D01*
X6093342Y-187993504D01*
X6038825Y-188021281D01*
X6023338Y-188022500D01*
X4601910Y-188022500D01*
X4543719Y-188003593D01*
X4507755Y-187954093D01*
X4507755Y-187892907D01*
X4543719Y-187843407D01*
X4564024Y-187832036D01*
X4567239Y-187830704D01*
X4702841Y-187774536D01*
X4828282Y-187678282D01*
X4924536Y-187552841D01*
X4985044Y-187406762D01*
X5005682Y-187250000D01*
X4985044Y-187093238D01*
X4924536Y-186947159D01*
X4898908Y-186913760D01*
X4828282Y-186821717D01*
X4702841Y-186725464D01*
X4556761Y-186664955D01*
X4400000Y-186644318D01*
X4243238Y-186664955D01*
X4097158Y-186725464D01*
X3971717Y-186821717D01*
X3875464Y-186947158D01*
X3814955Y-187093238D01*
X3794318Y-187250000D01*
X3814955Y-187406761D01*
X3875464Y-187552841D01*
X3971717Y-187678282D01*
X4067970Y-187752139D01*
X4097159Y-187774536D01*
X4230575Y-187829798D01*
X4235976Y-187832036D01*
X4282502Y-187871773D01*
X4296785Y-187931268D01*
X4273370Y-187987796D01*
X4221201Y-188019765D01*
X4198090Y-188022500D01*
X1418609Y-188022500D01*
X1409982Y-188022123D01*
X1404006Y-188021600D01*
X1371015Y-188018713D01*
X1333230Y-188028838D01*
X1324801Y-188030707D01*
X1286259Y-188037503D01*
X1284871Y-188038305D01*
X1261006Y-188048190D01*
X1259457Y-188048604D01*
X1227406Y-188071047D01*
X1220125Y-188075685D01*
X1186240Y-188095249D01*
X1161092Y-188125218D01*
X1155260Y-188131583D01*
X660467Y-188626377D01*
X605950Y-188654154D01*
X577542Y-188654526D01*
X500000Y-188644318D01*
X343238Y-188664955D01*
X197158Y-188725464D01*
X159766Y-188754156D01*
X102090Y-188774579D01*
X43425Y-188757201D01*
X6178Y-188708659D01*
X500Y-188675613D01*
X500Y-185500000D01*
X3844318Y-185500000D01*
X3864955Y-185656761D01*
X3925464Y-185802841D01*
X4021717Y-185928282D01*
X4077410Y-185971016D01*
X4147159Y-186024536D01*
X4293238Y-186085044D01*
X4450000Y-186105682D01*
X4606762Y-186085044D01*
X4752841Y-186024536D01*
X4878282Y-185928282D01*
X4974536Y-185802841D01*
X5035044Y-185656762D01*
X5055682Y-185500000D01*
X5035044Y-185343238D01*
X4974536Y-185197159D01*
X4952139Y-185167970D01*
X4878282Y-185071717D01*
X4752841Y-184975464D01*
X4606761Y-184914955D01*
X4450000Y-184894318D01*
X4293238Y-184914955D01*
X4147158Y-184975464D01*
X4021717Y-185071717D01*
X3925464Y-185197158D01*
X3864955Y-185343238D01*
X3844318Y-185500000D01*
X500Y-185500000D01*
X500Y-183200000D01*
X931818Y-183200000D01*
X952455Y-183356761D01*
X1012964Y-183502841D01*
X1109217Y-183628282D01*
X1205470Y-183702139D01*
X1234659Y-183724536D01*
X1380738Y-183785044D01*
X1537500Y-183805682D01*
X1694262Y-183785044D01*
X1840341Y-183724536D01*
X1965782Y-183628282D01*
X2062036Y-183502841D01*
X2122544Y-183356762D01*
X2143182Y-183200000D01*
X2594318Y-183200000D01*
X2614955Y-183356761D01*
X2675464Y-183502841D01*
X2771717Y-183628282D01*
X2867971Y-183702139D01*
X2897159Y-183724536D01*
X3043238Y-183785044D01*
X3200000Y-183805682D01*
X3356762Y-183785044D01*
X3502841Y-183724536D01*
X3628282Y-183628282D01*
X3724536Y-183502841D01*
X3785044Y-183356762D01*
X3805682Y-183200000D01*
X3785044Y-183043238D01*
X3724536Y-182897159D01*
X3688348Y-182849998D01*
X3628282Y-182771717D01*
X3502841Y-182675464D01*
X3356761Y-182614955D01*
X3200000Y-182594318D01*
X3043238Y-182614955D01*
X2897158Y-182675464D01*
X2771717Y-182771717D01*
X2675464Y-182897158D01*
X2614955Y-183043238D01*
X2594318Y-183200000D01*
X2143182Y-183200000D01*
X2122544Y-183043238D01*
X2062036Y-182897159D01*
X2025848Y-182849998D01*
X1965782Y-182771717D01*
X1840341Y-182675464D01*
X1694261Y-182614955D01*
X1537500Y-182594318D01*
X1380738Y-182614955D01*
X1234658Y-182675464D01*
X1109217Y-182771717D01*
X1012964Y-182897158D01*
X952455Y-183043238D01*
X931818Y-183200000D01*
X500Y-183200000D01*
X500Y-144224999D01*
X5574427Y-144224999D01*
X5593479Y-144442762D01*
X5650059Y-144653921D01*
X5742440Y-144852031D01*
X5785876Y-144914067D01*
X6349209Y-144350733D01*
X6373327Y-144432870D01*
X6450328Y-144552687D01*
X6557967Y-144645956D01*
X6687523Y-144705123D01*
X6700117Y-144706933D01*
X6139430Y-145267621D01*
X6201466Y-145311058D01*
X6399577Y-145403439D01*
X6610736Y-145460019D01*
X6828500Y-145479071D01*
X7046263Y-145460019D01*
X7257422Y-145403439D01*
X7455533Y-145311058D01*
X7517568Y-145267621D01*
X6956880Y-144706933D01*
X6969477Y-144705123D01*
X7099033Y-144645956D01*
X7206672Y-144552687D01*
X7283673Y-144432870D01*
X7307790Y-144350735D01*
X7871122Y-144914067D01*
X7914559Y-144852032D01*
X8006940Y-144653921D01*
X8063520Y-144442762D01*
X8082572Y-144224999D01*
X8063520Y-144007235D01*
X8006940Y-143796076D01*
X7914559Y-143597965D01*
X7871122Y-143535929D01*
X7307789Y-144099261D01*
X7283673Y-144017128D01*
X7206672Y-143897311D01*
X7099033Y-143804042D01*
X6969477Y-143744875D01*
X6956879Y-143743063D01*
X7517568Y-143182375D01*
X7455532Y-143138939D01*
X7257422Y-143046558D01*
X7046263Y-142989978D01*
X6828499Y-142970926D01*
X6610736Y-142989978D01*
X6399577Y-143046558D01*
X6201464Y-143138940D01*
X6139430Y-143182375D01*
X6700119Y-143743064D01*
X6687523Y-143744875D01*
X6557967Y-143804042D01*
X6450328Y-143897311D01*
X6373327Y-144017128D01*
X6349209Y-144099262D01*
X5785876Y-143535929D01*
X5742441Y-143597963D01*
X5650059Y-143796076D01*
X5593479Y-144007235D01*
X5574427Y-144224999D01*
X500Y-144224999D01*
X500Y-141725001D01*
X5874103Y-141725001D01*
X5892441Y-141911192D01*
X5946752Y-142090233D01*
X6034947Y-142255233D01*
X6034949Y-142255235D01*
X6153640Y-142399861D01*
X6218587Y-142453161D01*
X6298267Y-142518553D01*
X6463267Y-142606748D01*
X6552787Y-142633903D01*
X6642307Y-142661059D01*
X6735403Y-142670227D01*
X6828499Y-142679397D01*
X6828499Y-142679396D01*
X6828500Y-142679397D01*
X7014693Y-142661059D01*
X7193732Y-142606748D01*
X7358734Y-142518552D01*
X7503360Y-142399861D01*
X7622051Y-142255235D01*
X7710247Y-142090233D01*
X7764558Y-141911194D01*
X7782896Y-141725001D01*
X7764558Y-141538808D01*
X7710247Y-141359769D01*
X7710247Y-141359768D01*
X7622052Y-141194768D01*
X7514684Y-141063940D01*
X7503360Y-141050141D01*
X7358734Y-140931450D01*
X7358735Y-140931450D01*
X7358732Y-140931448D01*
X7193732Y-140843253D01*
X7014691Y-140788942D01*
X6828499Y-140770604D01*
X6642308Y-140788942D01*
X6463267Y-140843253D01*
X6298267Y-140931448D01*
X6153640Y-141050141D01*
X6034947Y-141194768D01*
X5946752Y-141359768D01*
X5892441Y-141538809D01*
X5874103Y-141725001D01*
X500Y-141725001D01*
X500Y-135500122D01*
X7492503Y-135500122D01*
X7510841Y-135686313D01*
X7565152Y-135865354D01*
X7653347Y-136030354D01*
X7653349Y-136030356D01*
X7772040Y-136174982D01*
X7894675Y-136275625D01*
X7916667Y-136293674D01*
X8081667Y-136381869D01*
X8171187Y-136409024D01*
X8260707Y-136436180D01*
X8353803Y-136445348D01*
X8446899Y-136454518D01*
X8446899Y-136454517D01*
X8446900Y-136454518D01*
X8633093Y-136436180D01*
X8812132Y-136381869D01*
X8977134Y-136293673D01*
X9121760Y-136174982D01*
X9240451Y-136030356D01*
X9328647Y-135865354D01*
X9382958Y-135686315D01*
X9401296Y-135500122D01*
X9382958Y-135313929D01*
X9328647Y-135134890D01*
X9328647Y-135134889D01*
X9240452Y-134969889D01*
X9161852Y-134874115D01*
X9121760Y-134825262D01*
X8977134Y-134706571D01*
X8977135Y-134706571D01*
X8977132Y-134706569D01*
X8812132Y-134618374D01*
X8633091Y-134564063D01*
X8446899Y-134545725D01*
X8260708Y-134564063D01*
X8081667Y-134618374D01*
X7916667Y-134706569D01*
X7772040Y-134825262D01*
X7653347Y-134969889D01*
X7565152Y-135134889D01*
X7510841Y-135313930D01*
X7492503Y-135500122D01*
X500Y-135500122D01*
X500Y-133000000D01*
X7492503Y-133000000D01*
X7510841Y-133186191D01*
X7565152Y-133365232D01*
X7653347Y-133530232D01*
X7653349Y-133530234D01*
X7772040Y-133674860D01*
X7894675Y-133775503D01*
X7916667Y-133793552D01*
X8081667Y-133881747D01*
X8171187Y-133908902D01*
X8260707Y-133936058D01*
X8353803Y-133945227D01*
X8446899Y-133954396D01*
X8446899Y-133954395D01*
X8446900Y-133954396D01*
X8472927Y-133951832D01*
X8633089Y-133936059D01*
X8633091Y-133936058D01*
X8633093Y-133936058D01*
X8796291Y-133886552D01*
X8857462Y-133887753D01*
X8895031Y-133911285D01*
X9993504Y-135009758D01*
X10021281Y-135064275D01*
X10022500Y-135079762D01*
X10022500Y-156031382D01*
X10022123Y-156040012D01*
X10018712Y-156078984D01*
X10028839Y-156116778D01*
X10030708Y-156125207D01*
X10037502Y-156163737D01*
X10038303Y-156165124D01*
X10048192Y-156188999D01*
X10048605Y-156190543D01*
X10071045Y-156222589D01*
X10075680Y-156229864D01*
X10084501Y-156245143D01*
X10095250Y-156263761D01*
X10125223Y-156288911D01*
X10131591Y-156294745D01*
X13829268Y-159992423D01*
X13857045Y-160046940D01*
X13857417Y-160049504D01*
X13864955Y-160106761D01*
X13925464Y-160252841D01*
X14021717Y-160378282D01*
X14117970Y-160452139D01*
X14147159Y-160474536D01*
X14293238Y-160535044D01*
X14450000Y-160555682D01*
X14606762Y-160535044D01*
X14752841Y-160474536D01*
X14878282Y-160378282D01*
X14974536Y-160252841D01*
X15035044Y-160106762D01*
X15055682Y-159950000D01*
X15035044Y-159793238D01*
X14974536Y-159647159D01*
X14952139Y-159617970D01*
X14878282Y-159521717D01*
X14752841Y-159425464D01*
X14606761Y-159364955D01*
X14470637Y-159347034D01*
X14450000Y-159344318D01*
X14449999Y-159344318D01*
X14293238Y-159364955D01*
X14237588Y-159388006D01*
X14176592Y-159392805D01*
X14129700Y-159366545D01*
X10706496Y-155943341D01*
X10678719Y-155888824D01*
X10677500Y-155873337D01*
X10677500Y-155429662D01*
X10696407Y-155371471D01*
X10745907Y-155335507D01*
X10807093Y-155335507D01*
X10846503Y-155359657D01*
X12743607Y-157256762D01*
X14355264Y-158868419D01*
X14361088Y-158874775D01*
X14386240Y-158904750D01*
X14386241Y-158904751D01*
X14420118Y-158924309D01*
X14427403Y-158928950D01*
X14459454Y-158951392D01*
X14459457Y-158951394D01*
X14460999Y-158951807D01*
X14484871Y-158961694D01*
X14486261Y-158962497D01*
X14524803Y-158969292D01*
X14533211Y-158971155D01*
X14571016Y-158981286D01*
X14571016Y-158981285D01*
X14571017Y-158981286D01*
X14591654Y-158979480D01*
X14609981Y-158977876D01*
X14618609Y-158977500D01*
X15145563Y-158977500D01*
X15203754Y-158996407D01*
X15224105Y-159016232D01*
X15271718Y-159078282D01*
X15397159Y-159174536D01*
X15543238Y-159235044D01*
X15700000Y-159255682D01*
X15856762Y-159235044D01*
X16002841Y-159174536D01*
X16128282Y-159078282D01*
X16224536Y-158952841D01*
X16285044Y-158806762D01*
X16305682Y-158650000D01*
X16285044Y-158493238D01*
X16224536Y-158347159D01*
X16175895Y-158283768D01*
X16128282Y-158221717D01*
X16002841Y-158125464D01*
X15856761Y-158064955D01*
X15700000Y-158044318D01*
X15543238Y-158064955D01*
X15397158Y-158125464D01*
X15271719Y-158221716D01*
X15224105Y-158283768D01*
X15173680Y-158318423D01*
X15145563Y-158322500D01*
X14776663Y-158322500D01*
X14718472Y-158303593D01*
X14706659Y-158293504D01*
X11256496Y-154843341D01*
X11228719Y-154788824D01*
X11227500Y-154773337D01*
X11227500Y-154419746D01*
X11599500Y-154419746D01*
X11611133Y-154478231D01*
X11655447Y-154544552D01*
X11663601Y-154550000D01*
X11721769Y-154588867D01*
X11780252Y-154600500D01*
X13422388Y-154600500D01*
X13480579Y-154619407D01*
X13492392Y-154629496D01*
X25270504Y-166407607D01*
X25298281Y-166462124D01*
X25299500Y-166477611D01*
X25299500Y-171669136D01*
X25298878Y-171680219D01*
X25294730Y-171717037D01*
X25305444Y-171773664D01*
X25306064Y-171777312D01*
X25315168Y-171837710D01*
X25318363Y-171847420D01*
X25346905Y-171901424D01*
X25348574Y-171904728D01*
X25375075Y-171959757D01*
X25380993Y-171968097D01*
X25424199Y-172011304D01*
X25426768Y-172013971D01*
X25468299Y-172058731D01*
X25482601Y-172069705D01*
X27470504Y-174057607D01*
X27498281Y-174112124D01*
X27499500Y-174127611D01*
X27499500Y-174425613D01*
X27480593Y-174483804D01*
X27431093Y-174519768D01*
X27369907Y-174519768D01*
X27340234Y-174504156D01*
X27302841Y-174475464D01*
X27156761Y-174414955D01*
X27000000Y-174394318D01*
X26843238Y-174414955D01*
X26697158Y-174475464D01*
X26585265Y-174561321D01*
X26527589Y-174581744D01*
X26468924Y-174564366D01*
X26464732Y-174561320D01*
X26352841Y-174475464D01*
X26206761Y-174414955D01*
X26070636Y-174397034D01*
X26050000Y-174394318D01*
X26049999Y-174394318D01*
X25893238Y-174414955D01*
X25747158Y-174475464D01*
X25621717Y-174571717D01*
X25525464Y-174697158D01*
X25464955Y-174843238D01*
X25444318Y-175000000D01*
X25464955Y-175156761D01*
X25525464Y-175302841D01*
X25621717Y-175428282D01*
X25686181Y-175477746D01*
X25747159Y-175524536D01*
X25893238Y-175585044D01*
X26050000Y-175605682D01*
X26206762Y-175585044D01*
X26352841Y-175524536D01*
X26464735Y-175438676D01*
X26522407Y-175418254D01*
X26581073Y-175435631D01*
X26585266Y-175438678D01*
X26697159Y-175524536D01*
X26843238Y-175585044D01*
X27000000Y-175605682D01*
X27156762Y-175585044D01*
X27302841Y-175524536D01*
X27410198Y-175442157D01*
X27467871Y-175421735D01*
X27526537Y-175439112D01*
X27559658Y-175477746D01*
X27575072Y-175509752D01*
X27580993Y-175518097D01*
X27624199Y-175561304D01*
X27626768Y-175563971D01*
X27668299Y-175608731D01*
X27682601Y-175619705D01*
X30309628Y-178246731D01*
X30317025Y-178255009D01*
X30340121Y-178283971D01*
X30387744Y-178316440D01*
X30390762Y-178318581D01*
X30396296Y-178322665D01*
X30437118Y-178352793D01*
X30437120Y-178352793D01*
X30439909Y-178354852D01*
X30449019Y-178359451D01*
X30452325Y-178360470D01*
X30452327Y-178360472D01*
X30507425Y-178377466D01*
X30510925Y-178378618D01*
X30565301Y-178397646D01*
X30565302Y-178397646D01*
X30568569Y-178398789D01*
X30578637Y-178400500D01*
X30582098Y-178400500D01*
X30639700Y-178400500D01*
X30643402Y-178400569D01*
X30648465Y-178400758D01*
X30701010Y-178402725D01*
X30701010Y-178402724D01*
X30704464Y-178402854D01*
X30722348Y-178400500D01*
X31875614Y-178400500D01*
X31933805Y-178419407D01*
X31969769Y-178468907D01*
X31969769Y-178530093D01*
X31954156Y-178559767D01*
X31925464Y-178597158D01*
X31864955Y-178743238D01*
X31844318Y-178900000D01*
X31864955Y-179056761D01*
X31925464Y-179202841D01*
X32021717Y-179328282D01*
X32117971Y-179402139D01*
X32147159Y-179424536D01*
X32293238Y-179485044D01*
X32450000Y-179505682D01*
X32606762Y-179485044D01*
X32752841Y-179424536D01*
X32878282Y-179328282D01*
X32974536Y-179202841D01*
X33035044Y-179056762D01*
X33055682Y-178900000D01*
X33035044Y-178743238D01*
X32974536Y-178597159D01*
X32920958Y-178527334D01*
X32900534Y-178469658D01*
X32900500Y-178467067D01*
X32900500Y-178382932D01*
X32919407Y-178324741D01*
X32920958Y-178322665D01*
X32928714Y-178312555D01*
X32974536Y-178252841D01*
X33035044Y-178106762D01*
X33055682Y-177950000D01*
X33035044Y-177793238D01*
X32974536Y-177647159D01*
X32952139Y-177617970D01*
X32878282Y-177521717D01*
X32752841Y-177425464D01*
X32606761Y-177364955D01*
X32450000Y-177344318D01*
X32293238Y-177364955D01*
X32147158Y-177425464D01*
X32100703Y-177461110D01*
X32077334Y-177479042D01*
X32019660Y-177499466D01*
X32017068Y-177499500D01*
X30877611Y-177499500D01*
X30819420Y-177480593D01*
X30807607Y-177470504D01*
X28429495Y-175092392D01*
X28401718Y-175037875D01*
X28400499Y-175022400D01*
X28400499Y-173930857D01*
X28401122Y-173919771D01*
X28405270Y-173882965D01*
X28394552Y-173826319D01*
X28393934Y-173822678D01*
X28385348Y-173765713D01*
X28385346Y-173765710D01*
X28384830Y-173762282D01*
X28381640Y-173752585D01*
X28353077Y-173698544D01*
X28351427Y-173695276D01*
X28326425Y-173643358D01*
X28326423Y-173643356D01*
X28324922Y-173640238D01*
X28319008Y-173631904D01*
X28275799Y-173588694D01*
X28273231Y-173586028D01*
X28231704Y-173541272D01*
X28217399Y-173530295D01*
X26287104Y-171600000D01*
X30594318Y-171600000D01*
X30614955Y-171756761D01*
X30675464Y-171902841D01*
X30771717Y-172028282D01*
X30826242Y-172070120D01*
X30897159Y-172124536D01*
X31043238Y-172185044D01*
X31200000Y-172205682D01*
X31356762Y-172185044D01*
X31502841Y-172124536D01*
X31628282Y-172028282D01*
X31724536Y-171902841D01*
X31785044Y-171756762D01*
X31805682Y-171600000D01*
X31785044Y-171443238D01*
X31724536Y-171297159D01*
X31672224Y-171228984D01*
X31628282Y-171171717D01*
X31502841Y-171075464D01*
X31356761Y-171014955D01*
X31200000Y-170994318D01*
X31043238Y-171014955D01*
X30897158Y-171075464D01*
X30771717Y-171171717D01*
X30675464Y-171297158D01*
X30614955Y-171443238D01*
X30594318Y-171600000D01*
X26287104Y-171600000D01*
X26229496Y-171542392D01*
X26201719Y-171487875D01*
X26200500Y-171472388D01*
X26200500Y-168150000D01*
X30594318Y-168150000D01*
X30614955Y-168306761D01*
X30675464Y-168452841D01*
X30771717Y-168578282D01*
X30833040Y-168625336D01*
X30897159Y-168674536D01*
X31043238Y-168735044D01*
X31200000Y-168755682D01*
X31356762Y-168735044D01*
X31502841Y-168674536D01*
X31589736Y-168607859D01*
X31647407Y-168587437D01*
X31706073Y-168604814D01*
X31710266Y-168607861D01*
X31733039Y-168625335D01*
X31797159Y-168674536D01*
X31943238Y-168735044D01*
X32100000Y-168755682D01*
X32256762Y-168735044D01*
X32402841Y-168674536D01*
X32528282Y-168578282D01*
X32624536Y-168452841D01*
X32685044Y-168306762D01*
X32705682Y-168150000D01*
X32685044Y-167993238D01*
X32624536Y-167847159D01*
X32550000Y-167750021D01*
X32528282Y-167721717D01*
X32402841Y-167625464D01*
X32256761Y-167564955D01*
X32100000Y-167544318D01*
X31943238Y-167564955D01*
X31797158Y-167625464D01*
X31710267Y-167692138D01*
X31652591Y-167712562D01*
X31593925Y-167695184D01*
X31589733Y-167692138D01*
X31502841Y-167625464D01*
X31356761Y-167564955D01*
X31200000Y-167544318D01*
X31043238Y-167564955D01*
X30897158Y-167625464D01*
X30771717Y-167721717D01*
X30675464Y-167847158D01*
X30614955Y-167993238D01*
X30594318Y-168150000D01*
X26200500Y-168150000D01*
X26200500Y-166280862D01*
X26201122Y-166269779D01*
X26201495Y-166266471D01*
X26205270Y-166232965D01*
X26194553Y-166176327D01*
X26193933Y-166172675D01*
X26184831Y-166112284D01*
X26181644Y-166102596D01*
X26180023Y-166099529D01*
X26180023Y-166099528D01*
X26153077Y-166048546D01*
X26151436Y-166045296D01*
X26126425Y-165993358D01*
X26126423Y-165993356D01*
X26124921Y-165990236D01*
X26119015Y-165981912D01*
X26075811Y-165938707D01*
X26073242Y-165936040D01*
X26031706Y-165891273D01*
X26017396Y-165880293D01*
X23567370Y-163430267D01*
X28198284Y-163430267D01*
X28357049Y-163485822D01*
X28524999Y-163504745D01*
X28692950Y-163485822D01*
X28851713Y-163430267D01*
X28524998Y-163103552D01*
X28198284Y-163430267D01*
X23567370Y-163430267D01*
X22617370Y-162480267D01*
X27623284Y-162480267D01*
X27719398Y-162513899D01*
X27768078Y-162550964D01*
X27785675Y-162609565D01*
X27785078Y-162618426D01*
X27770254Y-162749999D01*
X27789177Y-162917950D01*
X27844731Y-163076713D01*
X28138952Y-162782492D01*
X28425000Y-162782492D01*
X28463197Y-162835065D01*
X28509162Y-162850000D01*
X28540838Y-162850000D01*
X28586803Y-162835065D01*
X28625000Y-162782492D01*
X28625000Y-162717508D01*
X28586803Y-162664935D01*
X28540838Y-162650000D01*
X28509162Y-162650000D01*
X28463197Y-162664935D01*
X28425000Y-162717508D01*
X28425000Y-162782492D01*
X28138952Y-162782492D01*
X28454995Y-162466450D01*
X28509512Y-162438673D01*
X28569944Y-162448244D01*
X28595003Y-162466450D01*
X29205267Y-163076713D01*
X29260822Y-162917950D01*
X29279745Y-162750000D01*
X29264921Y-162618427D01*
X29277195Y-162558485D01*
X29322357Y-162517206D01*
X29330601Y-162513899D01*
X29426713Y-162480267D01*
X28816450Y-161870004D01*
X28797337Y-161832492D01*
X29000000Y-161832492D01*
X29038197Y-161885065D01*
X29084162Y-161900000D01*
X29115838Y-161900000D01*
X29161803Y-161885065D01*
X29200000Y-161832492D01*
X29200000Y-161799999D01*
X29453553Y-161799999D01*
X29780267Y-162126713D01*
X29835822Y-161967950D01*
X29854745Y-161800000D01*
X29835822Y-161632049D01*
X29780267Y-161473285D01*
X29780267Y-161473284D01*
X29453553Y-161799999D01*
X29200000Y-161799999D01*
X29200000Y-161767508D01*
X29161803Y-161714935D01*
X29115838Y-161700000D01*
X29084162Y-161700000D01*
X29038197Y-161714935D01*
X29000000Y-161767508D01*
X29000000Y-161832492D01*
X28797337Y-161832492D01*
X28788673Y-161815487D01*
X28798244Y-161755055D01*
X28816451Y-161729996D01*
X29100001Y-161446447D01*
X29426714Y-161119732D01*
X29426714Y-161119731D01*
X29330601Y-161086100D01*
X29281921Y-161049035D01*
X29264324Y-160990434D01*
X29264921Y-160981572D01*
X29279745Y-160849999D01*
X29260822Y-160682049D01*
X29205267Y-160523285D01*
X28595003Y-161133549D01*
X28540486Y-161161326D01*
X28480054Y-161151755D01*
X28454995Y-161133549D01*
X28203938Y-160882492D01*
X28425000Y-160882492D01*
X28463197Y-160935065D01*
X28509162Y-160950000D01*
X28540838Y-160950000D01*
X28586803Y-160935065D01*
X28625000Y-160882492D01*
X28625000Y-160817508D01*
X28586803Y-160764935D01*
X28540838Y-160750000D01*
X28509162Y-160750000D01*
X28463197Y-160764935D01*
X28425000Y-160817508D01*
X28425000Y-160882492D01*
X28203938Y-160882492D01*
X27844731Y-160523285D01*
X27789177Y-160682049D01*
X27770254Y-160850000D01*
X27785078Y-160981573D01*
X27772804Y-161041514D01*
X27727641Y-161082794D01*
X27719398Y-161086100D01*
X27623285Y-161119731D01*
X27623285Y-161119732D01*
X27950000Y-161446448D01*
X28233548Y-161729995D01*
X28261325Y-161784512D01*
X28251754Y-161844944D01*
X28233548Y-161870002D01*
X27623284Y-162480266D01*
X27623284Y-162480267D01*
X22617370Y-162480267D01*
X21937103Y-161800000D01*
X27195254Y-161800000D01*
X27214177Y-161967950D01*
X27269731Y-162126714D01*
X27563954Y-161832492D01*
X27850000Y-161832492D01*
X27888197Y-161885065D01*
X27934162Y-161900000D01*
X27965838Y-161900000D01*
X28011803Y-161885065D01*
X28050000Y-161832492D01*
X28050000Y-161767508D01*
X28011803Y-161714935D01*
X27965838Y-161700000D01*
X27934162Y-161700000D01*
X27888197Y-161714935D01*
X27850000Y-161767508D01*
X27850000Y-161832492D01*
X27563954Y-161832492D01*
X27596446Y-161800000D01*
X27269731Y-161473285D01*
X27214177Y-161632049D01*
X27195254Y-161800000D01*
X21937103Y-161800000D01*
X20306834Y-160169731D01*
X28198285Y-160169731D01*
X28525000Y-160496446D01*
X28851714Y-160169731D01*
X28692950Y-160114177D01*
X28524999Y-160095254D01*
X28357049Y-160114177D01*
X28198285Y-160169731D01*
X20306834Y-160169731D01*
X15441394Y-155304291D01*
X15413617Y-155249774D01*
X15423188Y-155189342D01*
X15466453Y-155146077D01*
X15498474Y-155136135D01*
X15506762Y-155135044D01*
X15652841Y-155074536D01*
X15738444Y-155008850D01*
X15778280Y-154978284D01*
X15778282Y-154978282D01*
X15796457Y-154954595D01*
X15846879Y-154919940D01*
X15908043Y-154921540D01*
X15953541Y-154954594D01*
X15971718Y-154978283D01*
X16057778Y-155044318D01*
X16097159Y-155074536D01*
X16243238Y-155135044D01*
X16400000Y-155155682D01*
X16556762Y-155135044D01*
X16702841Y-155074536D01*
X16828282Y-154978282D01*
X16924536Y-154852841D01*
X16985044Y-154706762D01*
X17005682Y-154550000D01*
X16985044Y-154393238D01*
X16924536Y-154247159D01*
X16828282Y-154121718D01*
X16828281Y-154121717D01*
X16764232Y-154072569D01*
X16729576Y-154022144D01*
X16725500Y-153994028D01*
X16725500Y-153600000D01*
X20044318Y-153600000D01*
X20064955Y-153756761D01*
X20125464Y-153902841D01*
X20221717Y-154028282D01*
X20240703Y-154042850D01*
X20347159Y-154124536D01*
X20493238Y-154185044D01*
X20650000Y-154205682D01*
X20806762Y-154185044D01*
X20952841Y-154124536D01*
X21078282Y-154028282D01*
X21174536Y-153902841D01*
X21235044Y-153756762D01*
X21255682Y-153600000D01*
X21235044Y-153443238D01*
X21174536Y-153297159D01*
X21152139Y-153267970D01*
X21078282Y-153171717D01*
X20952841Y-153075464D01*
X20806761Y-153014955D01*
X20650000Y-152994318D01*
X20493238Y-153014955D01*
X20347158Y-153075464D01*
X20221717Y-153171717D01*
X20125464Y-153297158D01*
X20064955Y-153443238D01*
X20044318Y-153600000D01*
X16725500Y-153600000D01*
X16725500Y-149225834D01*
X16744407Y-149167643D01*
X16754496Y-149155830D01*
X23910328Y-141999998D01*
X26598603Y-141999998D01*
X26616941Y-142186189D01*
X26671252Y-142365230D01*
X26759447Y-142530230D01*
X26759449Y-142530232D01*
X26878140Y-142674858D01*
X26914028Y-142704310D01*
X27022767Y-142793550D01*
X27187767Y-142881745D01*
X27277287Y-142908900D01*
X27366807Y-142936056D01*
X27553000Y-142954394D01*
X27739193Y-142936056D01*
X27918232Y-142881745D01*
X28083234Y-142793549D01*
X28227860Y-142674858D01*
X28346551Y-142530232D01*
X28434747Y-142365230D01*
X28489058Y-142186191D01*
X28507396Y-141999998D01*
X28489058Y-141813805D01*
X28434747Y-141634766D01*
X28434747Y-141634765D01*
X28346552Y-141469765D01*
X28328503Y-141447773D01*
X28227860Y-141325138D01*
X28083234Y-141206447D01*
X28083235Y-141206447D01*
X28083232Y-141206445D01*
X27918232Y-141118250D01*
X27739191Y-141063939D01*
X27553000Y-141045601D01*
X27366808Y-141063939D01*
X27187767Y-141118250D01*
X27022767Y-141206445D01*
X26878140Y-141325138D01*
X26759447Y-141469765D01*
X26671252Y-141634765D01*
X26616941Y-141813806D01*
X26598603Y-141999998D01*
X23910328Y-141999998D01*
X26055830Y-139854496D01*
X26110347Y-139826719D01*
X26125834Y-139825500D01*
X26590678Y-139825500D01*
X26648869Y-139844407D01*
X26677988Y-139877832D01*
X26759447Y-140030233D01*
X26820201Y-140104261D01*
X26878140Y-140174860D01*
X27000775Y-140275503D01*
X27022767Y-140293552D01*
X27187767Y-140381747D01*
X27277287Y-140408902D01*
X27366807Y-140436058D01*
X27553000Y-140454396D01*
X27739193Y-140436058D01*
X27918232Y-140381747D01*
X28083234Y-140293551D01*
X28227860Y-140174860D01*
X28346551Y-140030234D01*
X28434747Y-139865232D01*
X28489058Y-139686193D01*
X28507396Y-139500000D01*
X28489058Y-139313807D01*
X28454551Y-139200053D01*
X28434747Y-139134767D01*
X28346552Y-138969767D01*
X28328503Y-138947775D01*
X28227860Y-138825140D01*
X28083234Y-138706449D01*
X28083235Y-138706449D01*
X28083232Y-138706447D01*
X27918232Y-138618252D01*
X27739191Y-138563941D01*
X27553000Y-138545603D01*
X27366808Y-138563941D01*
X27187767Y-138618252D01*
X27022767Y-138706447D01*
X26878140Y-138825140D01*
X26759447Y-138969766D01*
X26677988Y-139122168D01*
X26633883Y-139164575D01*
X26590678Y-139174500D01*
X25968535Y-139174500D01*
X25959907Y-139174123D01*
X25956387Y-139173815D01*
X25921193Y-139170735D01*
X25883651Y-139180795D01*
X25875222Y-139182664D01*
X25836954Y-139189412D01*
X25835645Y-139190168D01*
X25811780Y-139200053D01*
X25810318Y-139200444D01*
X25778484Y-139222734D01*
X25771204Y-139227371D01*
X25737544Y-139246805D01*
X25712569Y-139276569D01*
X25706736Y-139282936D01*
X16182940Y-148806732D01*
X16176574Y-148812565D01*
X16146804Y-148837545D01*
X16127371Y-148871204D01*
X16122734Y-148878484D01*
X16100444Y-148910318D01*
X16100053Y-148911780D01*
X16090168Y-148935645D01*
X16089410Y-148936957D01*
X16082662Y-148975223D01*
X16080795Y-148983649D01*
X16072408Y-149014955D01*
X16070736Y-149021194D01*
X16074122Y-149059902D01*
X16074499Y-149068529D01*
X16074499Y-153994028D01*
X16055592Y-154052219D01*
X16035768Y-154072569D01*
X15971718Y-154121717D01*
X15953542Y-154145406D01*
X15903117Y-154180061D01*
X15841953Y-154178459D01*
X15796458Y-154145406D01*
X15778282Y-154121718D01*
X15766456Y-154112644D01*
X15714232Y-154072569D01*
X15679576Y-154022144D01*
X15675500Y-153994028D01*
X15675500Y-146175833D01*
X15694407Y-146117642D01*
X15704490Y-146105835D01*
X17767066Y-144043258D01*
X17773410Y-144037444D01*
X17803194Y-144012455D01*
X17822632Y-143978785D01*
X17827254Y-143971529D01*
X17849554Y-143939684D01*
X17849942Y-143938232D01*
X17859838Y-143914343D01*
X17860588Y-143913045D01*
X17867335Y-143874777D01*
X17869204Y-143866348D01*
X17879264Y-143828806D01*
X17875877Y-143790091D01*
X17875500Y-143781462D01*
X17875500Y-142002016D01*
X17894407Y-141943825D01*
X17943907Y-141907861D01*
X18005093Y-141907861D01*
X18054593Y-141943825D01*
X18071237Y-141980970D01*
X18095006Y-142090233D01*
X18115632Y-142185049D01*
X18215632Y-142453160D01*
X18352771Y-142704310D01*
X18352774Y-142704315D01*
X18524261Y-142933395D01*
X18726605Y-143135739D01*
X18955685Y-143307226D01*
X19206839Y-143444367D01*
X19474954Y-143544369D01*
X19754572Y-143605196D01*
X20040000Y-143625610D01*
X20325428Y-143605196D01*
X20605046Y-143544369D01*
X20873161Y-143444367D01*
X21124315Y-143307226D01*
X21353395Y-143135739D01*
X21555739Y-142933395D01*
X21727226Y-142704315D01*
X21864367Y-142453161D01*
X21964369Y-142185046D01*
X22025196Y-141905428D01*
X22045610Y-141620000D01*
X22025196Y-141334572D01*
X21964369Y-141054954D01*
X21864367Y-140786839D01*
X21727226Y-140535685D01*
X21555739Y-140306605D01*
X21353395Y-140104261D01*
X21124315Y-139932774D01*
X21000622Y-139865232D01*
X20873160Y-139795632D01*
X20605049Y-139695632D01*
X20605048Y-139695631D01*
X20605046Y-139695631D01*
X20465237Y-139665217D01*
X20325425Y-139634803D01*
X20040000Y-139614390D01*
X19754574Y-139634803D01*
X19527211Y-139684263D01*
X19474954Y-139695631D01*
X19474953Y-139695631D01*
X19474950Y-139695632D01*
X19206839Y-139795632D01*
X18955689Y-139932771D01*
X18726605Y-140104261D01*
X18524261Y-140306605D01*
X18352771Y-140535689D01*
X18215632Y-140786839D01*
X18126260Y-141026455D01*
X18115633Y-141054950D01*
X18115630Y-141054957D01*
X18071237Y-141259027D01*
X18040393Y-141311869D01*
X17984379Y-141336489D01*
X17924592Y-141323483D01*
X17883868Y-141277819D01*
X17875500Y-141237983D01*
X17875500Y-139625834D01*
X17894407Y-139567643D01*
X17904496Y-139555830D01*
X24185328Y-133274999D01*
X26598603Y-133274999D01*
X26616941Y-133461190D01*
X26671252Y-133640231D01*
X26759447Y-133805231D01*
X26759449Y-133805233D01*
X26878140Y-133949859D01*
X27000775Y-134050502D01*
X27022767Y-134068551D01*
X27187767Y-134156746D01*
X27277287Y-134183901D01*
X27366807Y-134211057D01*
X27553000Y-134229395D01*
X27739193Y-134211057D01*
X27918232Y-134156746D01*
X28083234Y-134068550D01*
X28227860Y-133949859D01*
X28346551Y-133805233D01*
X28434747Y-133640231D01*
X28489058Y-133461192D01*
X28507396Y-133274999D01*
X28489058Y-133088806D01*
X28461902Y-132999286D01*
X28434747Y-132909766D01*
X28346552Y-132744766D01*
X28328503Y-132722774D01*
X28227860Y-132600139D01*
X28083234Y-132481448D01*
X28083235Y-132481448D01*
X28083232Y-132481446D01*
X27918232Y-132393251D01*
X27739191Y-132338940D01*
X27553000Y-132320602D01*
X27366808Y-132338940D01*
X27187767Y-132393251D01*
X27022767Y-132481446D01*
X26878140Y-132600139D01*
X26759447Y-132744766D01*
X26671252Y-132909766D01*
X26616941Y-133088807D01*
X26598603Y-133274999D01*
X24185328Y-133274999D01*
X26330830Y-131129497D01*
X26385347Y-131101720D01*
X26400834Y-131100501D01*
X26590678Y-131100501D01*
X26648869Y-131119408D01*
X26677988Y-131152833D01*
X26759447Y-131305234D01*
X26808592Y-131365116D01*
X26878140Y-131449861D01*
X27000775Y-131550504D01*
X27022767Y-131568553D01*
X27187767Y-131656748D01*
X27277287Y-131683903D01*
X27366807Y-131711059D01*
X27553000Y-131729397D01*
X27739193Y-131711059D01*
X27918232Y-131656748D01*
X28083234Y-131568552D01*
X28227860Y-131449861D01*
X28346551Y-131305235D01*
X28434747Y-131140233D01*
X28489058Y-130961194D01*
X28507396Y-130775001D01*
X28489058Y-130588808D01*
X28454551Y-130475054D01*
X28434747Y-130409768D01*
X28346552Y-130244768D01*
X28328503Y-130222776D01*
X28227860Y-130100141D01*
X28083234Y-129981450D01*
X28083235Y-129981450D01*
X28083232Y-129981448D01*
X27918232Y-129893253D01*
X27739191Y-129838942D01*
X27553000Y-129820604D01*
X27366808Y-129838942D01*
X27187767Y-129893253D01*
X27022767Y-129981448D01*
X26878140Y-130100141D01*
X26759447Y-130244767D01*
X26677988Y-130397169D01*
X26633883Y-130439576D01*
X26590678Y-130449501D01*
X26243525Y-130449501D01*
X26234897Y-130449124D01*
X26232970Y-130448955D01*
X26196192Y-130445737D01*
X26158655Y-130455795D01*
X26150226Y-130457664D01*
X26111953Y-130464413D01*
X26110644Y-130465169D01*
X26086779Y-130475054D01*
X26085317Y-130475445D01*
X26053483Y-130497735D01*
X26046204Y-130502372D01*
X26012542Y-130521807D01*
X25987572Y-130551565D01*
X25981740Y-130557931D01*
X17332940Y-139206732D01*
X17326574Y-139212565D01*
X17296804Y-139237545D01*
X17277371Y-139271204D01*
X17272734Y-139278484D01*
X17250444Y-139310318D01*
X17250053Y-139311780D01*
X17240168Y-139335645D01*
X17239410Y-139336956D01*
X17232662Y-139375223D01*
X17230794Y-139383649D01*
X17220735Y-139421191D01*
X17224123Y-139459903D01*
X17224500Y-139468533D01*
X17224500Y-143624165D01*
X17205593Y-143682356D01*
X17195504Y-143694169D01*
X15132940Y-145756732D01*
X15126574Y-145762565D01*
X15096804Y-145787545D01*
X15077371Y-145821204D01*
X15072734Y-145828484D01*
X15050444Y-145860318D01*
X15050053Y-145861780D01*
X15040168Y-145885645D01*
X15039410Y-145886956D01*
X15032662Y-145925223D01*
X15030794Y-145933649D01*
X15020735Y-145971191D01*
X15024123Y-146009903D01*
X15024500Y-146018533D01*
X15024500Y-153994028D01*
X15005593Y-154052219D01*
X14985768Y-154072569D01*
X14921718Y-154121717D01*
X14825464Y-154247158D01*
X14764955Y-154393238D01*
X14763865Y-154401523D01*
X14737524Y-154456748D01*
X14683753Y-154485943D01*
X14623091Y-154477957D01*
X14595708Y-154458605D01*
X14029496Y-153892393D01*
X14001719Y-153837876D01*
X14000500Y-153822389D01*
X14000500Y-152380253D01*
X14000500Y-152380252D01*
X13988867Y-152321769D01*
X13974162Y-152299762D01*
X13944552Y-152255447D01*
X13878231Y-152211133D01*
X13819748Y-152199500D01*
X11780252Y-152199500D01*
X11751010Y-152205316D01*
X11721768Y-152211133D01*
X11655447Y-152255447D01*
X11611133Y-152321768D01*
X11599500Y-152380253D01*
X11599500Y-154419746D01*
X11227500Y-154419746D01*
X11227500Y-141620000D01*
X12954390Y-141620000D01*
X12974803Y-141905425D01*
X13035632Y-142185049D01*
X13135632Y-142453160D01*
X13272771Y-142704310D01*
X13272774Y-142704315D01*
X13444261Y-142933395D01*
X13646605Y-143135739D01*
X13875685Y-143307226D01*
X14126839Y-143444367D01*
X14394954Y-143544369D01*
X14674572Y-143605196D01*
X14960000Y-143625610D01*
X15245428Y-143605196D01*
X15525046Y-143544369D01*
X15793161Y-143444367D01*
X16044315Y-143307226D01*
X16273395Y-143135739D01*
X16475739Y-142933395D01*
X16647226Y-142704315D01*
X16784367Y-142453161D01*
X16884369Y-142185046D01*
X16945196Y-141905428D01*
X16965610Y-141620000D01*
X16945196Y-141334572D01*
X16884369Y-141054954D01*
X16784367Y-140786839D01*
X16647226Y-140535685D01*
X16475739Y-140306605D01*
X16273395Y-140104261D01*
X16044315Y-139932774D01*
X15920622Y-139865232D01*
X15793160Y-139795632D01*
X15525049Y-139695632D01*
X15525048Y-139695631D01*
X15525046Y-139695631D01*
X15385237Y-139665217D01*
X15245425Y-139634803D01*
X14960000Y-139614390D01*
X14674574Y-139634803D01*
X14447211Y-139684263D01*
X14394954Y-139695631D01*
X14394953Y-139695631D01*
X14394950Y-139695632D01*
X14126839Y-139795632D01*
X13875689Y-139932771D01*
X13646605Y-140104261D01*
X13444261Y-140306605D01*
X13272771Y-140535689D01*
X13135632Y-140786839D01*
X13039119Y-141045601D01*
X13035631Y-141054954D01*
X13033676Y-141063940D01*
X12974803Y-141334574D01*
X12954390Y-141620000D01*
X11227500Y-141620000D01*
X11227500Y-137026662D01*
X11246407Y-136968471D01*
X11256496Y-136956658D01*
X13983759Y-134229395D01*
X14213154Y-134000000D01*
X15494390Y-134000000D01*
X15514803Y-134285425D01*
X15514804Y-134285428D01*
X15575417Y-134564064D01*
X15575632Y-134565049D01*
X15675632Y-134833160D01*
X15801831Y-135064275D01*
X15812774Y-135084315D01*
X15984261Y-135313395D01*
X16186605Y-135515739D01*
X16415685Y-135687226D01*
X16666839Y-135824367D01*
X16934954Y-135924369D01*
X17214572Y-135985196D01*
X17500000Y-136005610D01*
X17785428Y-135985196D01*
X18065046Y-135924369D01*
X18333161Y-135824367D01*
X18584315Y-135687226D01*
X18813395Y-135515739D01*
X19015739Y-135313395D01*
X19187226Y-135084315D01*
X19324367Y-134833161D01*
X19424369Y-134565046D01*
X19485196Y-134285428D01*
X19505610Y-134000000D01*
X19485196Y-133714572D01*
X19424369Y-133434954D01*
X19324367Y-133166839D01*
X19187226Y-132915685D01*
X19015739Y-132686605D01*
X18813395Y-132484261D01*
X18584315Y-132312774D01*
X18584310Y-132312771D01*
X18333160Y-132175632D01*
X18065049Y-132075632D01*
X18065048Y-132075631D01*
X18065046Y-132075631D01*
X17925236Y-132045217D01*
X17785425Y-132014803D01*
X17500000Y-131994390D01*
X17214574Y-132014803D01*
X16988692Y-132063941D01*
X16934954Y-132075631D01*
X16934953Y-132075631D01*
X16934950Y-132075632D01*
X16666839Y-132175632D01*
X16415689Y-132312771D01*
X16186605Y-132484261D01*
X15984261Y-132686605D01*
X15812771Y-132915689D01*
X15675632Y-133166839D01*
X15575632Y-133434950D01*
X15514803Y-133714574D01*
X15494390Y-134000000D01*
X14213154Y-134000000D01*
X16718423Y-131494730D01*
X16724781Y-131488906D01*
X16754750Y-131463760D01*
X16774315Y-131429871D01*
X16778943Y-131422605D01*
X16801394Y-131390543D01*
X16801806Y-131389004D01*
X16811698Y-131365121D01*
X16812497Y-131363739D01*
X16819290Y-131325211D01*
X16821157Y-131316785D01*
X16831287Y-131278984D01*
X16827876Y-131240011D01*
X16827500Y-131231382D01*
X16827500Y-129908153D01*
X16846407Y-129849962D01*
X16879832Y-129820843D01*
X17030233Y-129740452D01*
X17043200Y-129729809D01*
X17174860Y-129621760D01*
X17293551Y-129477134D01*
X17381747Y-129312132D01*
X17436058Y-129133093D01*
X17454396Y-128946900D01*
X17746049Y-128946900D01*
X17765101Y-129164663D01*
X17821681Y-129375822D01*
X17914062Y-129573932D01*
X17957498Y-129635968D01*
X18520831Y-129072634D01*
X18544949Y-129154771D01*
X18621950Y-129274588D01*
X18729589Y-129367857D01*
X18859145Y-129427024D01*
X18871739Y-129428834D01*
X18311052Y-129989522D01*
X18373088Y-130032959D01*
X18571199Y-130125340D01*
X18782358Y-130181920D01*
X19000121Y-130200972D01*
X19217885Y-130181920D01*
X19429044Y-130125340D01*
X19627155Y-130032959D01*
X19689190Y-129989522D01*
X19128502Y-129428834D01*
X19141099Y-129427024D01*
X19270655Y-129367857D01*
X19378294Y-129274588D01*
X19455295Y-129154771D01*
X19479412Y-129072636D01*
X20042744Y-129635968D01*
X20086181Y-129573933D01*
X20178562Y-129375822D01*
X20235142Y-129164663D01*
X20254194Y-128946900D01*
X20235142Y-128729136D01*
X20178562Y-128517977D01*
X20086181Y-128319866D01*
X20042744Y-128257830D01*
X19479411Y-128821162D01*
X19455295Y-128739029D01*
X19378294Y-128619212D01*
X19270655Y-128525943D01*
X19141099Y-128466776D01*
X19128501Y-128464964D01*
X19689190Y-127904276D01*
X19627154Y-127860840D01*
X19429044Y-127768459D01*
X19217885Y-127711879D01*
X19000121Y-127692827D01*
X18782358Y-127711879D01*
X18571199Y-127768459D01*
X18373086Y-127860841D01*
X18311052Y-127904276D01*
X18871741Y-128464965D01*
X18859145Y-128466776D01*
X18729589Y-128525943D01*
X18621950Y-128619212D01*
X18544949Y-128739029D01*
X18520831Y-128821163D01*
X17957498Y-128257830D01*
X17914063Y-128319864D01*
X17821681Y-128517977D01*
X17765101Y-128729136D01*
X17746049Y-128946900D01*
X17454396Y-128946900D01*
X17436058Y-128760707D01*
X17381747Y-128581668D01*
X17381747Y-128581667D01*
X17293552Y-128416667D01*
X17275503Y-128394675D01*
X17174860Y-128272040D01*
X17030234Y-128153349D01*
X17030235Y-128153349D01*
X17030232Y-128153347D01*
X16865232Y-128065152D01*
X16686191Y-128010841D01*
X16500000Y-127992503D01*
X16313808Y-128010841D01*
X16134767Y-128065152D01*
X15969767Y-128153347D01*
X15825140Y-128272040D01*
X15706447Y-128416667D01*
X15618252Y-128581667D01*
X15563941Y-128760708D01*
X15545603Y-128946899D01*
X15563941Y-129133091D01*
X15618252Y-129312132D01*
X15706447Y-129477132D01*
X15706449Y-129477134D01*
X15825140Y-129621760D01*
X15842453Y-129635968D01*
X15969766Y-129740452D01*
X16120168Y-129820843D01*
X16162575Y-129864948D01*
X16172500Y-129908153D01*
X16172499Y-131073337D01*
X16153592Y-131131528D01*
X16143503Y-131143341D01*
X10846504Y-136440341D01*
X10791987Y-136468118D01*
X10731555Y-136458547D01*
X10688290Y-136415282D01*
X10677500Y-136370337D01*
X10677500Y-134921717D01*
X10677877Y-134913087D01*
X10681287Y-134874115D01*
X10671160Y-134836324D01*
X10669290Y-134827888D01*
X10662497Y-134789362D01*
X10662497Y-134789361D01*
X10661698Y-134787978D01*
X10651806Y-134764097D01*
X10651394Y-134762557D01*
X10628945Y-134730497D01*
X10624318Y-134723234D01*
X10604750Y-134689340D01*
X10574775Y-134664188D01*
X10568419Y-134658364D01*
X9358185Y-133448131D01*
X9330408Y-133393614D01*
X9333451Y-133349393D01*
X9382958Y-133186193D01*
X9382958Y-133186191D01*
X9382959Y-133186189D01*
X9401296Y-133000000D01*
X9382958Y-132813808D01*
X9328647Y-132634767D01*
X9240452Y-132469767D01*
X9222403Y-132447775D01*
X9121760Y-132325140D01*
X8977134Y-132206449D01*
X8977135Y-132206449D01*
X8977132Y-132206447D01*
X8812132Y-132118252D01*
X8633091Y-132063941D01*
X8446899Y-132045603D01*
X8260708Y-132063941D01*
X8081667Y-132118252D01*
X7916667Y-132206447D01*
X7772040Y-132325140D01*
X7653347Y-132469767D01*
X7565152Y-132634767D01*
X7510841Y-132813808D01*
X7492503Y-133000000D01*
X500Y-133000000D01*
X500Y-130499877D01*
X7192827Y-130499877D01*
X7211879Y-130717641D01*
X7268459Y-130928800D01*
X7360840Y-131126910D01*
X7404276Y-131188946D01*
X7967609Y-130625612D01*
X7991727Y-130707749D01*
X8068728Y-130827566D01*
X8176367Y-130920835D01*
X8305923Y-130980002D01*
X8318517Y-130981812D01*
X7757830Y-131542500D01*
X7819866Y-131585937D01*
X8017977Y-131678318D01*
X8229136Y-131734898D01*
X8446899Y-131753950D01*
X8664663Y-131734898D01*
X8875822Y-131678318D01*
X9073933Y-131585937D01*
X9135968Y-131542500D01*
X8575280Y-130981812D01*
X8587877Y-130980002D01*
X8717433Y-130920835D01*
X8825072Y-130827566D01*
X8902073Y-130707749D01*
X8926190Y-130625614D01*
X9489522Y-131188946D01*
X9532959Y-131126911D01*
X9625340Y-130928800D01*
X9681920Y-130717641D01*
X9700972Y-130499877D01*
X9681920Y-130282114D01*
X9625340Y-130070955D01*
X9532959Y-129872844D01*
X9489522Y-129810808D01*
X8926189Y-130374140D01*
X8902073Y-130292007D01*
X8825072Y-130172190D01*
X8717433Y-130078921D01*
X8587877Y-130019754D01*
X8575279Y-130017942D01*
X9135968Y-129457254D01*
X9073932Y-129413818D01*
X8875822Y-129321437D01*
X8664663Y-129264857D01*
X8446899Y-129245805D01*
X8229136Y-129264857D01*
X8017977Y-129321437D01*
X7819864Y-129413819D01*
X7757830Y-129457254D01*
X8318519Y-130017943D01*
X8305923Y-130019754D01*
X8176367Y-130078921D01*
X8068728Y-130172190D01*
X7991727Y-130292007D01*
X7967609Y-130374141D01*
X7404276Y-129810808D01*
X7360841Y-129872842D01*
X7268459Y-130070955D01*
X7211879Y-130282114D01*
X7192827Y-130499877D01*
X500Y-130499877D01*
X500Y-128946900D01*
X13045481Y-128946900D01*
X13063819Y-129133091D01*
X13118130Y-129312132D01*
X13206325Y-129477132D01*
X13206327Y-129477134D01*
X13325018Y-129621760D01*
X13447653Y-129722403D01*
X13469645Y-129740452D01*
X13634645Y-129828647D01*
X13704912Y-129849962D01*
X13813685Y-129882958D01*
X13906781Y-129892127D01*
X13999877Y-129901296D01*
X13999877Y-129901295D01*
X13999878Y-129901296D01*
X14186071Y-129882958D01*
X14365110Y-129828647D01*
X14530112Y-129740451D01*
X14674738Y-129621760D01*
X14793429Y-129477134D01*
X14881625Y-129312132D01*
X14935936Y-129133093D01*
X14954274Y-128946900D01*
X14935936Y-128760707D01*
X14881625Y-128581668D01*
X14881625Y-128581667D01*
X14793430Y-128416667D01*
X14775381Y-128394675D01*
X14674738Y-128272040D01*
X14530112Y-128153349D01*
X14530113Y-128153349D01*
X14530110Y-128153347D01*
X14365110Y-128065152D01*
X14186069Y-128010841D01*
X13999877Y-127992503D01*
X13813686Y-128010841D01*
X13634645Y-128065152D01*
X13469645Y-128153347D01*
X13325018Y-128272040D01*
X13206325Y-128416667D01*
X13118130Y-128581667D01*
X13063819Y-128760708D01*
X13045481Y-128946900D01*
X500Y-128946900D01*
X500Y-123934678D01*
X2295748Y-123934678D01*
X2305748Y-124195591D01*
X2355462Y-124451927D01*
X2443720Y-124697666D01*
X2568459Y-124927059D01*
X2721812Y-125128238D01*
X2726750Y-125134716D01*
X2914886Y-125315778D01*
X3027491Y-125394982D01*
X3128459Y-125466001D01*
X3362451Y-125581859D01*
X3501997Y-125626020D01*
X3611395Y-125660641D01*
X3869445Y-125700500D01*
X3869447Y-125700500D01*
X4063272Y-125700500D01*
X4065177Y-125700500D01*
X4260344Y-125685516D01*
X4514586Y-125626021D01*
X4756766Y-125528414D01*
X4981208Y-125394982D01*
X5182652Y-125228852D01*
X5356375Y-125033920D01*
X5498306Y-124814753D01*
X5605118Y-124576489D01*
X5674307Y-124324713D01*
X5704252Y-124065325D01*
X5699244Y-123934678D01*
X29295748Y-123934678D01*
X29305748Y-124195591D01*
X29355462Y-124451927D01*
X29443720Y-124697666D01*
X29568459Y-124927059D01*
X29721812Y-125128238D01*
X29726750Y-125134716D01*
X29914886Y-125315778D01*
X30027491Y-125394982D01*
X30128459Y-125466001D01*
X30362451Y-125581859D01*
X30501997Y-125626020D01*
X30611395Y-125660641D01*
X30869445Y-125700500D01*
X30869447Y-125700500D01*
X31063272Y-125700500D01*
X31065177Y-125700500D01*
X31260344Y-125685516D01*
X31514586Y-125626021D01*
X31756766Y-125528414D01*
X31981208Y-125394982D01*
X32182652Y-125228852D01*
X32356375Y-125033920D01*
X32498306Y-124814753D01*
X32605118Y-124576489D01*
X32674307Y-124324713D01*
X32704252Y-124065325D01*
X32694251Y-123804407D01*
X32644538Y-123548073D01*
X32556279Y-123302332D01*
X32492610Y-123185247D01*
X32431540Y-123072940D01*
X32273252Y-122865287D01*
X32273250Y-122865284D01*
X32085114Y-122684222D01*
X31871544Y-122534001D01*
X31871540Y-122533998D01*
X31637548Y-122418140D01*
X31388609Y-122339360D01*
X31388607Y-122339359D01*
X31388605Y-122339359D01*
X31130555Y-122299500D01*
X30934823Y-122299500D01*
X30932936Y-122299644D01*
X30932932Y-122299645D01*
X30739654Y-122314484D01*
X30485414Y-122373979D01*
X30243231Y-122471587D01*
X30018795Y-122605015D01*
X29817345Y-122771149D01*
X29643623Y-122966081D01*
X29501695Y-123185244D01*
X29394881Y-123423513D01*
X29325693Y-123675284D01*
X29295748Y-123934678D01*
X5699244Y-123934678D01*
X5694251Y-123804407D01*
X5644538Y-123548073D01*
X5556279Y-123302332D01*
X5492610Y-123185247D01*
X5431540Y-123072940D01*
X5273252Y-122865287D01*
X5273250Y-122865284D01*
X5085114Y-122684222D01*
X4871544Y-122534001D01*
X4871540Y-122533998D01*
X4637548Y-122418140D01*
X4388609Y-122339360D01*
X4388607Y-122339359D01*
X4388605Y-122339359D01*
X4130555Y-122299500D01*
X3934823Y-122299500D01*
X3932936Y-122299644D01*
X3932932Y-122299645D01*
X3739654Y-122314484D01*
X3485414Y-122373979D01*
X3243231Y-122471587D01*
X3018795Y-122605015D01*
X2817345Y-122771149D01*
X2643623Y-122966081D01*
X2501695Y-123185244D01*
X2394881Y-123423513D01*
X2325693Y-123675284D01*
X2295748Y-123934678D01*
X500Y-123934678D01*
X500Y-120099500D01*
X19407Y-120041309D01*
X68907Y-120005345D01*
X99500Y-120000500D01*
X34900500Y-120000500D01*
X34958691Y-120019407D01*
G37*
G04 #@! TD.AperFunction*
M02*
